<svg width="120" height="120" viewBox="0 0 120 120" fill="none" xmlns="http://www.w3.org/2000/svg">
<path d="M101.548 35.4794V84.7994L59.8276 108.919V59.5994L101.548 35.4794Z" fill="white"/>
<path d="M60.311 59.8575V108.057L101.031 84.5375V36.3375L60.311 59.8575ZM59.791 109.417C59.711 109.417 59.631 109.417 59.551 109.377C59.391 109.257 59.271 109.097 59.271 108.937V59.5775C59.271 59.3775 59.391 59.2175 59.551 59.0975L101.271 35.0175C101.431 34.9375 101.631 34.9375 101.791 35.0175C101.951 35.1375 102.071 35.2975 102.071 35.4975V84.8175C102.071 85.0175 101.951 85.1775 101.791 85.2975L60.071 109.377C59.991 109.417 59.871 109.417 59.791 109.417Z" fill="#7370FF"/>
<path d="M59.8001 59.5701V108.89L18.0801 84.8101V35.4501L59.8001 59.5701Z" fill="white"/>
<path d="M18.5639 84.5375L59.2839 108.057V59.8575L18.5639 36.3375V84.5375ZM59.8039 109.417C59.6839 109.417 59.6039 109.417 59.5239 109.377L17.7639 85.2975C17.6439 85.1775 17.5239 85.0175 17.5239 84.8175V35.4575C17.5239 35.2975 17.6439 35.1375 17.7639 35.0175C17.9639 34.9375 18.1639 34.9375 18.3239 35.0175L60.0439 59.0975C60.2039 59.2175 60.2839 59.3775 60.2839 59.5775V108.897C60.2839 109.097 60.2039 109.257 60.0439 109.377C59.9639 109.417 59.8839 109.417 59.8039 109.417Z" fill="#7370FF"/>
<path d="M18.0791 35.4637L59.7991 11.3437L101.559 35.4637L59.7991 59.5837L18.0791 35.4637Z" fill="white"/>
<path d="M19.0829 35.4815L59.803 58.9615L100.523 35.4815L59.803 11.9615L19.0829 35.4815ZM59.803 60.0815C59.7229 60.0815 59.6429 60.0415 59.563 60.0015L17.8029 35.9215C17.6429 35.8415 17.5229 35.6415 17.5229 35.4815C17.5229 35.2815 17.6429 35.1215 17.8029 35.0015L59.563 10.9215C59.7229 10.8415 59.923 10.8415 60.043 10.9215L101.803 35.0015C101.963 35.1215 102.083 35.2815 102.083 35.4815C102.083 35.6415 101.963 35.8415 101.803 35.9215L60.043 60.0015C59.963 60.0415 59.8829 60.0815 59.803 60.0815Z" fill="#7370FF"/>
<path d="M33.0503 44.1116L74.7703 19.9916L86.5703 26.7916L44.8103 50.9116L33.0503 44.1116Z" fill="white"/>
<path d="M34.0829 44.1187L44.8429 50.3187L85.5229 26.7987L74.8029 20.6387L34.0829 44.1187ZM44.8429 51.4387C44.7229 51.4387 44.6429 51.4387 44.5629 51.3987L32.8029 44.5987C32.6029 44.4787 32.5229 44.3187 32.5229 44.1187C32.5229 43.9187 32.6029 43.7587 32.8029 43.6787L74.5229 19.5987C74.6829 19.4787 74.8829 19.4787 75.0429 19.5987L86.8029 26.3587C86.9629 26.4787 87.0829 26.6387 87.0829 26.7987C87.0829 26.9987 86.9629 27.1587 86.8029 27.2787L45.0829 51.3987C45.0029 51.4387 44.9229 51.4387 44.8429 51.4387Z" fill="#1FE422"/>
<path d="M33.0503 44.0986V59.7386C33.1703 59.7386 33.3303 59.8186 33.4903 59.9386C34.3303 60.7386 34.3303 62.4186 36.0103 61.5786V62.6986C37.6903 63.2586 38.5303 63.2586 39.6503 61.8586V63.2586L39.9303 63.0186C40.2103 64.0986 39.0903 64.9386 39.3703 66.0586C40.7703 65.4986 42.1703 63.8186 43.2903 65.2186C44.0503 63.6186 44.1303 62.0586 44.8103 60.4586V50.8986L33.0503 44.0986Z" fill="white"/>
<path d="M40.1629 62.5352C40.2829 62.6152 40.3629 62.7352 40.4029 62.8552C40.6029 63.5752 40.3229 64.1752 40.1229 64.7352C40.0429 64.8952 40.0029 65.0152 39.9229 65.1752C40.0429 65.0952 40.1629 65.0552 40.2429 65.0152C41.1629 64.4152 42.2429 63.8952 43.0829 64.3752C43.3229 63.7752 43.4829 63.2152 43.6029 62.5752C43.8029 61.8552 44.0029 61.1352 44.323 60.3752V51.2152L33.5629 45.0152V59.3352C33.6429 59.3752 33.7229 59.4552 33.8029 59.4952C34.1629 59.8552 34.3229 60.2152 34.5229 60.5352C34.8029 61.0952 34.9629 61.2952 35.2029 61.2952C35.2829 61.2952 35.4829 61.2952 35.7629 61.1352C35.9229 61.0552 36.1229 61.0552 36.2829 61.1352C36.4429 61.2552 36.5229 61.4152 36.5229 61.6152V62.3352C37.0029 62.4952 37.3629 62.5352 37.6429 62.5352C38.1229 62.5352 38.5629 62.3752 39.2429 61.5752C39.3629 61.3752 39.6029 61.3352 39.8029 61.3752C40.0429 61.4552 40.1629 61.6552 40.1629 61.8552V62.5352ZM39.3629 66.6152C39.2829 66.6152 39.2029 66.5752 39.1229 66.5352C39.0029 66.4552 38.8829 66.3352 38.8429 66.2152C38.6829 65.4552 38.9229 64.8552 39.1629 64.3352C39.2829 64.0952 39.3229 63.8952 39.4029 63.6952C39.2429 63.6152 39.1229 63.4552 39.1229 63.2952V63.0952C38.6429 63.4152 38.2029 63.5352 37.6429 63.5352C37.1629 63.5352 36.6429 63.4552 35.8429 63.2152C35.6429 63.1352 35.4829 62.9352 35.4829 62.6952V62.2952C34.4429 62.4952 33.9629 61.6952 33.6029 61.0552C33.4829 60.7352 33.3229 60.4552 33.1229 60.2552C33.0829 60.2552 33.0429 60.2152 33.0029 60.2152C32.7629 60.2152 32.5229 60.0152 32.5229 59.7352V44.0952C32.5229 43.8952 32.6429 43.7352 32.8029 43.6552C32.9629 43.5352 33.1629 43.5352 33.3229 43.6552L45.0829 50.4552C45.2429 50.5352 45.3229 50.6952 45.3229 50.8952V60.4552C45.3229 60.5352 45.3229 60.6152 45.2829 60.6952C45.0029 61.4152 44.8029 62.0952 44.6029 62.8552C44.4029 63.6552 44.2029 64.5752 43.7229 65.4552C43.6429 65.6152 43.4829 65.6952 43.3629 65.7352C43.1629 65.7352 43.0029 65.6952 42.8829 65.5352C42.6429 65.2152 42.4429 65.1752 42.2829 65.1752C41.8429 65.1752 41.3229 65.5352 40.8029 65.8552C40.4029 66.1352 40.0029 66.3752 39.5629 66.5752C39.4829 66.5752 39.4029 66.6152 39.3629 66.6152Z" fill="#1FE422"/>
<path d="M43.8215 90.8364C43.5415 91.1164 43.5415 90.2764 43.2615 90.5564C42.9815 91.1164 42.9815 91.6764 42.7015 91.9564C42.7015 89.9964 41.0215 89.1564 40.7415 87.4764C39.0615 88.0764 39.6215 90.8364 38.5015 89.4364C37.9415 88.8764 38.2215 87.1964 37.6615 86.0764C37.1015 85.2364 36.8215 87.4764 35.9815 86.0764C35.7015 86.6764 35.4215 86.9164 35.4215 87.4764C35.4215 86.9164 35.1415 86.9164 34.8615 86.6764C34.8615 87.1964 34.5815 87.4764 34.5815 88.0764C33.7415 87.4764 34.0215 86.0764 33.1815 86.0764C33.0615 86.1964 33.0615 86.3964 33.0215 86.5964V93.4764L44.8215 100.276V88.9564C44.7815 88.8364 44.7015 88.7164 44.6615 88.5964C44.6615 89.4364 44.1015 89.9964 43.8215 90.8364Z" fill="white"/>
<path d="M33.5629 93.1749L44.3229 99.3749V91.0549C44.2829 91.0949 44.2429 91.1749 44.2029 91.2149C44.1229 91.2949 43.8829 91.4149 43.7229 91.4149C43.6429 91.4149 43.6029 91.4149 43.5629 91.3749C43.5229 91.3749 43.5229 91.4149 43.5229 91.4149C43.4429 91.7349 43.3629 92.0949 43.0829 92.3349C42.9229 92.4549 42.7229 92.4949 42.5229 92.4149C42.3229 92.3349 42.2029 92.1749 42.2029 91.9749C42.2029 91.0149 41.7629 90.4149 41.2829 89.6949C41.0029 89.2549 40.683 88.8149 40.4429 88.2949C40.2429 88.5349 40.0829 88.9349 39.9229 89.3349C39.7629 89.8149 39.5629 90.3749 39.0029 90.3749C38.6429 90.3749 38.3629 90.0549 38.1229 89.7749C37.7229 89.3749 37.6829 88.6949 37.6029 87.9749C37.5229 87.4949 37.4829 87.0549 37.3629 86.6149C37.1629 86.8149 36.9229 87.0949 36.5629 87.0949C36.3629 87.0949 36.2429 87.0149 36.1229 86.9749C36.0029 87.1749 35.9629 87.2949 35.9629 87.4549C35.9629 87.8949 35.4029 88.1349 35.1229 87.8949V88.0549C35.1229 88.2149 35.0029 88.4149 34.8429 88.4949C34.6829 88.5749 34.4829 88.5749 34.3229 88.4549C33.9229 88.2149 33.6829 87.8149 33.5629 87.4149V93.1749ZM44.8429 100.775C44.7229 100.775 44.6429 100.735 44.5629 100.695L32.8029 93.9349C32.6429 93.8549 32.5229 93.6949 32.5229 93.4949V86.5749C32.5629 86.2549 32.6029 85.9349 32.8429 85.6949C32.9229 85.6549 33.0829 85.5749 33.2029 85.5749C33.9629 85.5749 34.2029 86.1349 34.3629 86.6149C34.4029 86.4149 34.4829 86.2549 34.6829 86.1749C34.8829 86.0949 35.1229 86.1349 35.2429 86.2549C35.2429 86.2949 35.2829 86.2949 35.2829 86.2949C35.2829 86.2949 35.3229 86.2549 35.3229 86.2149C35.4029 86.0949 35.4829 85.9749 35.5229 85.8549C35.6429 85.6949 35.8029 85.5749 36.0029 85.5749C36.1629 85.6149 36.3229 85.6949 36.4429 85.8149C36.4829 85.8549 36.5229 85.9349 36.5629 85.9749C36.5629 85.9349 36.6029 85.8949 36.6429 85.8549C36.8029 85.6949 37.0429 85.3749 37.4429 85.3749C37.6029 85.3749 37.8829 85.4549 38.1229 85.7749C38.4829 86.4549 38.5629 87.2149 38.6029 87.8549C38.6429 88.3349 38.7229 88.9349 38.8829 89.0549L38.9229 89.0949C38.9229 89.0549 38.9629 89.0149 38.9629 89.0149C39.1629 88.3749 39.5229 87.3349 40.6029 87.0149C40.7629 86.9749 40.9229 86.9749 41.0429 87.0549C41.1629 87.1349 41.2429 87.2549 41.2829 87.3749C41.3629 88.0149 41.7629 88.5749 42.1229 89.0949C42.3629 89.4549 42.6429 89.8549 42.8429 90.2949C42.8429 90.2549 42.8829 90.2549 42.9229 90.2149C43.0029 90.0949 43.2429 90.0149 43.403 90.0149C43.483 90.0149 43.5629 90.0149 43.6029 90.0549L43.7629 89.7349C44.0029 89.3349 44.1629 89.0149 44.1629 88.6149C44.1629 88.3749 44.3229 88.1749 44.5629 88.0949C44.8029 88.0549 45.0429 88.1749 45.1629 88.3749C45.2029 88.5349 45.2429 88.6549 45.3229 88.8149C45.3229 88.8549 45.3229 88.8949 45.3229 88.9749V100.295C45.3229 100.495 45.2429 100.655 45.0829 100.695C45.0029 100.735 44.9229 100.775 44.8429 100.775Z" fill="#1FE422"/>
<path d="M74.7986 20.0039L33.0786 44.1239L38.9586 47.4839L80.6786 23.4039L74.7986 20.0039Z" fill="white"/>
<path d="M34.0829 44.12L38.9229 46.92L79.643 23.4L74.803 20.64L34.0829 44.12ZM38.9229 48.04C38.8429 48.04 38.7629 48.04 38.6829 48L32.8029 44.6C32.6029 44.48 32.5229 44.32 32.5229 44.12C32.5229 43.92 32.6029 43.76 32.8029 43.68L74.523 19.6C74.683 19.48 74.883 19.48 75.043 19.6L80.923 22.96C81.083 23.08 81.2029 23.24 81.2029 23.4C81.2029 23.6 81.083 23.76 80.923 23.88L39.1629 48C39.0829 48.04 39.0429 48.04 38.9229 48.04Z" fill="#1FE422"/>
</svg>
