<svg width="120" height="120" viewBox="0 0 120 120" fill="none" xmlns="http://www.w3.org/2000/svg">
<path d="M85.7342 76.8L85.6942 89.88V99.84C85.6942 101.36 85.3342 102.56 84.7742 103.52C85.3342 102.56 85.6942 101.36 85.6942 99.84V89.88L85.7342 76.8V66.84C85.7342 62.96 83.6942 58.4 80.7342 55.24C79.7742 54.2 78.7342 53.32 77.5742 52.68L74.7742 51.04L77.5742 52.68C78.7342 53.32 79.7742 54.2 80.7342 55.24C83.6942 58.4 85.7342 62.96 85.7342 66.84V76.8ZM37.4142 29.4L51.4542 37.52L37.4142 29.4L29.0142 24.52C28.3342 24.12 27.6942 23.88 27.0942 23.68C27.6942 23.88 28.3342 24.12 29.0142 24.52L37.4142 29.4ZM93.6142 43.48L85.1742 38.56L76.7742 33.72C75.6942 31.04 73.7342 28.52 71.5342 27.24L59.3742 20.2C57.6542 19.24 56.1342 19.12 54.9742 19.76L53.8542 20.4L53.4542 20.16L45.0142 15.28C42.7742 14 40.7342 13.88 39.2142 14.72L23.2142 23.96C21.7342 24.8 20.8142 26.64 20.8142 29.24V29.88C19.4942 30.72 18.6542 32.4 18.6542 34.76L18.5742 46.48C18.5742 48.88 19.4142 51.56 20.7742 53.92L20.7342 62.2C20.7342 67.4 24.4142 73.76 28.9342 76.4L37.3742 81.28L69.0542 99.64L77.4942 104.56C79.7742 105.84 81.7742 105.96 83.2542 105.12L99.2942 95.88C100.774 95.04 101.694 93.24 101.694 90.6L101.734 80.64V67.6L101.774 57.64C101.774 52.44 98.0942 46.04 93.6142 43.48Z" fill="white"/>
<path d="M93.6031 43.4591L85.1631 38.5391L53.4431 20.1791L45.0031 15.2991C42.7631 13.9791 40.7231 13.8591 39.2431 14.7391L23.2031 23.9391C24.6831 23.0991 26.7631 23.2191 29.0031 24.4991L37.4431 29.3791L69.1631 47.7791L77.6031 52.6591C82.0831 55.2591 85.7631 61.6591 85.7231 66.8191V76.7791L85.6831 89.8591V99.8191C85.6831 102.459 84.7631 104.259 83.2831 105.099L99.3231 95.8991C100.763 95.0191 101.723 93.2191 101.723 90.6191V80.6591L101.763 67.5791V57.6191C101.763 52.4191 98.0831 46.0591 93.6031 43.4591Z" fill="white"/>
<path d="M26.0256 22.9169C27.0656 23.0369 28.1456 23.4369 29.2656 24.0769L77.8256 52.2369C82.5056 54.9169 86.2656 61.4769 86.2656 66.8369L86.1856 99.8369C86.1856 101.117 85.9856 102.237 85.5856 103.197L99.0256 95.4369C100.426 94.6769 101.186 92.9569 101.186 90.5969L101.226 57.6369C101.266 52.5969 97.7056 46.4369 93.3456 43.9169L44.7456 15.7569C42.7856 14.5969 40.8656 14.3969 39.4656 15.1969L26.0256 22.9169ZM83.2656 105.597C83.1056 105.597 82.9056 105.517 82.8256 105.397C82.7056 105.157 82.7856 104.837 83.0256 104.677C84.3856 103.837 85.1856 102.157 85.1856 99.8369L85.2256 66.8369C85.2256 61.7969 81.7056 55.6369 77.3456 53.1169L28.7456 24.9569C26.7856 23.7969 24.8256 23.5969 23.5056 24.3969H23.4656C23.2256 24.5569 22.9056 24.4369 22.7456 24.1969C22.6256 23.9569 22.7056 23.6369 22.9456 23.5169L38.9856 14.2769C40.6656 13.3169 42.9456 13.5169 45.2656 14.8369L93.8656 42.9969C98.5056 45.7169 102.266 52.2369 102.266 57.6369L102.226 90.5969C102.226 93.3169 101.266 95.3569 99.5456 96.3569L83.5056 105.557C83.4656 105.597 83.3856 105.597 83.2656 105.597Z" fill="#7370FF"/>
<path d="M77.5822 52.68L69.1422 47.76L37.4222 29.4L28.9822 24.52C26.7422 23.2 24.7022 23.08 23.2222 23.96C21.7422 24.8 20.8222 26.64 20.8222 29.24L20.7822 39.16V52.24L20.7422 62.2C20.7422 67.4 24.4222 73.76 28.9022 76.4L37.3422 81.28L69.0622 99.64L77.5022 104.56C79.7422 105.84 81.7822 105.96 83.2622 105.12C84.7422 104.24 85.6622 102.44 85.7022 99.84V89.88L85.7422 76.8V66.84C85.7422 61.64 82.0622 55.28 77.5822 52.68Z" fill="white"/>
<path d="M25.3391 23.9136C24.6591 23.9136 24.0191 24.0736 23.4591 24.3936C22.0991 25.1936 21.2991 26.9136 21.2991 29.2336L21.2591 62.2336C21.2591 67.2336 24.8191 73.3936 29.1791 75.9536L77.7791 104.074C78.9391 104.794 80.0991 105.154 81.1391 105.154C81.8591 105.154 82.4591 104.994 83.0191 104.674C84.4191 103.874 85.1791 102.194 85.1791 99.8336L85.2191 66.8336C85.2191 61.7936 81.6991 55.6336 77.3391 53.1136L28.7391 24.9536C27.5391 24.2736 26.3791 23.9136 25.3391 23.9136ZM81.1391 106.154C79.8991 106.154 78.6191 105.754 77.2591 104.994L28.6591 76.8336C24.0191 74.1136 20.2191 67.5936 20.2591 62.2336L20.2991 29.2336C20.2991 26.5136 21.2191 24.4736 22.9391 23.5136C24.6591 22.5136 26.9391 22.7136 29.2591 24.0736L77.8191 52.2336C82.4991 54.9136 86.2591 61.4736 86.2591 66.8336L86.1791 99.8336C86.1791 102.514 85.2591 104.554 83.5391 105.594C82.8191 105.954 82.0191 106.154 81.1391 106.154Z" fill="#7370FF"/>
<path d="M75.4555 54.9855L67.4955 50.3855L37.6555 33.0655L29.6555 28.4255C27.5755 27.2255 25.6155 27.1055 24.2555 27.9055L20.8955 29.8255C22.2955 29.0255 24.2155 29.1455 26.3355 30.3455L34.2955 34.9455L64.1755 52.2655L72.1355 56.8655C76.3355 59.3055 79.8155 65.3455 79.8155 70.2255L79.7355 81.9455C79.7355 84.3455 78.8555 86.0655 77.4955 86.9055L80.8155 84.9855C82.2155 84.1855 83.0955 82.4655 83.0955 80.0255L83.1355 68.3055C83.1355 63.4255 79.6955 57.4255 75.4555 54.9855Z" fill="white"/>
<path d="M23.6604 28.8289C24.6204 28.9489 25.5804 29.3089 26.6204 29.9089L72.3804 56.4289C76.7804 58.9489 80.3404 65.1489 80.3404 70.2289L80.2604 81.9489C80.2604 83.1089 80.0604 84.1489 79.7004 85.0289L80.5804 84.5489C81.8604 83.8289 82.5804 82.1889 82.5804 80.0289L82.6204 68.3089C82.6604 63.5889 79.3004 57.7889 75.2204 55.4289L29.4204 28.8689C27.5804 27.8289 25.7804 27.6289 24.5004 28.3489L23.6604 28.8289ZM77.5004 87.3889C77.3004 87.3889 77.1404 87.3089 77.0204 87.1489C76.9004 86.9089 76.9804 86.5889 77.2204 86.4289C78.5404 85.6689 79.2204 84.0689 79.2604 81.9489L79.3004 70.2289C79.3004 65.5089 75.9804 59.6689 71.8604 57.3089L26.1004 30.7889C24.2604 29.7089 22.4604 29.5489 21.1804 30.2289C20.9404 30.3889 20.6204 30.3089 20.4604 30.0689V30.0289C20.3404 29.8289 20.3804 29.5889 20.5404 29.4289H20.5804C20.5804 29.3889 20.6204 29.3889 20.6604 29.3489L23.9804 27.4689C25.5804 26.5489 27.7404 26.7089 29.9404 27.9889L75.7404 54.5489C80.1004 57.0689 83.6604 63.2689 83.6604 68.3089L83.6204 80.0289C83.6204 82.5489 82.7004 84.5089 81.1004 85.4689L77.7404 87.3089C77.6604 87.3489 77.5804 87.3889 77.5004 87.3889Z" fill="#7370FF"/>
<path d="M72.1342 56.8796L64.1742 52.2796L34.2942 34.9596L26.3342 30.3596C24.2142 29.1196 22.2942 28.9996 20.8942 29.7996C19.4942 30.5996 18.6542 32.3196 18.6542 34.7596L18.5742 46.4796C18.5742 51.3596 22.0542 57.3596 26.2942 59.8396L34.2142 64.4396L64.0942 81.7596L72.0542 86.3596C74.1742 87.5596 76.0942 87.6796 77.4942 86.8796C78.8542 86.0796 79.7342 84.3596 79.7342 81.9196L79.8142 70.1996C79.8142 65.3196 76.3342 59.3196 72.1342 56.8796Z" fill="white"/>
<path d="M22.9165 29.8109C22.2765 29.8109 21.6765 29.9709 21.1565 30.2509C19.8765 31.0109 19.1565 32.6109 19.1565 34.7709L19.1165 46.4909C19.0765 51.2109 22.4365 57.0109 26.5165 59.3709L72.3165 85.9309C74.1565 86.9709 75.9565 87.1709 77.2365 86.4509C78.5165 85.6909 79.2365 84.0909 79.2365 81.9309L79.2765 70.2109C79.3165 65.4909 75.9565 59.6909 71.8765 57.3309L26.0765 30.7709C24.9965 30.1309 23.8765 29.8109 22.9165 29.8109ZM75.4765 87.9309C74.3165 87.9309 73.0765 87.5309 71.7965 86.8109L25.9965 60.2909C21.6365 57.7309 18.0365 51.5309 18.0765 46.4909L18.1165 34.7709C18.1165 32.2509 19.0365 30.2909 20.6365 29.3709C22.2365 28.4509 24.3965 28.6509 26.5965 29.8909L72.3965 56.4509C76.7565 58.9709 80.3165 65.1709 80.3165 70.2109L80.2765 81.9309C80.2765 84.4909 79.3565 86.4109 77.7565 87.3309C77.0765 87.7309 76.3165 87.9309 75.4765 87.9309Z" fill="#7370FF"/>
<path d="M46.823 75.1615C46.823 75.5615 46.623 75.8415 46.383 76.0015C46.103 76.1215 45.743 76.1215 45.343 75.8815L42.543 74.2815C41.823 73.8415 41.103 72.7215 41.063 71.8415L40.583 64.6815C40.583 64.2415 40.703 63.8815 40.983 63.7215C41.183 63.6015 41.503 63.6415 41.863 63.8415L46.023 66.2415C46.783 66.6815 47.343 67.7215 47.303 68.5615L46.823 75.1615Z" fill="white"/>
<path d="M41.2746 64.1677C41.1546 64.2077 41.1146 64.3677 41.1146 64.6477L41.5946 71.8077C41.6346 72.5277 42.1946 73.4877 42.8346 73.8077L45.5946 75.4477C45.9146 75.6077 46.0346 75.6077 46.1546 75.5277C46.2346 75.4877 46.2746 75.3277 46.3146 75.1277L46.7946 68.5277C46.8346 67.8877 46.3546 67.0477 45.7946 66.6877L41.5946 64.2877C41.4346 64.1677 41.3146 64.1677 41.2746 64.1677ZM45.9946 76.6077C45.6746 76.6077 45.3946 76.5277 45.0746 76.3277L42.2746 74.7277C41.3946 74.2077 40.6346 72.9277 40.5546 71.8477L40.0746 64.7277C40.0346 64.0877 40.2746 63.5277 40.7146 63.2877C41.1146 63.0877 41.5946 63.0877 42.1146 63.3677L46.2746 65.8077C47.1946 66.3277 47.8746 67.5677 47.8346 68.6077L47.3546 75.2077C47.3146 75.7677 47.0746 76.2077 46.6346 76.4077C46.4346 76.5277 46.2346 76.6077 45.9946 76.6077Z" fill="#1FE422"/>
<path d="M48.1717 72.4831L48.4917 67.8831C48.5717 67.0431 48.0117 65.9631 47.2517 65.5631L43.0917 63.1631C42.6917 62.9231 42.3717 62.9231 42.1717 63.0431L40.9717 63.7231C41.1717 63.6031 41.4917 63.6431 41.8517 63.8431L46.0517 66.2431C46.7717 66.6831 47.3317 67.7231 47.3317 68.5631L46.8117 75.1631C46.8117 75.5631 46.6117 75.8031 46.4117 75.9631L47.6117 75.2831L50.2917 73.7231L48.1717 72.4831Z" fill="white"/>
<path d="M42.3754 63.5451L46.2954 65.8251C47.2154 66.3451 47.8954 67.5851 47.8154 68.5851L47.3754 74.8251L49.2554 73.7051L47.9354 72.9451C47.7354 72.8251 47.6554 72.6651 47.6554 72.4651L48.0154 67.8251C48.0554 67.1851 47.5754 66.3451 46.9754 66.0251L42.8154 63.5851C42.6554 63.5051 42.5354 63.5051 42.4954 63.5051L42.3754 63.5451ZM46.4154 76.5051C46.2154 76.5051 46.0554 76.3851 45.9354 76.2251C45.8154 75.9851 45.8954 75.6651 46.1354 75.5451C46.2554 75.4651 46.2954 75.3051 46.3354 75.1451L46.7754 68.5451C46.8554 67.8651 46.3754 67.0251 45.7754 66.7051L41.6154 64.3051C41.4554 64.1851 41.3354 64.1851 41.2954 64.1851V64.1451L41.2154 64.1851C40.9754 64.3451 40.6554 64.2651 40.5354 63.9851C40.3754 63.7451 40.4554 63.4651 40.6954 63.3051L41.8954 62.6251C42.3354 62.3851 42.8154 62.4251 43.3354 62.7051L47.4954 65.1051C48.4154 65.6651 49.0954 66.8651 49.0154 67.9051L48.7354 72.2251L50.5754 73.2651C50.6954 73.3851 50.8154 73.5451 50.8154 73.7051C50.8154 73.9051 50.6954 74.0651 50.5754 74.1851L46.6554 76.4251C46.5754 76.4651 46.4954 76.5051 46.4154 76.5051Z" fill="#1FE422"/>
<path d="M53.3298 29.3484C53.1698 29.4284 53.0498 29.6684 53.0498 29.9884V34.0684L58.4098 30.9884V26.8684C58.4098 26.5884 58.5298 26.3484 58.6898 26.2684L53.3298 29.3484Z" fill="white"/>
<path d="M57.9147 27.3157L53.5946 29.7957C53.5946 29.7957 53.5546 29.8357 53.5546 29.9557V33.1557L57.9147 30.6757V27.3157ZM53.0346 34.5957C52.9546 34.5957 52.8746 34.5557 52.7946 34.5157C52.6346 34.4357 52.5146 34.2357 52.5146 34.0757V29.9557C52.5146 29.5157 52.7146 29.1157 53.0746 28.9157L58.4347 25.7957C58.7147 25.6757 58.9947 25.7557 59.1547 25.9957C59.3147 26.2357 59.1947 26.5557 58.9547 26.7157C58.9547 26.7157 58.9147 26.7557 58.9147 26.8757V30.9557C58.9147 31.1557 58.8347 31.3557 58.6747 31.4357L53.3146 34.5157C53.1946 34.5557 53.1146 34.5957 53.0346 34.5957Z" fill="#1FE422"/>
<path d="M71.5118 27.2347L59.3918 20.2347C57.6718 19.2347 56.1118 19.1147 54.9918 19.7547L49.5918 22.8747C50.7118 22.2347 52.3118 22.3147 54.0318 23.3147L66.1518 30.3547C69.5918 32.3147 72.3518 37.1947 72.3518 41.1547V45.2747L77.7118 42.1547V38.0747C77.7518 34.0747 74.9518 29.2347 71.5118 27.2347Z" fill="white"/>
<path d="M52.1198 22.0127C52.7998 22.1327 53.5598 22.4127 54.2798 22.8527L66.3998 29.8927C69.9598 31.9727 72.8798 37.0127 72.8798 41.1727V44.3727L77.1998 41.8527V38.0527C77.1998 34.2527 74.5598 29.5727 71.2398 27.6927L59.1198 20.6527C57.6798 19.8127 56.2398 19.6527 55.2398 20.2127L52.1198 22.0127ZM72.3598 45.7727C72.2798 45.7727 72.1598 45.7327 72.1198 45.6927C71.9598 45.6127 71.8398 45.4127 71.8398 45.2527V41.1727C71.8398 37.3327 69.1598 32.6927 65.8798 30.7727L53.7598 23.7327C52.2798 22.8927 50.8798 22.7327 49.8798 23.2927V23.3327C49.6398 23.4527 49.3198 23.3727 49.1598 23.1327C48.9998 22.8527 49.1198 22.5727 49.3598 22.4127L54.7198 19.3327C56.0798 18.5727 57.8398 18.6927 59.6398 19.7727L71.7598 26.7727C75.3598 28.8527 78.2398 33.8927 78.2398 38.0527V42.1327C78.2398 42.3327 78.1198 42.5327 77.9598 42.6127L72.5998 45.6927C72.5198 45.7327 72.4398 45.7727 72.3598 45.7727Z" fill="#1FE422"/>
<path d="M53.0554 29.9654C53.0554 29.6454 53.1354 29.4454 53.3354 29.3254C53.4954 29.2454 53.7754 29.2454 54.0154 29.4054L66.1354 36.4454C66.6554 36.7254 67.0954 37.4854 67.0954 38.0854V42.2054L72.3354 45.2454V41.1654C72.3754 37.1654 69.5754 32.3254 66.1354 30.3254L54.0154 23.2854C52.2954 22.3254 50.7354 22.2054 49.6154 22.8854C48.4954 23.5254 47.7754 24.9254 47.7754 26.8854V31.0054L53.0554 34.0854V29.9654Z" fill="white"/>
<path d="M67.5827 41.9071L71.8227 44.3871V41.1471C71.8227 37.3471 69.1827 32.7071 65.8627 30.7871L53.7427 23.7471C52.3027 22.9071 50.8627 22.7471 49.8627 23.3471C48.8627 23.9071 48.3027 25.1871 48.3027 26.9071V30.7071L52.5427 33.1871V29.9871C52.5427 29.4671 52.7427 29.1071 53.0627 28.9071C53.4227 28.7071 53.8627 28.7471 54.2627 28.9871L66.3827 35.9871C67.0627 36.3871 67.5827 37.3071 67.5827 38.1071V41.9071ZM72.3427 45.7871C72.2627 45.7871 72.1827 45.7471 72.1027 45.7071L66.8227 42.6671C66.6627 42.5471 66.5427 42.3871 66.5427 42.1871L66.5827 38.1071C66.5827 37.7071 66.2227 37.0671 65.8627 36.9071L53.7427 29.8671C53.6627 29.7871 53.5827 29.7871 53.5827 29.7871C53.5827 29.7871 53.5427 29.8671 53.5427 29.9871V34.0671C53.5427 34.2671 53.4627 34.4271 53.3027 34.5071C53.1427 34.6271 52.9427 34.6271 52.7827 34.5071L47.5027 31.4671C47.3427 31.3871 47.2627 31.1871 47.2627 31.0271V26.9071C47.2627 24.7871 47.9827 23.2271 49.3427 22.4271C50.6627 21.6671 52.4627 21.8271 54.2627 22.8671L66.3827 29.9071C69.9827 31.9471 72.8627 37.0271 72.8627 41.1471V45.2671C72.8627 45.4271 72.7427 45.6271 72.5827 45.7071C72.5427 45.7471 72.4627 45.7871 72.3427 45.7871Z" fill="#1FE422"/>
</svg>
