<svg width="160" height="161" viewBox="0 0 160 161" fill="none" xmlns="http://www.w3.org/2000/svg">
<path d="M50.6804 93.003V103.723C49.5604 104.31 48.8137 105.376 48.8137 106.71C48.8137 108.523 50.3071 110.016 52.1737 110.016C53.9871 110.016 55.4804 108.523 55.4804 106.71C55.4804 105.376 54.7337 104.31 53.6671 103.723V94.763C59.1071 97.7497 66.0404 99.8297 73.7204 100.576V106.176C66.0404 107.723 60.5471 111.936 60.5471 116.95C60.5471 118.923 61.4004 120.79 62.8937 122.39C61.4004 120.79 60.5471 118.923 60.5471 116.95V123.19C60.5471 129.536 69.4004 134.603 80.2804 134.603C91.2137 134.603 100.067 129.536 100.067 123.19V116.95C100.067 111.936 94.5204 107.723 86.8404 106.176V100.576C105.187 98.763 119.16 89.5897 119.16 78.4964C119.16 68.7364 113.827 50.6564 105.4 36.4697H105.347C102.627 29.963 92.4404 25.1097 80.2804 25.1097C68.1204 25.1097 57.9337 29.963 55.1604 36.4697C46.7337 50.6564 41.4004 68.7364 41.4004 78.4964C41.4004 83.9897 44.9204 89.1097 50.6804 93.003Z" fill="#2B303E"/>
<path d="M80.2886 128.364C69.3553 128.364 60.502 123.244 60.502 116.95V123.19C60.502 129.484 69.3553 134.604 80.2886 134.604C91.2219 134.604 100.075 129.484 100.075 123.19V116.95C100.075 123.244 91.2219 128.364 80.2886 128.364Z" fill="#2B303E"/>
<path d="M61.2103 121.28V123.2C61.2103 129.067 69.797 133.92 80.3036 133.92C90.8103 133.92 99.3436 129.067 99.3436 123.2V121.28C96.4103 125.813 88.997 129.067 80.3036 129.067C71.6103 129.067 64.197 125.813 61.2103 121.28ZM80.3036 135.307C68.997 135.307 59.877 129.867 59.877 123.2V116.96C59.877 116.587 60.1436 116.267 60.517 116.267C60.9436 116.267 61.2103 116.587 61.2103 116.96C61.2103 122.827 69.797 127.68 80.3036 127.68C90.8103 127.68 99.3436 122.827 99.3436 116.96C99.3436 116.587 99.6636 116.267 100.09 116.267C100.41 116.267 100.73 116.587 100.73 116.96V123.2C100.73 129.867 91.5569 135.307 80.3036 135.307Z" fill="#1FE422"/>
<path d="M80.2886 128.392C69.3553 128.392 60.502 123.272 60.502 116.978C60.502 110.685 69.3553 105.565 80.2886 105.565C91.2219 105.565 100.075 110.685 100.075 116.978C100.075 123.272 91.2219 128.392 80.2886 128.392Z" fill="#2B303E"/>
<path d="M80.2646 106.229C69.7579 106.229 61.1712 111.029 61.1712 116.949C61.1712 122.869 69.7579 127.669 80.2646 127.669C90.7712 127.669 99.3046 122.869 99.3046 116.949C99.3046 111.029 90.7712 106.229 80.2646 106.229ZM80.2646 129.056C69.0112 129.056 59.8379 123.616 59.8379 116.949C59.8379 110.283 69.0112 104.896 80.2646 104.896C91.5179 104.896 100.691 110.283 100.691 116.949C100.691 123.616 91.5179 129.056 80.2646 129.056Z" fill="#1FE422"/>
<path d="M55.4889 106.726C55.4889 108.539 53.9956 110.032 52.1823 110.032C50.3156 110.032 48.8223 108.539 48.8223 106.726C48.8223 104.859 50.3156 103.419 52.1823 103.419C53.9956 103.419 55.4889 104.859 55.4889 106.726Z" fill="#2B303E"/>
<path d="M52.1582 104.069C50.7182 104.069 49.4915 105.242 49.4915 106.735C49.4915 108.175 50.7182 109.402 52.1582 109.402C53.5982 109.402 54.8249 108.175 54.8249 106.735C54.8249 105.242 53.5982 104.069 52.1582 104.069ZM52.1582 110.735C49.9182 110.735 48.1582 108.922 48.1582 106.735C48.1582 104.495 49.9182 102.735 52.1582 102.735C54.3982 102.735 56.2115 104.495 56.2115 106.735C56.2115 108.922 54.3982 110.735 52.1582 110.735Z" fill="#1FE422"/>
<path d="M52.1515 90.9805C51.3515 90.9805 50.6582 90.6072 50.6582 90.0739V104.687C50.6582 105.167 51.3515 105.541 52.1515 105.541C53.0049 105.541 53.6449 105.167 53.6449 104.687V90.0739C53.6449 90.6072 53.0049 90.9805 52.1515 90.9805Z" fill="#2B303E"/>
<path d="M51.3665 104.658C51.4199 104.658 51.6865 104.872 52.1665 104.872C52.6465 104.872 52.9665 104.658 53.0199 104.605L52.9665 91.5384C52.4865 91.6984 51.8465 91.6984 51.3665 91.5384V104.658ZM52.1665 106.205C50.9399 106.205 50.0332 105.565 50.0332 104.658V90.0984C50.0332 89.7251 50.2999 89.4051 50.6732 89.4051C51.0465 89.4051 51.3665 89.7251 51.3665 90.0984C51.3665 90.0984 51.6332 90.2584 52.1665 90.2584C52.6465 90.2584 52.9132 90.1517 52.9665 90.0451C52.9665 89.9917 52.9665 89.9917 53.0199 89.9384C53.0732 89.6184 53.3399 89.3517 53.6599 89.3517C54.0332 89.3517 54.3532 89.7251 54.3532 90.0984V104.658C54.3532 105.565 53.4465 106.205 52.1665 106.205Z" fill="#1FE422"/>
<path d="M52.1515 90.9707C51.3515 90.9707 50.6582 90.5974 50.6582 90.064C50.6582 89.6374 51.3515 89.264 52.1515 89.264C53.0049 89.264 53.6449 89.6374 53.6449 90.064C53.6449 90.5974 53.0049 90.9707 52.1515 90.9707Z" fill="#2B303E"/>
<path d="M51.3808 90.1409C51.4875 90.1409 51.7541 90.3009 52.1808 90.3009C52.6075 90.3009 52.9275 90.1409 52.9808 90.0343C52.9275 90.0876 52.6608 89.9276 52.1808 89.9276C51.7008 89.9276 51.3808 90.0876 51.3808 90.1943C51.3808 90.1409 51.3808 90.1409 51.3808 90.1409ZM52.1808 91.6343C50.9008 91.6343 49.9941 90.9943 49.9941 90.0876C49.9941 89.1809 50.9008 88.5943 52.1808 88.5943C53.4075 88.5943 54.3675 89.1809 54.3675 90.0876C54.3675 90.9943 53.4075 91.6343 52.1808 91.6343Z" fill="#1FE422"/>
<path d="M80.2651 100.998C76.6384 100.998 73.7051 99.2916 73.7051 97.2116V117.105C73.7051 119.238 76.6384 120.892 80.2651 120.892C83.8917 120.892 86.8251 119.238 86.8251 117.105V97.2116C86.8251 99.2916 83.8917 100.998 80.2651 100.998Z" fill="#2B303E"/>
<path d="M74.3886 99.849V117.076C74.3886 118.782 77.1086 120.222 80.2553 120.222C83.4553 120.222 86.1753 118.782 86.1753 117.076V99.849C84.8419 100.969 82.7086 101.662 80.2553 101.662C77.802 101.662 75.6686 100.969 74.3886 99.849ZM80.2553 121.556C76.202 121.556 73.002 119.636 73.002 117.076V97.1823C73.002 96.809 73.322 96.5423 73.6953 96.5423C74.0686 96.5423 74.3886 96.809 74.3886 97.1823C74.3886 98.889 77.1086 100.329 80.2553 100.329C83.4553 100.329 86.1753 98.889 86.1753 97.1823C86.1753 96.809 86.4953 96.5423 86.8153 96.5423C87.2419 96.5423 87.5086 96.809 87.5086 97.1823V117.076C87.5086 119.636 84.3619 121.556 80.2553 121.556Z" fill="#1FE422"/>
<path d="M80.2651 100.971C76.6384 100.971 73.7051 99.264 73.7051 97.184C73.7051 95.104 76.6384 93.344 80.2651 93.344C83.8917 93.344 86.8251 95.104 86.8251 97.184C86.8251 99.264 83.8917 100.971 80.2651 100.971Z" fill="#2B303E"/>
<path d="M80.2943 94.1C77.0943 94.1 74.4277 95.4867 74.4277 97.1933C74.4277 98.9 77.0943 100.287 80.2943 100.287C83.4943 100.287 86.161 98.9 86.161 97.1933C86.161 95.4867 83.4943 94.1 80.2943 94.1ZM80.2943 101.673C76.241 101.673 73.041 99.6467 73.041 97.1933C73.041 94.6867 76.241 92.7133 80.2943 92.7133C84.3477 92.7133 87.5477 94.6867 87.5477 97.1933C87.5477 99.6467 84.3477 101.673 80.2943 101.673Z" fill="#1FE422"/>
<path d="M119.16 78.4778C119.16 68.7178 113.774 50.6912 105.4 36.5045H55.1604C46.7337 50.6912 41.4004 68.7178 41.4004 78.4778C41.4004 90.8512 58.7871 100.931 80.2804 100.931C101.72 100.931 119.16 90.8512 119.16 78.4778Z" fill="#2B303E"/>
<path d="M55.563 37.1686C47.1363 51.5152 42.0697 69.3819 42.0697 78.4486C42.0697 84.2086 46.0163 89.5952 53.1097 93.7552C60.363 97.9686 70.0163 100.262 80.2563 100.262C101.27 100.262 118.39 90.5019 118.443 78.5552V78.3952C118.443 69.3286 113.376 51.5152 105.003 37.1686H55.563ZM80.2563 101.595C58.443 101.595 40.7363 91.2486 40.7363 78.4486C40.7363 69.2752 45.5897 51.3019 54.5497 36.1019C54.7097 35.9419 54.923 35.8352 55.1363 35.8352H105.376C105.59 35.8352 105.856 35.9419 105.963 36.1019C114.976 51.3019 119.83 69.2219 119.83 78.3952V78.4486C119.83 91.2486 102.123 101.595 80.2563 101.595Z" fill="#7370FF"/>
<path d="M80.2749 25.0879C65.9815 25.0879 54.4082 31.7546 54.4082 40.0213C54.4082 48.2879 65.9815 54.9546 80.2749 54.9546C94.5682 54.9546 106.088 48.2879 106.088 40.0213C106.088 31.7546 94.5682 25.0879 80.2749 25.0879Z" fill="#2B303E"/>
<path d="M80.2651 25.7911C66.3984 25.7911 55.0917 32.1911 55.0917 40.031C55.0917 47.9244 66.3984 54.271 80.2651 54.271C94.1317 54.271 105.438 47.9244 105.438 40.031C105.438 32.1911 94.1317 25.7911 80.2651 25.7911ZM80.2651 55.6577C65.6517 55.6577 53.7051 48.6177 53.7051 40.031C53.7051 31.3911 65.6517 24.4044 80.2651 24.4044C94.8784 24.4044 106.825 31.3911 106.825 40.031C106.825 48.6177 94.8784 55.6577 80.2651 55.6577Z" fill="#7370FF"/>
</svg>
