<svg width="160" height="71" viewBox="0 0 160 71" fill="none" xmlns="http://www.w3.org/2000/svg">
<g clip-path="url(#clip0)">
<path fill-rule="evenodd" clip-rule="evenodd" d="M45.7358 8.96002L61.0466 17.4769L49.3297 24.2708L45.7358 8.96002Z" fill="#198BCA"/>
<path fill-rule="evenodd" clip-rule="evenodd" d="M15.1631 61.44L0 52.7754L11.7169 46.0308L15.1631 61.44Z" fill="#66C6EC"/>
<path fill-rule="evenodd" clip-rule="evenodd" d="M30.4243 0.0491943L45.7351 8.8615L30.4243 13.44V0.0491943Z" fill="#0E4A6F"/>
<path fill-rule="evenodd" clip-rule="evenodd" d="M30.4737 70.3508L15.0645 61.5385L30.5229 56.96L30.4737 70.3508Z" fill="#0B79B8"/>
<path fill-rule="evenodd" clip-rule="evenodd" d="M30.4243 13.3908L45.7351 8.86157L39.8766 18.757L30.4243 13.3908Z" fill="#0D6394"/>
<path fill-rule="evenodd" clip-rule="evenodd" d="M30.4737 57.0092L15.0645 61.5385L21.0706 51.6431L30.4737 57.0092Z" fill="#198BCA"/>
<path fill-rule="evenodd" clip-rule="evenodd" d="M39.7295 18.6585L45.7849 8.81232L49.3787 24.32L39.7295 18.6585Z" fill="#0B79B8"/>
<path fill-rule="evenodd" clip-rule="evenodd" d="M21.0708 51.5939L15.1139 61.4892L11.52 46.08L21.0708 51.5939Z" fill="#109EDE"/>
<path fill-rule="evenodd" clip-rule="evenodd" d="M15.1631 8.81231L30.4739 0V13.4892L15.1631 8.81231Z" fill="#9DD7EF"/>
<path fill-rule="evenodd" clip-rule="evenodd" d="M45.7357 61.5877L30.4741 70.4V56.9108L45.7357 61.5877Z" fill="#0D6394"/>
<path fill-rule="evenodd" clip-rule="evenodd" d="M0 17.6246L15.3108 8.81232L11.5692 24.2216L0 17.6246Z" fill="#159DD9"/>
<path fill-rule="evenodd" clip-rule="evenodd" d="M61.046 52.7754L45.6367 61.5877L49.1813 46.1785L61.046 52.7754Z" fill="#2AA9E0"/>
<path fill-rule="evenodd" clip-rule="evenodd" d="M11.52 24.2216L15.3108 8.81232L20.9723 18.8554L11.52 24.2216Z" fill="#28B2E3"/>
<path fill-rule="evenodd" clip-rule="evenodd" d="M49.3788 46.1785L45.6373 61.5877L40.0742 51.5939L49.3788 46.1785Z" fill="#198BCA"/>
<path fill-rule="evenodd" clip-rule="evenodd" d="M20.874 18.8554L15.2617 8.81232L30.3756 13.3908L20.874 18.8554Z" fill="#66C6EC"/>
<path fill-rule="evenodd" clip-rule="evenodd" d="M40.172 51.5446L45.6859 61.5877L30.4243 57.0092L40.172 51.5446Z" fill="#0E4973"/>
<path fill-rule="evenodd" clip-rule="evenodd" d="M0 17.6246L11.52 24.1723L0 35.1016V17.6246Z" fill="#198BCA"/>
<path fill-rule="evenodd" clip-rule="evenodd" d="M0 35.0031L11.6185 46.08L0 52.7261V35.0031Z" fill="#0E4973"/>
<path fill-rule="evenodd" clip-rule="evenodd" d="M11.52 46.08L0 35.0031L11.52 34.8554V46.08Z" fill="#0D6394"/>
<path fill-rule="evenodd" clip-rule="evenodd" d="M49.3784 24.32L60.8984 35.3969L49.3784 35.4954V24.32Z" fill="#28B2E3"/>
<path fill-rule="evenodd" clip-rule="evenodd" d="M60.9966 35.4954L49.2305 24.32L60.9966 17.4769V35.4954Z" fill="#159DD9"/>
<path fill-rule="evenodd" clip-rule="evenodd" d="M11.52 24.1723L0 35.1015H11.52V24.1723Z" fill="#0B79B8"/>
<path fill-rule="evenodd" clip-rule="evenodd" d="M60.9973 52.7261L49.3296 46.2277L60.9973 35.2492V52.7261Z" fill="#9DD7EF"/>
<path fill-rule="evenodd" clip-rule="evenodd" d="M49.3784 46.2277L60.8984 35.2492H49.3784V46.2277Z" fill="#66C6EC"/>
<mask id="mask0" mask-type="alpha" maskUnits="userSpaceOnUse" x="66" y="13" width="94" height="26">
<path d="M160 38.8923H66.4614V13.2923H160V38.8923Z" fill="white"/>
</mask>
<g mask="url(#mask0)">
<path d="M85.5139 17.2308L95.557 42.4862H93.8339L90.6832 34.3139H78.5232L75.2739 42.4862H73.6001L83.8401 17.2308H85.5139ZM90.1909 33.0339L85.5632 21.3169C85.4647 21.0215 85.2678 20.5785 85.0709 19.9877C84.8739 19.3969 84.7262 18.9538 84.6278 18.6585C84.5786 18.8554 84.4801 19.1015 84.3324 19.4462C84.1847 19.7908 84.0863 20.0862 83.9878 20.3815C83.8893 20.6769 83.7909 20.9231 83.6924 21.2185L78.9662 33.0339H90.1909Z" fill="#111111"/>
<path d="M119.73 24.4185H118.203C117.957 20.1846 115.299 18.0184 110.277 18.0184C108.062 18.0184 106.339 18.4615 105.059 19.3969C103.828 20.3323 103.188 21.6123 103.188 23.2861C103.188 24.0246 103.336 24.6646 103.582 25.2061C103.828 25.7477 104.173 26.1908 104.616 26.5354C105.059 26.88 105.6 27.2246 106.289 27.4707C106.979 27.7661 107.668 27.9631 108.406 28.16C109.145 28.3569 109.982 28.5538 110.917 28.7508C111.459 28.8492 111.803 28.9477 112.099 28.9969C112.886 29.1938 113.477 29.3415 113.822 29.3908C114.166 29.4892 114.708 29.6369 115.397 29.8338C116.136 30.08 116.677 30.2769 117.022 30.4738C117.366 30.6708 117.809 30.9169 118.302 31.3108C118.794 31.6554 119.188 32.0492 119.434 32.4431C119.68 32.8369 119.877 33.3292 120.074 33.92C120.271 34.5108 120.369 35.1508 120.369 35.84C120.369 38.1046 119.533 39.8277 117.859 41.1077C116.185 42.3877 113.871 43.0277 110.917 43.0277C107.816 43.0277 105.403 42.2892 103.582 40.8123C101.809 39.3354 100.923 37.12 100.923 34.1661H102.4C102.449 36.7261 103.237 38.6461 104.714 39.8769C106.191 41.1569 108.308 41.7969 111.016 41.7969C113.477 41.7969 115.446 41.3046 116.825 40.2708C118.203 39.2369 118.893 37.8092 118.893 35.9877C118.893 35.4461 118.794 34.9538 118.646 34.5108C118.499 34.0677 118.302 33.6738 118.056 33.3292C117.809 32.9846 117.514 32.6892 117.071 32.3938C116.628 32.0984 116.234 31.9015 115.939 31.7046C115.594 31.5569 115.151 31.36 114.56 31.2123C113.97 31.0154 113.526 30.9169 113.182 30.8185C112.886 30.7692 112.394 30.6215 111.754 30.5231C111.114 30.4246 110.671 30.2769 110.474 30.2277C107.865 29.6369 106.093 29.0954 105.256 28.7508C102.893 27.6677 101.711 25.9446 101.711 23.4831C101.711 21.4154 102.499 19.7907 104.025 18.6092C105.551 17.4277 107.717 16.8369 110.425 16.8369C113.182 16.8369 115.397 17.4769 117.071 18.7569C118.696 19.8892 119.582 21.8092 119.73 24.4185Z" fill="#111111"/>
<path d="M130.019 17.2308V42.4862H128.493V17.2308H130.019Z" fill="#111111"/>
<path d="M156.898 24.4185H155.372C155.126 20.1846 152.468 18.0184 147.446 18.0184C145.231 18.0184 143.508 18.4615 142.228 19.3969C140.997 20.3323 140.357 21.6123 140.357 23.2861C140.357 24.0246 140.505 24.6646 140.751 25.2061C140.997 25.7477 141.342 26.1908 141.785 26.5354C142.228 26.88 142.769 27.2246 143.458 27.4707C144.148 27.7661 144.837 27.9631 145.575 28.16C146.314 28.3569 147.151 28.5538 148.086 28.7508C148.628 28.8492 148.972 28.9477 149.268 28.9969C150.055 29.1938 150.646 29.3415 150.991 29.3908C151.335 29.4892 151.877 29.6369 152.566 29.8338C153.305 30.08 153.846 30.2769 154.191 30.4738C154.535 30.6708 154.978 30.9169 155.471 31.3108C155.963 31.6554 156.357 32.0492 156.603 32.4431C156.849 32.8369 157.046 33.3292 157.243 33.92C157.44 34.5108 157.538 35.1508 157.538 35.84C157.538 38.1046 156.702 39.8277 155.028 41.1077C153.354 42.3877 151.04 43.0277 148.086 43.0277C144.985 43.0277 142.572 42.2892 140.751 40.8123C138.978 39.3354 138.092 37.12 138.092 34.1661H139.569C139.618 36.7261 140.406 38.6461 141.883 39.8769C143.36 41.1569 145.477 41.7969 148.185 41.7969C150.646 41.7969 152.615 41.3046 153.994 40.2708C155.372 39.2369 156.062 37.8092 156.062 35.9877C156.062 35.4461 155.963 34.9538 155.815 34.5108C155.668 34.0677 155.471 33.6738 155.225 33.3292C154.978 32.9846 154.683 32.6892 154.24 32.3938C153.797 32.0984 153.403 31.9015 153.108 31.7046C152.763 31.5569 152.32 31.36 151.729 31.2123C151.138 31.0154 150.695 30.9169 150.351 30.8185C150.055 30.7692 149.563 30.6215 148.923 30.5231C148.283 30.4246 147.84 30.2769 147.643 30.2277C145.034 29.6369 143.262 29.0954 142.425 28.7508C140.062 27.6677 138.88 25.9446 138.88 23.4831C138.88 21.4154 139.668 19.7907 141.194 18.6092C142.72 17.4277 144.886 16.8369 147.594 16.8369C150.351 16.8369 152.566 17.4769 154.24 18.7569C155.815 19.8892 156.751 21.8092 156.898 24.4185Z" fill="#111111"/>
</g>
<path d="M159.262 43.7169H74.0923V45.1938H159.262V43.7169Z" fill="#56BEF0"/>
<path d="M78.9664 54.7938V55.5322H74.7817V49.2307H75.6187V54.7938H78.9664Z" fill="#111111"/>
<path d="M87.237 49.0338C88.1723 49.0338 88.96 49.3292 89.4523 49.92C89.9447 50.5107 90.24 51.2984 90.24 52.283C90.24 53.2677 89.9939 54.0553 89.4523 54.6953C88.9108 55.3353 88.1723 55.6307 87.237 55.6307C86.7447 55.6307 86.3016 55.5323 85.9077 55.3846C85.5139 55.2369 85.2185 54.9415 84.9723 54.6461C84.7262 54.3507 84.5293 53.9569 84.4308 53.563C84.2831 53.1692 84.2339 52.7261 84.2339 52.283C84.2339 51.2984 84.5293 50.5107 85.0708 49.92C85.6123 49.3292 86.3508 49.0338 87.237 49.0338ZM87.237 49.7723C86.5477 49.7723 86.0062 50.0184 85.6123 50.5107C85.2185 51.003 85.0708 51.5938 85.0708 52.3323C85.0708 53.12 85.2677 53.76 85.6616 54.203C86.0554 54.6953 86.597 54.8923 87.237 54.8923C87.877 54.8923 88.4185 54.6461 88.8123 54.203C89.2062 53.76 89.4031 53.12 89.4031 52.3323C89.4031 51.5446 89.2062 50.9046 88.8123 50.4615C88.4677 50.0184 87.9262 49.7723 87.237 49.7723Z" fill="#111111"/>
<path d="M101.662 52.1846V55.5323H101.12L100.923 54.7446C100.431 55.3846 99.7419 55.68 98.9049 55.68C98.0188 55.68 97.2803 55.3846 96.7388 54.7938C96.1972 54.2031 95.9019 53.4154 95.9019 52.4308C95.9019 51.4461 96.1972 50.6585 96.7388 50.0185C97.2803 49.3785 98.0188 49.0831 99.0034 49.0831C99.4465 49.0831 99.8403 49.1815 100.234 49.3292C100.628 49.4769 100.923 49.7231 101.219 50.0185C101.465 50.3631 101.613 50.7077 101.662 51.1508H100.825C100.776 50.7569 100.579 50.4123 100.234 50.1661C99.8896 49.92 99.4957 49.7723 99.0034 49.7723C98.3142 49.7723 97.7726 50.0184 97.3788 50.4615C96.9849 50.9538 96.788 51.5446 96.788 52.3815C96.788 53.1692 96.9849 53.8092 97.3788 54.2523C97.7726 54.6954 98.3142 54.9415 99.0034 54.9415C99.6434 54.9415 100.136 54.7446 100.48 54.3508C100.825 53.9569 100.973 53.4646 101.022 52.8246H99.0034V52.1846H101.662Z" fill="#111111"/>
<path d="M108.652 49.1815V55.4831H107.815V49.1815H108.652Z" fill="#111111"/>
<path d="M119.434 51.0523H118.647C118.548 50.2153 118.056 49.7723 117.071 49.7723C116.628 49.7723 116.284 49.8707 116.037 50.0676C115.791 50.2646 115.644 50.5107 115.644 50.8553C115.644 50.9538 115.644 51.1015 115.693 51.1507C115.742 51.1999 115.791 51.2984 115.89 51.3969C115.988 51.4461 116.037 51.5446 116.136 51.5938C116.234 51.643 116.333 51.6923 116.481 51.7415C116.628 51.7907 116.776 51.8399 116.874 51.8399C116.973 51.8399 117.121 51.8892 117.367 51.9384C117.613 51.9876 117.859 52.0369 118.007 52.0861C118.154 52.1353 118.401 52.1846 118.597 52.283C118.844 52.3815 119.041 52.4799 119.139 52.6276C119.287 52.7261 119.385 52.923 119.484 53.1199C119.582 53.3169 119.631 53.563 119.631 53.8092C119.631 54.2522 119.484 54.6461 119.237 54.9415C118.991 55.2369 118.696 55.4338 118.351 55.5815C118.007 55.6799 117.613 55.7784 117.17 55.7784C116.382 55.7784 115.742 55.5815 115.25 55.2369C114.757 54.843 114.561 54.3015 114.561 53.563H115.348C115.348 54.1046 115.545 54.4984 115.89 54.7446C116.234 54.9907 116.677 55.0892 117.219 55.0892C117.662 55.0892 118.007 54.9907 118.351 54.843C118.647 54.6461 118.794 54.3507 118.794 53.9569C118.794 53.7599 118.745 53.6123 118.647 53.4646C118.548 53.3169 118.45 53.2184 118.253 53.1199C118.056 53.0215 117.908 52.9723 117.711 52.923C117.514 52.8738 117.317 52.8246 117.022 52.7261C116.973 52.7261 116.973 52.7261 116.924 52.7261C116.284 52.5784 115.841 52.4799 115.644 52.3815C115.053 52.1353 114.708 51.643 114.708 51.003C114.708 50.4123 114.954 49.9692 115.397 49.6738C115.841 49.3784 116.382 49.2307 117.022 49.2307C117.711 49.2307 118.253 49.3784 118.696 49.723C119.188 49.9199 119.434 50.4123 119.434 51.0523Z" fill="#111111"/>
<path d="M129.97 49.1815V49.92H127.853V55.4831H127.016V49.92H124.899V49.1815H129.97Z" fill="#111111"/>
<path d="M136.419 49.1815V55.4831H135.582V49.1815H136.419Z" fill="#111111"/>
<path d="M148.037 53.12C147.988 53.9077 147.692 54.5477 147.2 54.9908C146.708 55.4338 146.068 55.68 145.28 55.68C144.394 55.68 143.655 55.3846 143.163 54.7938C142.622 54.2031 142.375 53.4154 142.375 52.3815C142.375 51.4461 142.622 50.6585 143.163 50.0185C143.705 49.3785 144.443 49.0831 145.379 49.0831C146.068 49.0831 146.609 49.28 147.151 49.6246C147.643 49.9692 147.939 50.4615 147.988 51.1015H147.151C147.052 50.7077 146.856 50.3631 146.511 50.1169C146.215 49.8707 145.822 49.7723 145.329 49.7723C144.64 49.7723 144.099 50.0185 143.754 50.5108C143.409 51.0031 143.212 51.6431 143.212 52.3323C143.212 53.12 143.409 53.76 143.803 54.2523C144.197 54.6954 144.689 54.9415 145.329 54.9415C145.871 54.9415 146.314 54.7938 146.609 54.4985C146.905 54.2031 147.102 53.76 147.2 53.1692H148.037V53.12Z" fill="#111111"/>
<path d="M158.474 51.0523H157.686C157.588 50.2153 157.095 49.7723 156.111 49.7723C155.668 49.7723 155.323 49.8707 155.077 50.0676C154.831 50.2646 154.683 50.5107 154.683 50.8553C154.683 50.9538 154.683 51.1015 154.732 51.1507C154.782 51.1999 154.831 51.2984 154.929 51.3969C155.028 51.4461 155.077 51.5446 155.175 51.5938C155.274 51.643 155.372 51.6923 155.52 51.7415C155.668 51.7907 155.815 51.8399 155.914 51.8399C156.012 51.8399 156.16 51.8892 156.406 51.9384C156.652 51.9876 156.899 52.0369 157.046 52.0861C157.194 52.1353 157.44 52.1846 157.637 52.283C157.883 52.3815 158.08 52.4799 158.179 52.6276C158.326 52.7261 158.425 52.923 158.523 53.1199C158.622 53.3169 158.671 53.563 158.671 53.8092C158.671 54.2522 158.523 54.6461 158.277 54.9415C158.031 55.2369 157.735 55.4338 157.391 55.5815C157.046 55.6799 156.652 55.7784 156.209 55.7784C155.422 55.7784 154.782 55.5815 154.289 55.2369C153.797 54.843 153.6 54.3015 153.6 53.563H154.388C154.388 54.1046 154.585 54.4984 154.929 54.7446C155.274 54.9907 155.717 55.0892 156.259 55.0892C156.702 55.0892 157.046 54.9907 157.391 54.843C157.686 54.6461 157.834 54.3507 157.834 53.9569C157.834 53.7599 157.785 53.6123 157.686 53.4646C157.588 53.3169 157.489 53.2184 157.292 53.1199C157.095 53.0215 156.948 52.9723 156.751 52.923C156.554 52.8738 156.357 52.8246 156.062 52.7261C156.012 52.7261 156.012 52.7261 155.963 52.7261C155.323 52.5784 154.88 52.4799 154.683 52.3815C154.092 52.1353 153.748 51.643 153.748 51.003C153.748 50.4123 153.994 49.9692 154.437 49.6738C154.88 49.3784 155.422 49.2307 156.062 49.2307C156.751 49.2307 157.292 49.3784 157.735 49.723C158.228 49.9199 158.425 50.4123 158.474 51.0523Z" fill="#111111"/>
</g>
<defs>
<clipPath id="clip0">
<rect width="160" height="70.4" fill="white"/>
</clipPath>
</defs>
</svg>
