<svg width="120" height="120" viewBox="0 0 120 120" fill="none" xmlns="http://www.w3.org/2000/svg">
<path d="M81.0108 102.223C81.0108 103.463 80.6908 104.463 80.1308 105.063C80.6908 104.463 81.0108 103.463 81.0108 102.223V53.1432C81.0108 49.8232 78.6508 45.7832 75.7708 44.1032L46.9308 27.4632L75.7708 44.1032C78.6508 45.7832 81.0108 49.8232 81.0108 53.1432V102.223ZM86.6508 37.8232L44.1708 13.3032C42.7308 12.4632 41.4108 12.3832 40.4508 12.9432L29.6108 19.2232C29.8508 19.0632 30.0908 18.9832 30.3708 18.9032C30.0908 18.9832 29.8508 19.0632 29.6108 19.2232C28.6508 19.7432 28.0508 20.9432 28.0508 22.5832V71.6632C28.0508 74.9832 30.4108 79.0632 33.2908 80.7032L75.7708 105.223C77.2108 106.103 78.5308 106.183 79.4908 105.623L90.3308 99.3432C91.2908 98.7832 91.8908 97.6232 91.8908 95.9832V46.8632C91.8908 43.5432 89.5308 39.5032 86.6508 37.8232Z" fill="white"/>
<path d="M86.6435 37.8377L44.1635 13.2777C42.7235 12.4777 41.4035 12.3977 40.4435 12.9177L29.6035 19.1977C30.5235 18.6777 31.8435 18.7177 33.2835 19.5577L75.7635 44.0777C78.6435 45.7577 81.0035 49.8377 81.0035 53.1577V102.198C81.0035 103.878 80.4035 105.078 79.4835 105.598L90.3235 99.3177C91.2835 98.7577 91.8835 97.5977 91.8835 95.9577V46.8777C91.8835 43.5577 89.5235 39.4777 86.6435 37.8377Z" fill="white"/>
<path d="M31.9194 18.4557C32.4394 18.5757 32.9994 18.7757 33.5594 19.1357L76.0394 43.6557C79.0394 45.4157 81.5194 49.6557 81.5194 53.1357V102.216C81.5194 102.856 81.4394 103.416 81.2794 103.976L90.0794 98.8957C90.9194 98.3757 91.3594 97.3757 91.3594 95.9357V46.8557C91.3594 43.7757 89.0794 39.8157 86.3994 38.2557L43.8794 13.7357C42.6794 13.0157 41.5194 12.8957 40.7194 13.3757L31.9194 18.4557ZM79.4794 106.096C79.2794 106.096 79.1194 106.016 79.0394 105.856C78.8794 105.616 78.9594 105.296 79.1994 105.136H79.2394C80.0394 104.656 80.4794 103.616 80.4794 102.216V53.1357C80.4794 50.0157 78.1994 46.0557 75.5194 44.5357L33.0394 20.0157C31.8394 19.2957 30.6394 19.1757 29.8394 19.6557C29.5994 19.7757 29.2794 19.6957 29.1594 19.4557C28.9994 19.2157 29.0794 18.8957 29.3194 18.7357H29.3594L40.1994 12.4957C41.3194 11.8157 42.8394 11.9357 44.3994 12.8157L86.9194 37.3757C89.9194 39.1357 92.3994 43.3757 92.3994 46.8557V95.9357C92.3994 97.7357 91.7594 99.0957 90.5994 99.7357L79.7194 106.016C79.6394 106.056 79.5594 106.096 79.4794 106.096Z" fill="#7370FF"/>
<path d="M81.0108 102.223C81.0108 103.903 80.4108 105.063 79.4908 105.623C78.5308 106.183 77.2108 106.103 75.7708 105.223L33.2908 80.7032C30.4108 79.0632 28.0508 74.9832 28.0508 71.6632V22.5832C28.0508 20.9432 28.6508 19.7432 29.6108 19.2232C30.5308 18.6632 31.8508 18.7432 33.2908 19.5832L75.7708 44.1032C78.6508 45.7832 81.0108 49.8232 81.0108 53.1432V102.223Z" fill="white"/>
<path d="M30.982 19.3566C30.582 19.3566 30.182 19.4366 29.862 19.6366C29.062 20.1166 28.582 21.1566 28.582 22.5966V71.6766C28.582 74.7566 30.862 78.6766 33.542 80.2366L76.062 104.797C77.262 105.477 78.422 105.597 79.222 105.157C80.062 104.677 80.502 103.597 80.502 102.197V53.1566C80.502 50.0366 78.222 46.0766 75.542 44.5566L33.062 19.9966C32.302 19.5966 31.622 19.3566 30.982 19.3566ZM78.102 106.477C77.302 106.477 76.422 106.197 75.542 105.677L33.062 81.1566C30.022 79.3966 27.582 75.1566 27.582 71.6766V22.5966C27.582 20.7966 28.182 19.3966 29.342 18.7566C30.502 18.0766 32.022 18.2366 33.542 19.1166L76.062 43.6366C79.062 45.3966 81.542 49.6766 81.542 53.1566V102.197C81.542 103.997 80.902 105.357 79.742 106.037C79.262 106.317 78.702 106.477 78.102 106.477Z" fill="#7370FF"/>
<path d="M40.6945 70.3729L68.3745 86.3729V54.4129L40.6945 38.4129V70.3729ZM71.1745 91.2129L37.8945 72.0129V33.5729L71.1745 52.8129V91.2129Z" fill="#1FE422"/>
<path d="M53.4503 74.8283C52.7303 74.4283 52.0503 73.8283 51.4103 73.0683C51.0903 72.6683 50.8103 72.2683 50.5703 71.8283L49.9703 70.7883L49.9303 70.6683C49.2903 69.1483 48.8503 67.8283 48.5703 66.8683C48.2103 65.5883 47.8903 64.4283 47.6903 63.5883C47.4503 62.4283 47.1703 61.3483 46.9303 60.2683C46.7703 59.3883 46.5703 58.5883 46.3703 57.7083C45.9703 55.9883 45.5303 54.1483 44.8903 52.3483C44.5303 51.3483 44.2103 50.5483 43.8103 49.7883C43.6103 49.3483 43.4103 48.9883 43.1703 48.6283C43.0503 48.4283 42.9303 48.2683 42.7703 48.0283C42.6503 47.8683 42.5303 47.7083 42.3703 47.5083C41.9703 47.0283 41.8103 46.3083 42.0503 45.9883C42.2103 45.7483 42.4903 45.7083 42.8103 45.9083C42.8103 45.9083 42.8503 45.9083 42.8503 45.9483H42.8903V45.9883C43.1303 46.1483 43.3703 46.3083 43.5703 46.5083C43.8103 46.7083 44.0103 46.9083 44.2103 47.1083C44.6103 47.4283 45.0503 47.9083 45.4503 48.3883C46.1303 49.2283 46.8503 50.1883 47.6103 51.3483C48.9303 53.3883 50.0503 55.5083 51.0503 57.4283C51.5303 58.3483 51.9703 59.2683 52.4503 60.1883C52.6903 60.6683 52.9703 61.2283 53.2503 61.7483C53.7703 61.3483 54.3303 60.9483 54.8903 60.5883C55.6503 60.1083 56.6103 59.4283 57.6503 58.8683C58.2503 58.5483 58.6903 58.3083 59.1703 58.0683C59.6503 57.8683 60.1703 57.6283 60.7703 57.4283C61.2103 57.3083 61.7703 57.1483 62.4503 56.9883C63.1303 56.8683 63.6903 56.7883 64.2503 56.7483H64.4103C64.6503 56.7083 64.9303 56.7083 65.1703 56.7083C65.4903 56.7083 65.8103 56.7083 66.0903 56.7483C66.4503 56.7483 66.7703 56.7883 67.0503 56.8283C67.3303 56.8683 67.6103 56.9083 67.8903 56.9483L68.0103 56.9883C68.6503 57.0683 69.2903 57.2283 69.9703 57.3883C70.6503 57.5483 71.2903 57.7483 71.9303 57.9883C72.2103 58.1083 72.5303 58.1883 72.8903 58.3483C73.2103 58.4683 73.5303 58.5883 73.8903 58.7483C74.4502 58.9883 75.0503 59.2283 75.6502 59.5083L75.8503 59.5883L75.8903 59.6283C76.3302 59.8683 76.6903 60.4683 76.7303 60.9883C76.7703 61.4683 76.5703 61.7483 76.2103 61.7083H76.1702L76.0103 61.6683C75.4902 61.5883 74.9702 61.5083 74.4103 61.4683C74.1302 61.4283 73.8903 61.3883 73.5703 61.3883V61.3483C73.2503 61.3483 72.9703 61.3083 72.7303 61.3083C72.2103 61.3083 71.6503 61.3083 71.0903 61.3483C70.5703 61.3483 70.0503 61.4283 69.5703 61.5083L69.4503 61.5483C69.2503 61.5883 69.0503 61.5883 68.8503 61.6683C68.6103 61.7083 68.4103 61.7883 68.1703 61.8683H68.1303C67.9303 61.9483 67.7303 62.0283 67.4903 62.1083H67.4503C67.2903 62.1883 67.1303 62.2683 66.9703 62.3483L66.8103 62.3883C66.3703 62.6283 65.9303 62.9083 65.6103 63.1083C65.1703 63.4683 64.8503 63.7483 64.5303 63.9883C64.1703 64.3483 63.8103 64.7083 63.5303 65.0683C63.2503 65.3883 62.9303 65.7083 62.5703 66.1883C62.0103 66.9083 61.4503 67.7083 60.7303 68.8283C60.2503 69.5483 59.7703 70.3083 59.2903 71.0683C58.5703 72.2283 57.8103 73.3483 57.0903 74.4683C56.3303 75.5883 54.9703 75.6683 53.4503 74.8283Z" fill="#1FE422"/>
</svg>
