<svg width="160" height="161" viewBox="0 0 160 161" fill="none" xmlns="http://www.w3.org/2000/svg">
<path d="M137.499 82.4595C136.755 82.8862 135.746 83.4729 134.577 84.1129C135.746 83.4729 136.755 82.8862 137.499 82.4595C139.253 81.3929 140.793 80.9129 142.122 80.7529C140.793 80.9129 139.253 81.3929 137.499 82.4595ZM129.051 87.3129C127.51 88.2195 125.81 89.2329 124.057 90.2462C121.134 91.8995 118.053 93.7129 115.024 95.4729C118.053 93.7129 121.134 91.8995 124.057 90.2462C125.81 89.2329 127.51 88.2195 129.051 87.3129C130.114 86.7262 131.07 86.1395 132.027 85.6062C131.07 86.1395 130.114 86.7262 129.051 87.3129ZM107.001 100.113C107.639 99.7395 108.276 99.3662 108.914 98.9929C108.276 99.3662 107.639 99.7395 107.001 100.113ZM84.42 120.913C84.3668 121.02 84.2606 121.126 84.1543 121.233C84.2606 121.126 84.3668 121.02 84.42 120.913ZM85.1107 119.953L84.8982 120.273L85.1107 119.953ZM83.4105 122.033C83.4636 121.926 83.5699 121.873 83.623 121.766C83.5699 121.873 83.4636 121.926 83.4105 122.033ZM82.5072 122.78C82.5072 122.78 82.5603 122.78 82.5603 122.726C82.5603 122.78 82.5072 122.78 82.5072 122.78ZM80.1163 124.06C80.2225 124.006 80.2757 124.006 80.3288 123.953C80.2757 124.006 80.2225 124.006 80.1163 124.06ZM78.5223 124.433C78.6286 124.433 78.7348 124.38 78.8411 124.38C78.7348 124.38 78.6286 124.433 78.5223 124.433ZM81.4446 123.473C81.4977 123.42 81.604 123.42 81.6571 123.366L81.604 123.42C81.5508 123.42 81.4977 123.473 81.4446 123.473ZM75.3875 124.22C75.4937 124.273 75.5469 124.273 75.6531 124.326C75.5469 124.273 75.4937 124.273 75.3875 124.22ZM73.6341 123.633C73.6872 123.633 73.7935 123.686 73.8998 123.74C73.7935 123.686 73.6872 123.633 73.6341 123.633ZM71.987 122.726C72.0933 122.78 72.1464 122.833 72.2527 122.886C72.1464 122.833 72.0933 122.78 71.987 122.726ZM70.0742 121.286C70.2337 121.34 70.3399 121.446 70.4462 121.553C70.3399 121.446 70.2337 121.34 70.0742 121.286ZM77.0877 124.54H77.1408H77.0877ZM65.6643 116.06C66.5144 117.286 67.4708 118.566 68.5334 119.686C67.4708 118.566 66.5144 117.286 65.6643 116.06ZM59.0759 92.6995C57.8007 98.1395 60.0854 107.846 65.5049 115.793C60.0854 107.846 57.8007 98.1395 59.0759 92.6995ZM47.9181 87.2595C48.0775 86.5662 48.29 86.1395 48.6619 85.9262C48.29 86.1395 48.0775 86.5662 47.9181 87.2595ZM27.5684 96.6462C27.5153 96.5929 27.4621 96.5929 27.4621 96.5395C27.4621 96.5929 27.5153 96.5929 27.5684 96.6462ZM25.2306 94.4062C25.3368 94.5129 25.4431 94.6195 25.4962 94.6729C25.4431 94.6195 25.3368 94.5129 25.2306 94.4062ZM15.4542 75.3662C15.5074 75.5795 15.5605 75.7929 15.6668 76.0062C15.5605 75.7929 15.5074 75.5795 15.4542 75.3662ZM14.8166 72.9129C14.8698 73.1262 14.9229 73.2862 14.976 73.5529C14.9229 73.2862 14.8698 73.1262 14.8166 72.9129ZM14.4978 70.8329C14.4978 70.9929 14.551 71.1529 14.551 71.3129C14.551 71.1529 14.4978 70.9929 14.4978 70.8329ZM14.4978 67.5795C14.4978 67.6862 14.4978 67.7395 14.4978 67.8462C14.4978 67.7395 14.4978 67.6862 14.4978 67.5795ZM14.8698 66.3529L14.7635 66.5129L14.8698 66.3529ZM14.3916 69.0729V69.4462V69.0729ZM57.907 33.9262C56.5786 34.1395 55.0378 34.6729 53.3376 35.6862C52.7 36.0062 51.903 36.4862 51.0529 36.9662C51.903 36.4862 52.7 36.0062 53.3376 35.6862C55.0378 34.6729 56.5786 34.1395 57.907 33.9262ZM19.6517 64.2195H19.2266H19.6517ZM21.1394 64.5395C20.98 64.4862 20.7675 64.4329 20.5549 64.3795C20.7675 64.4329 20.98 64.4862 21.1394 64.5395ZM22.8396 65.0729C22.574 64.9662 22.3614 64.8595 22.0958 64.8062C22.3614 64.8595 22.574 64.9662 22.8396 65.0729ZM24.8587 65.8195C24.5399 65.6595 24.1148 65.4995 23.796 65.3929C24.1148 65.4995 24.5399 65.6595 24.8587 65.8195ZM27.6747 67.0995C26.9839 66.7262 26.2932 66.4062 25.6556 66.0862C26.2932 66.4062 26.9839 66.7262 27.6747 67.0995ZM42.4454 92.7529C42.3923 92.9129 42.3392 93.0729 42.286 93.1795C42.3392 93.0729 42.3923 92.9129 42.4454 92.7529ZM43.083 90.0862C43.0299 90.2462 42.9768 90.4595 42.9236 90.7262C42.9768 90.4595 43.0299 90.2462 43.083 90.0862ZM42.286 81.4995C42.2329 81.3395 42.1798 81.2862 42.1267 81.1795C42.1798 81.2862 42.2329 81.3395 42.286 81.4995ZM43.0299 84.6462C42.9768 84.4329 42.9236 84.2729 42.9236 84.0595C42.9236 84.2729 42.9768 84.4329 43.0299 84.6462ZM43.2424 87.8462C43.2424 87.5795 43.2424 87.3662 43.2424 87.0995C43.2424 87.3662 43.2424 87.5795 43.2424 87.8462ZM17.2076 64.3262C17.1545 64.3795 17.1013 64.3795 17.0482 64.3795C17.1013 64.3795 17.1545 64.3795 17.2076 64.3262ZM18.3234 64.1662C18.2171 64.1662 18.1109 64.2195 18.0577 64.2195C18.1109 64.2195 18.2171 64.1662 18.3234 64.1662ZM16.2512 64.7529L16.3044 64.6995C16.2512 64.7529 16.2512 64.7529 16.1981 64.7529H16.2512ZM15.4542 65.3929C15.4542 65.4462 15.4011 65.4995 15.4011 65.4995C15.4011 65.4995 15.4542 65.4462 15.4542 65.3929ZM83.8887 102.78C83.623 102.46 83.3573 102.086 83.0917 101.766C83.3573 102.086 83.623 102.46 83.8887 102.78ZM85.217 104.593C84.9513 104.113 84.6325 103.686 84.2606 103.26C84.6325 103.686 84.9513 104.113 85.217 104.593ZM92.3898 107.526H92.3367H92.3898ZM100.2 104.006C101.794 103.153 103.601 102.086 105.62 100.913C103.601 102.086 101.794 103.153 100.2 104.006ZM87.1829 109.713C87.1829 109.82 87.236 109.98 87.236 110.086C87.236 109.98 87.1829 109.82 87.1829 109.713ZM86.8641 108.326C86.9172 108.486 86.9703 108.646 86.9703 108.806C86.9703 108.646 86.9172 108.486 86.8641 108.326ZM86.4921 107.046L86.5984 107.526L86.4921 107.046ZM85.9077 105.766C85.9608 105.926 86.0139 106.033 86.0671 106.193C86.0139 106.033 85.9608 105.926 85.9077 105.766ZM85.6952 118.993C85.642 119.1 85.5889 119.153 85.5358 119.206C85.5889 119.153 85.642 119.1 85.6952 118.993ZM86.7578 116.433C86.7047 116.54 86.7047 116.646 86.6515 116.753C86.7047 116.646 86.7047 116.54 86.7578 116.433ZM87.0766 115.153C87.0235 115.313 87.0235 115.42 86.9703 115.58C87.0235 115.42 87.0235 115.313 87.0766 115.153ZM87.2891 113.926C87.2891 114.033 87.236 114.193 87.236 114.353C87.236 114.193 87.2891 114.033 87.2891 113.926ZM82.5603 101.233C82.2415 100.913 81.9759 100.593 81.6571 100.273C81.9759 100.593 82.2415 100.913 82.5603 101.233ZM65.5049 89.6062C65.1861 89.4995 64.8673 89.3929 64.6016 89.3395C64.8673 89.3929 65.1861 89.4995 65.5049 89.6062ZM67.2582 90.1929C66.9394 90.0329 66.6207 89.9262 66.3019 89.8195C66.6207 89.9262 66.9394 90.0329 67.2582 90.1929ZM69.8617 91.3662C69.2773 91.0462 68.7459 90.7795 68.2146 90.5129C68.7459 90.7795 69.2773 91.0462 69.8617 91.3662ZM71.8276 92.4329C71.4026 92.2729 71.0838 92.0595 70.7118 91.8462C71.0838 92.0595 71.4026 92.2729 71.8276 92.4329ZM73.7404 93.7129C73.3685 93.4462 73.0497 93.2329 72.6777 92.9662C73.0497 93.2329 73.3685 93.4462 73.7404 93.7129ZM75.7063 95.0995C75.3344 94.7795 74.9624 94.5662 74.5905 94.2995C74.9624 94.5662 75.3344 94.7795 75.7063 95.0995ZM77.5659 96.5929C77.2471 96.2729 76.8752 96.0062 76.5033 95.6862C76.8752 96.0062 77.194 96.2729 77.5659 96.5929ZM79.3724 98.0862C79.0536 97.8195 78.6817 97.4995 78.3098 97.1795C78.6817 97.4995 79.0005 97.7662 79.3724 98.0862ZM81.0726 99.6329C80.7538 99.3129 80.3819 99.0462 80.0631 98.7262C80.3819 99.0462 80.7538 99.3129 81.0726 99.6329ZM63.9109 89.2862C63.6452 89.2329 63.3265 89.2329 63.1139 89.2329C63.3265 89.2329 63.6452 89.2329 63.9109 89.2862ZM62.4763 89.2329L61.7856 89.3929L62.4763 89.2329ZM60.9355 89.7129C61.0418 89.6595 61.148 89.6062 61.2543 89.5529C61.0418 89.6595 60.8292 89.8195 60.6167 89.9795C60.723 89.8729 60.8292 89.7662 60.9355 89.7129ZM60.351 90.1929C60.0854 90.4062 59.8197 90.7262 59.6603 91.0995C59.8197 90.7262 60.0854 90.4062 60.351 90.1929ZM87.3954 113.02V112.646V113.02ZM145.947 99.5262C147.382 100.38 149.56 100.22 151.42 99.0995L154.395 97.3929C157.211 95.7929 158.115 93.0729 156.414 91.4729L146.532 81.9262C146.319 81.6595 146.053 81.4462 145.735 81.3395L143.131 79.7929C141.325 78.7795 138.562 78.8862 134.949 80.9662C128.998 84.3795 108.861 96.0595 98.6063 102.033C91.4334 89.2329 68.8522 77.1795 62.4232 79.2595C60.2448 75.7395 56.2067 73.5529 53.9752 74.4062C50.2559 68.6462 38.6731 59.7929 29.0561 56.1129C38.5668 50.5129 48.9807 44.5395 52.5406 42.4595C54.5065 41.3395 55.8348 41.3395 56.8443 41.8729C59.3415 43.3129 59.5541 48.5929 60.2448 50.8329C60.5104 51.7395 61.0418 52.3795 61.7325 52.7529C63.2202 53.6062 65.3455 53.4462 67.2582 52.3795L70.1805 50.6195C72.9965 49.0195 73.8998 46.2995 72.1995 44.6995L62.3701 35.1529C62.1044 34.8862 61.8387 34.6729 61.52 34.5129L58.9165 33.0195C57.1631 32.0062 54.3471 32.0595 50.7341 34.1929C44.9958 37.4995 25.7619 48.6462 15.2417 54.7262C13.6477 53.8195 12.1069 53.1795 10.5661 52.5395C10.3535 52.4862 10.1941 52.4862 10.0347 52.5395L3.07441 56.6462C2.91501 56.6995 2.86188 56.8062 2.86188 56.9662C2.80875 58.6195 1.95863 62.6195 5.1997 64.3795C11.4162 67.7929 8.70643 67.5262 14.2853 82.1929C20.6612 99.2062 32.6691 107.633 40.4796 103.1L47.493 99.0462C50.0965 97.4995 52.2749 94.5129 53.5501 89.8729C54.2939 91.7929 54.4002 94.4062 55.0378 97.9262C59.3947 122.566 75.3875 133.02 84.048 128.006C84.4731 127.793 84.8982 127.473 85.3232 127.1C84.8982 127.473 84.4731 127.793 84.048 128.006L91.0084 123.953C91.4866 123.686 91.9116 123.42 92.3367 123.046C93.665 121.926 95.259 119.366 96.4279 117.233C96.9592 117.553 97.4374 117.82 97.8624 117.66L98.1812 117.5L105.195 113.446C106.736 112.54 106.098 109.82 106.098 108.113C106.098 108.006 105.779 107.74 105.407 107.42C116.246 101.18 132.186 91.8995 136.755 89.2329C138.668 88.1129 140.05 88.0595 141.059 88.6462C143.556 90.1395 143.769 95.3662 144.459 97.6062C144.725 98.5129 145.256 99.0995 145.947 99.5262Z" fill="#2B303E"/>
<path d="M72.2133 44.7176L62.3307 35.1709C62.1182 34.9043 61.7994 34.7443 61.4806 34.5309C59.7273 33.5176 56.9112 33.5709 53.2982 35.7043C45.2221 40.3443 10.7393 60.3443 10.7393 60.3443V66.6909C10.7393 66.6909 45.4347 46.5843 52.5013 42.4776C54.4672 41.4109 55.8486 41.3576 56.8581 41.8909C59.3553 43.3309 59.5147 48.6109 60.2054 50.8509C60.5242 51.7576 61.0556 52.3976 61.7463 52.7709C63.1809 53.6243 65.3061 53.4643 67.2189 52.3976L70.1412 50.6376C72.9572 49.0376 73.9136 46.3176 72.2133 44.7176Z" fill="#2B303E"/>
<path d="M11.4205 60.6888V65.4888L52.173 41.8621C54.192 40.6888 55.8391 40.5288 57.1674 41.2755C59.2927 42.5021 59.9303 45.8088 60.4085 48.4755C60.5679 49.2755 60.7273 50.1288 60.8867 50.6621C61.0992 51.3021 61.4711 51.8355 62.0556 52.1555C62.5869 52.4755 63.2245 52.6355 63.8621 52.6355C64.8716 52.6355 65.9343 52.3155 66.8375 51.7288L69.8129 50.0755C71.2475 49.1688 72.2039 48.0488 72.3101 46.8755C72.4164 46.2355 72.257 45.7021 71.7257 45.1688L61.8431 35.6755C61.6305 35.4621 61.418 35.2488 61.1523 35.1421C59.3458 34.0755 56.6892 34.5021 53.6076 36.2621L11.4205 60.6888ZM10.7298 67.3555C10.6235 67.3555 10.4641 67.3555 10.3579 67.3021C10.1985 67.1421 10.0391 66.9288 10.0391 66.6621V60.3155C10.0391 60.0488 10.1985 59.8355 10.3579 59.6755L52.9168 35.0888C56.4236 33.0088 59.6115 32.6355 61.8431 33.9155C62.215 34.1288 62.4807 34.3955 62.7994 34.6621L72.6821 44.1555C73.479 44.9555 73.851 46.0221 73.6916 47.0355C73.479 48.6355 72.3101 50.1821 70.5036 51.1955L67.5814 52.9021C66.3593 53.5955 65.1373 53.9688 63.8621 53.9688C62.9588 53.9688 62.1087 53.7555 61.3649 53.3288C60.5148 52.8488 59.8772 52.0488 59.5584 51.0355C59.399 50.4488 59.2396 49.5955 59.0271 48.6888C58.6551 46.4488 58.0707 43.4088 56.5298 42.4488C55.6266 41.9155 54.4045 42.1288 52.8637 43.0888L11.1017 67.3021C10.9954 67.3555 10.836 67.3555 10.7298 67.3555Z" fill="#7370FF"/>
<path d="M8.1709 58.8123L10.7744 60.3057V66.6523L8.1709 65.2123V58.8123Z" fill="#2B303E"/>
<path d="M8.85214 64.796L10.0211 65.4893V60.6893L8.85214 59.996V64.796ZM10.7649 67.356C10.6055 67.356 10.4992 67.356 10.393 67.3026L7.7895 65.8093C7.6301 65.7026 7.4707 65.436 7.4707 65.2226V58.8226C7.4707 58.6093 7.6301 58.3426 7.7895 58.236C8.00203 58.1293 8.26769 58.076 8.48022 58.236L11.0837 59.676C11.2962 59.836 11.4025 60.0493 11.4025 60.316V66.6626C11.4025 66.9293 11.2962 67.1426 11.0837 67.3026C10.9774 67.356 10.8712 67.356 10.7649 67.356Z" fill="#1FE422"/>
<path d="M58.9273 33.0561C57.1208 32.0428 54.3579 32.0961 50.6918 34.1761C42.6688 38.8695 8.13281 58.8161 8.13281 58.8161L10.7363 60.3628C10.7363 60.3628 45.2192 40.3628 53.2953 35.6695C56.9083 33.5895 59.7243 33.4828 61.4777 34.5495L58.9273 33.0561Z" fill="#2B303E"/>
<path d="M9.54286 58.8021L10.7118 59.5488L52.952 35.0688C54.6522 34.0554 56.2462 33.4688 57.7339 33.2554C55.9805 32.7221 53.6427 33.2554 51.0923 34.7488L9.54286 58.8021ZM10.7649 60.9888C10.6586 60.9888 10.4992 60.9354 10.393 60.8821L7.84263 59.4421C7.6301 59.2821 7.4707 59.0688 7.4707 58.8021C7.4707 58.5888 7.6301 58.3221 7.84263 58.2154L50.4016 33.5754C53.8552 31.5488 57.0963 31.1221 59.2747 32.4554L61.8251 33.8954C62.197 34.1088 62.3032 34.5354 62.0907 34.8554C61.9313 35.1754 61.5063 35.2821 61.1875 35.1221C59.381 34.1088 56.6712 34.4821 53.6427 36.2421L11.0837 60.8821C10.9774 60.9354 10.8712 60.9888 10.7649 60.9888Z" fill="#7370FF"/>
<path d="M156.388 91.4759L146.506 81.9292C146.293 81.6626 146.027 81.5026 145.709 81.3426C143.902 80.2759 141.086 80.3292 137.473 82.4626C129.45 87.1026 94.9141 107.103 94.9141 107.103V113.449C94.9141 113.449 129.609 93.3426 136.729 89.2359C138.642 88.1692 140.023 88.1159 141.033 88.6492C143.53 90.1426 143.743 95.3692 144.433 97.6092C144.699 98.5159 145.23 99.1559 145.921 99.5292C147.356 100.383 149.534 100.223 151.394 99.1559L154.369 97.3959C157.185 95.7959 158.088 93.0759 156.388 91.4759Z" fill="#2B303E"/>
<path d="M95.6183 107.524V112.324L136.424 88.6443C138.39 87.5243 140.037 87.3109 141.365 88.1109C143.491 89.2843 144.128 92.6443 144.606 95.2576C144.766 96.1109 144.925 96.9109 145.085 97.4443C145.297 98.0843 145.669 98.6176 146.307 98.9376C146.785 99.2576 147.422 99.4176 148.113 99.4176C149.069 99.4176 150.132 99.0976 151.088 98.5109L154.011 96.8576C155.445 96.0043 156.402 94.8309 156.561 93.7109C156.667 93.0709 156.455 92.4843 155.924 92.0043L146.094 82.4043C145.882 82.2443 145.616 82.0309 145.403 81.9243C143.597 80.9109 140.887 81.2843 137.805 83.0443L95.6183 107.524ZM94.9276 114.191C94.8214 114.191 94.7151 114.138 94.6088 114.084C94.3963 113.924 94.29 113.711 94.29 113.444V107.098C94.29 106.831 94.3963 106.618 94.6088 106.511L137.168 81.8709C140.675 79.7909 143.809 79.4709 146.041 80.6976C146.413 80.9109 146.732 81.1776 146.997 81.4976L156.88 90.9909C157.677 91.7376 158.049 92.8043 157.889 93.8709C157.677 95.4176 156.561 96.9643 154.701 98.0309L151.779 99.7376C150.61 100.378 149.335 100.751 148.113 100.751C147.157 100.751 146.307 100.538 145.616 100.111C144.713 99.6309 144.128 98.8309 143.809 97.8176C143.597 97.2309 143.437 96.3776 143.278 95.4709C142.853 93.2309 142.269 90.1909 140.728 89.2843C139.824 88.7509 138.656 88.9643 137.062 89.8709L95.2996 114.084C95.1933 114.138 95.087 114.191 94.9276 114.191Z" fill="#7370FF"/>
<path d="M92.3838 105.571L94.9341 107.064V113.411L92.3838 111.971V105.571Z" fill="#2B303E"/>
<path d="M93.05 111.578L94.272 112.325V107.525L93.05 106.778V111.578ZM94.9628 114.191C94.8565 114.191 94.6971 114.138 94.5908 114.085L92.0405 112.591C91.8279 112.485 91.7217 112.271 91.7217 112.005V105.605C91.7217 105.391 91.8279 105.125 92.0405 105.018C92.253 104.911 92.5187 104.911 92.7312 105.018L95.2815 106.511C95.4941 106.618 95.6003 106.831 95.6003 107.098V113.445C95.6003 113.711 95.4941 113.925 95.2815 114.085C95.1753 114.138 95.069 114.191 94.9628 114.191Z" fill="#1FE422"/>
<path d="M143.125 79.8144C141.319 78.7478 138.556 78.8544 134.943 80.9344C126.867 85.6278 92.3838 105.574 92.3838 105.574L94.9341 107.121C94.9341 107.121 129.47 87.1211 137.493 82.4811C141.106 80.3478 143.922 80.2944 145.729 81.3078L143.125 79.8144Z" fill="#2B303E"/>
<path d="M93.7558 105.598L94.9247 106.345L137.165 81.8647C138.865 80.8513 140.459 80.2647 141.947 80.0513C140.193 79.5713 137.856 80.0513 135.252 81.5447L93.7558 105.598ZM94.9247 107.785C94.8715 107.785 94.7121 107.785 94.6059 107.678L92.0555 106.238C91.843 106.131 91.6836 105.865 91.6836 105.598C91.6836 105.385 91.843 105.118 92.0555 105.011L134.615 80.3713C138.068 78.3447 141.256 77.918 143.488 79.2513L146.038 80.6913C146.41 80.9047 146.516 81.3313 146.304 81.6513C146.091 82.0247 145.719 82.1313 145.4 81.918H145.347C143.541 80.8513 140.884 81.278 137.856 83.038L95.2966 107.678C95.1903 107.785 95.0841 107.785 94.9247 107.785Z" fill="#7370FF"/>
<path d="M90.7644 113.765C89.7018 116.005 87.1514 125.552 85.2918 127.099C84.9199 127.472 84.4948 127.792 84.0166 128.059L91.0301 123.952C91.4551 123.739 91.8802 123.419 92.3053 123.045C94.1118 121.499 96.4496 117.339 97.5122 115.099L90.7644 113.765Z" fill="#2B303E"/>
<path d="M91.186 114.536C90.8672 115.39 90.4422 116.67 89.964 118.11C88.9545 121.043 88.0512 123.603 87.2542 125.363L90.6547 123.39C91.1329 123.123 91.5048 122.803 91.8767 122.483C93.2582 121.363 95.1709 118.216 96.5524 115.603L91.186 114.536ZM84.0663 128.723C83.8006 128.723 83.5881 128.616 83.4287 128.35C83.2693 128.03 83.3756 127.603 83.6944 127.39C84.1194 127.176 84.5445 126.856 84.8633 126.59C85.9791 125.683 87.573 120.83 88.6357 117.683C89.2733 115.816 89.8046 114.27 90.1765 113.47C90.2828 113.203 90.6016 113.043 90.9204 113.096L97.6682 114.43C97.8807 114.43 98.0401 114.59 98.1464 114.803C98.2526 114.963 98.2526 115.23 98.1464 115.39C97.0306 117.683 94.6928 121.95 92.78 123.55C92.3018 123.976 91.8767 124.296 91.3454 124.51L84.3851 128.616C84.2788 128.67 84.1726 128.723 84.0663 128.723Z" fill="#1FE422"/>
<path d="M48.615 85.9391C47.7117 86.4724 47.7117 88.7658 46.9679 92.1791C45.7459 97.8324 43.408 101.352 40.4326 103.059L47.4461 99.0058C50.4215 97.2991 52.7593 93.7258 53.9814 88.1258C54.7252 84.7124 54.7252 82.4191 55.6285 81.8858L48.615 85.9391Z" fill="#2B303E"/>
<path d="M54.1363 83.5484L48.9825 86.5351C48.6106 86.7484 48.4512 88.0284 48.2386 89.3084C48.0792 90.2151 47.9199 91.2284 47.6542 92.3484C47.0166 95.3351 46.0071 97.8417 44.7319 99.8151L47.1229 98.4284C50.0451 96.7217 52.2236 93.1484 53.2862 88.0284C53.5519 86.8551 53.7113 85.8951 53.8707 85.0417C53.9769 84.5084 54.0301 83.9751 54.1363 83.5484ZM40.4813 103.762C40.2157 103.762 40.0031 103.655 39.8437 103.442C39.6843 103.068 39.7906 102.642 40.1094 102.482C43.0848 100.775 45.2101 97.2017 46.3259 92.0817C46.5384 90.9617 46.6978 89.9484 46.8572 89.0951C47.2291 87.0684 47.3885 85.8417 48.2918 85.3084L55.2521 81.3084C55.624 81.0951 56.0491 81.2017 56.2085 81.5217C56.421 81.8951 56.3148 82.3217 55.996 82.4284C55.624 82.6417 55.4115 84.0284 55.199 85.2551C55.0927 86.1617 54.8802 87.1217 54.6677 88.2951C53.4456 93.7884 51.1078 97.7351 47.8136 99.6551L40.8533 103.655C40.6939 103.762 40.5876 103.762 40.4813 103.762Z" fill="#1FE422"/>
<path d="M106.054 108.126C106.054 107.486 101.006 104.446 100.422 104.179C100.156 104.019 99.5186 103.859 99.3592 103.432L92.3457 107.486C92.5051 107.912 93.1427 108.019 93.4615 108.179C93.9928 108.499 99.0404 111.539 99.0935 112.179C99.0935 113.779 99.678 116.606 98.1903 117.512L105.151 113.459C106.691 112.552 106.054 109.779 106.054 108.126Z" fill="#2B303E"/>
<path d="M93.6305 107.562C93.6837 107.562 93.7368 107.562 93.7368 107.616C93.7899 107.616 99.7407 110.922 99.7407 112.202C99.7407 112.522 99.7939 112.896 99.7939 113.216C99.9001 114.016 99.9533 114.976 99.847 115.722L104.788 112.896C105.692 112.416 105.532 110.709 105.479 109.269C105.426 108.949 105.426 108.629 105.373 108.362C104.735 107.616 100.857 105.162 100.113 104.736C100.06 104.736 100.006 104.682 99.9001 104.629C99.6876 104.576 99.4219 104.469 99.2094 104.309L93.6305 107.562ZM98.1468 118.176C97.9342 118.176 97.7217 118.069 97.5623 117.856C97.4029 117.536 97.5092 117.109 97.828 116.949C98.6781 116.416 98.5718 114.709 98.4656 113.322C98.4124 113.002 98.4124 112.682 98.4124 112.362C97.7748 111.616 93.8431 109.216 93.0992 108.789C93.0461 108.736 92.9929 108.736 92.8867 108.682C92.5147 108.576 91.9834 108.362 91.7178 107.776C91.5584 107.456 91.6646 107.082 91.9834 106.869L98.9969 102.869C99.1563 102.762 99.3157 102.709 99.5282 102.816C99.7407 102.869 99.847 102.976 99.9533 103.189C100.006 103.242 100.272 103.349 100.378 103.402C100.538 103.456 100.644 103.509 100.75 103.562C100.803 103.616 106.754 106.869 106.754 108.149C106.754 108.469 106.807 108.789 106.807 109.162C106.914 110.922 107.073 113.109 105.532 114.069L98.5187 118.122C98.4124 118.176 98.253 118.176 98.1468 118.176Z" fill="#1FE422"/>
<path d="M99.3545 103.458L92.341 107.512C86.1777 94.1784 62.1087 81.165 55.4141 83.3517L62.4275 79.2984C69.1222 77.1117 93.138 90.125 99.3545 103.458Z" fill="#2B303E"/>
<path d="M58.2613 82.4691C67.5063 83.3758 86.634 94.6825 92.5848 106.522L98.4293 103.216C92.5317 91.4825 72.3945 79.7491 64.159 79.7491C63.5214 79.7491 62.9901 79.8025 62.6182 79.9625L58.2613 82.4691ZM92.3191 108.176C92.266 108.176 92.2129 108.176 92.1066 108.122C91.9472 108.069 91.7878 108.016 91.6815 107.802C86.1558 95.9091 65.5404 83.8025 57.1455 83.8025C56.5611 83.8025 56.0298 83.8558 55.6047 84.0158C55.2859 84.1225 54.914 83.9625 54.7546 83.5891C54.6483 83.3225 54.7546 82.9491 55.0202 82.7891L62.0337 78.7358C62.7244 78.4691 63.4152 78.3625 64.159 78.3625C73.0852 78.3625 94.1256 90.6291 99.9171 103.162C100.076 103.536 99.9702 103.856 99.6514 104.016L92.6379 108.069C92.5848 108.122 92.4785 108.176 92.3191 108.176Z" fill="#1FE422"/>
<path d="M62.3922 79.2787L55.3787 83.332C53.2534 79.812 49.1622 77.6254 46.9307 78.4254L53.9441 74.372C56.1757 73.572 60.2137 75.7587 62.3922 79.2787Z" fill="#2B303E"/>
<path d="M49.4679 77.7566C51.6464 78.3432 54.0373 80.1566 55.6313 82.3966L61.4758 79.0366C59.2974 75.9966 55.8438 74.4499 54.1967 74.9832L49.4679 77.7566ZM55.4188 83.9966C55.2062 83.9966 54.9937 83.8899 54.8343 83.6766C52.7621 80.2632 48.9366 78.4499 47.2364 79.0366C46.8645 79.1966 46.4925 79.0366 46.3331 78.7166C46.1737 78.3966 46.3331 78.0232 46.5988 77.8099L53.6123 73.8099C54.0904 73.5966 54.5686 73.5432 54.9937 73.5432C57.7034 73.5432 61.1039 75.8366 62.9635 78.8766C63.0698 79.0366 63.1229 79.2499 63.0698 79.4099C63.0167 79.6232 62.9104 79.7832 62.751 79.8899L55.7375 83.8899C55.6313 83.9966 55.525 83.9966 55.4188 83.9966Z" fill="#1FE422"/>
<path d="M53.9499 74.3959L46.9364 78.4492C41.4638 69.9692 18.6169 54.6092 10.7002 59.2492L17.6605 55.1959C25.6304 50.5559 48.4241 65.9159 53.9499 74.3959Z" fill="#2B303E"/>
<path d="M14.6799 57.6733C24.6157 57.9933 41.8837 70.0466 47.1438 77.5133L52.9883 74.2066C47.8345 67.0066 30.6196 55.0066 21.3215 55.0066C19.9932 55.0066 18.8774 55.2733 17.9742 55.7533L14.6799 57.6733ZM46.9313 79.1133C46.7719 79.1133 46.5062 79.0066 46.3999 78.7933C41.8306 71.7533 23.8718 59.0599 14.3612 59.0599C12.9797 59.0599 11.8639 59.2733 11.0138 59.8066C10.695 60.02 10.27 59.9133 10.1106 59.54C9.89804 59.2199 10.0043 58.7933 10.3231 58.6333L17.3366 54.58C18.3992 53.9933 19.7807 53.6733 21.3215 53.6733C31.4166 53.6733 49.6941 66.5266 54.5292 74.0466C54.6354 74.2066 54.6354 74.3666 54.6354 74.5266C54.5823 74.7399 54.4761 74.8999 54.3167 74.9533L47.3032 79.0066C47.1969 79.0599 47.0907 79.1133 46.9313 79.1133Z" fill="#1FE422"/>
<path d="M10.5268 52.5631C10.3674 52.4564 10.1549 52.4564 9.99549 52.5631L3.03516 56.6164C3.14142 56.5097 3.35395 56.5097 3.51335 56.5631C5.58551 57.4697 7.7108 58.3231 9.78296 59.8164L16.7964 55.8164C14.7243 54.2697 12.599 53.4164 10.5268 52.5631Z" fill="#2B303E"/>
<path d="M6.38046 57.0529C7.49624 57.6395 8.66515 58.2262 9.8872 59.0262L15.5192 55.7729C13.7659 54.5995 11.9594 53.8529 10.3123 53.2129L4.83963 56.3595C5.26469 56.5195 5.63661 56.7329 6.06167 56.8929C5.90227 56.7862 5.79601 56.5729 5.79601 56.3595C5.79601 55.9862 6.1148 55.7195 6.48673 55.7195C6.85865 55.7195 7.17745 55.9862 7.17745 56.3595C7.17745 56.7862 6.75239 57.1595 6.38046 57.0529ZM9.83406 60.5195C9.67467 60.5195 9.5684 60.4662 9.46214 60.3595C7.38998 58.9195 5.26469 58.0662 3.29879 57.2662C2.98 57.4262 2.60807 57.3195 2.39554 56.9995C2.23614 56.6262 2.39554 56.1995 2.71433 55.9862L9.67467 51.9862C10.0466 51.7729 10.4717 51.7729 10.7904 51.8795C12.8626 52.7329 15.041 53.6929 17.2195 55.2395C17.432 55.3462 17.5383 55.6129 17.4851 55.8262C17.4851 56.0395 17.3789 56.2529 17.1663 56.3595L10.206 60.4129C10.0997 60.4662 9.94033 60.5195 9.83406 60.5195Z" fill="#1FE422"/>
<path d="M85.2248 104.61C80.7086 97.3564 62.9624 84.2364 59.6682 91.1164C57.0116 96.7164 60.2527 110.423 68.5413 119.703C80.3898 132.93 92.4508 116.076 85.2248 104.61Z" fill="#2B303E"/>
<path d="M63.0548 89.8475C61.6734 89.8475 60.7701 90.3809 60.2388 91.3942C57.6884 96.7275 61.0358 110.328 69.0056 119.234C71.7154 122.221 74.6376 123.821 77.4537 123.821C80.4291 123.821 83.2982 121.954 85.0516 118.754C87.3894 114.488 87.23 109.048 84.6265 104.941C81.1729 99.4475 69.165 89.8475 63.0548 89.8475ZM77.4537 125.208C74.2126 125.208 70.9715 123.448 67.9961 120.141C59.5481 110.754 56.2539 96.6209 59.0167 90.8609C59.7606 89.2609 61.142 88.5142 63.0548 88.5142C69.6963 88.5142 82.0762 98.2742 85.7954 104.248C88.6646 108.728 88.824 114.701 86.2205 119.448C84.2546 123.021 80.9604 125.208 77.4537 125.208Z" fill="#1FE422"/>
<path d="M40.8407 78.24C38.131 73.28 32.924 69.76 27.6639 67.0933C15.8154 61.12 11.1929 63.8933 16.5061 78.7733C18.1532 83.36 20.2254 88 23.2008 92C37.1215 110.347 48.2793 91.8933 40.8407 78.24Z" fill="#2B303E"/>
<path d="M18.5489 64.8438C17.2206 64.8438 16.3174 65.2704 15.7329 66.0171C14.4046 67.9904 14.8828 72.1504 17.1675 78.5504C19.0803 83.8838 21.2587 88.1504 23.7559 91.5638C28.4315 97.6971 32.2039 99.0304 34.5418 99.0304C36.9858 99.0304 39.1643 97.5904 40.652 95.0838C42.8835 91.2971 43.6274 84.7371 40.2269 78.5504C37.9954 74.4971 33.7979 70.9238 27.3689 67.7238C23.5965 65.8038 20.6211 64.8438 18.5489 64.8438ZM34.5418 100.364C31.8851 100.364 27.6346 99.0304 22.6933 92.4171C20.0898 88.8971 17.8582 84.5238 15.8923 79.0304C13.3951 72.0971 13.0232 67.5638 14.6171 65.2704C15.4673 64.0438 16.7956 63.5104 18.5489 63.5104C20.8868 63.5104 23.9684 64.4171 27.9534 66.4438C34.648 69.8571 39.058 73.5904 41.449 77.8571C44.5838 83.6704 44.7432 90.8704 41.8209 95.7771C40.0675 98.7638 37.5172 100.364 34.5418 100.364Z" fill="#1FE422"/>
<path d="M16.5336 78.769C13.6645 70.769 13.7176 66.2357 16.268 64.7424C18.3933 63.5157 22.2719 64.369 27.6383 67.089C32.8453 69.7024 38.1585 73.2757 40.8682 78.2357C45.2251 86.289 43.2061 95.729 38.0522 98.7157C34.333 100.849 28.9666 99.6757 23.2283 91.9957C20.2529 87.9957 18.1807 83.3557 16.5336 78.769ZM59.6239 91.089C59.9427 90.5024 60.3678 90.0224 60.8991 89.7024C66.1592 86.6624 81.0894 98.0224 85.1806 104.582C89.5374 111.462 86.934 120.262 81.5676 123.409C78.0077 125.489 73.2258 124.956 68.497 119.729C60.2084 110.449 56.9673 96.689 59.6239 91.089ZM99.1013 112.209C99.0481 111.569 94.0005 108.529 93.4692 108.209C93.1504 108.049 92.5129 107.942 92.3535 107.516C86.1901 94.1824 62.1212 81.169 55.3734 83.3557C53.2481 79.8357 49.21 77.649 46.9253 78.449C41.4527 69.969 18.6589 54.609 10.6891 59.249C10.3703 59.409 10.0515 59.6224 9.83897 59.8357C7.71368 58.3424 5.58839 57.489 3.51623 56.5824C3.35683 56.529 3.19743 56.529 3.03803 56.6357C2.93177 56.689 2.82551 56.7957 2.82551 57.009C2.82551 58.609 1.97539 62.609 5.16333 64.369C11.3798 67.7824 8.72319 67.5157 14.249 82.1824C20.678 99.249 32.6859 107.622 40.4432 103.089C43.4186 101.382 45.7564 97.809 46.9785 92.209C47.7223 88.7424 47.7223 86.5024 48.6256 85.969C49.0506 85.7024 49.6882 85.8624 50.6977 86.449C54.417 88.6357 53.9388 91.8357 55.0014 97.9157C59.4114 122.556 75.3511 133.062 84.0117 128.049C84.4899 127.782 84.9149 127.462 85.2869 127.089C87.1465 125.542 89.4843 121.382 90.547 119.142C91.4502 117.329 91.6096 115.996 92.2472 115.622C92.8848 115.302 93.8412 115.676 96.2321 117.169C96.8166 117.542 97.3479 117.862 97.8792 117.649L98.198 117.542C99.6857 116.636 99.1013 113.809 99.1013 112.209Z" fill="#2B303E"/>
<path d="M18.602 64.8669C17.7519 64.8669 17.1143 65.0269 16.583 65.3469C14.3514 66.6269 14.5108 71.2136 17.1674 78.5736C19.0802 83.9069 21.2586 88.1736 23.7558 91.5869C28.3783 97.6669 32.1507 99.0003 34.5417 99.0003C35.6575 99.0003 36.7201 98.6803 37.7296 98.0936C42.4584 95.3736 44.5306 86.4136 40.2269 78.5736C37.9953 74.5203 33.7978 70.9469 27.3688 67.7469C23.5964 65.8803 20.6742 64.8669 18.602 64.8669ZM34.5417 100.334C31.8851 100.334 27.6345 99.0003 22.6932 92.4403C20.0897 88.9203 17.8582 84.5469 15.8923 79.0536C12.9168 70.7336 12.9168 65.8802 15.8923 64.1203C18.2301 62.7869 22.1087 63.5869 27.9533 66.4669C34.7011 69.8803 39.0579 73.6136 41.4489 77.8803C46.1245 86.4136 43.6805 96.2803 38.4204 99.3203C37.2514 99.9603 35.9231 100.334 34.5417 100.334ZM63.0206 89.8803C62.3299 89.8803 61.7454 90.0403 61.2673 90.3069C60.7891 90.5203 60.4703 90.8936 60.2577 91.4269C57.7074 96.7603 61.0547 110.36 69.0246 119.267C72.9564 123.694 77.4726 124.974 81.245 122.787C83.636 121.4 85.4956 118.787 86.2926 115.48C87.1958 111.854 86.6114 108.12 84.6455 104.974C81.1387 99.4269 69.184 89.8803 63.0206 89.8803ZM77.4195 125.24C74.2315 125.24 70.9373 123.48 68.0151 120.174C59.567 110.68 56.2197 96.6536 58.9826 90.8403C59.3545 90.0936 59.8858 89.5069 60.5765 89.0803C61.2673 88.7069 62.0642 88.4936 63.0206 88.4936C69.6622 88.4936 82.042 98.3069 85.8144 104.227C87.9397 107.694 88.5773 111.8 87.6209 115.854C86.7176 119.427 84.6455 122.414 81.8826 123.96C80.5011 124.814 79.0134 125.24 77.4195 125.24ZM49.0999 85.1336C49.5781 85.1336 50.2157 85.3469 51.0127 85.8269C54.2538 87.7469 54.6257 90.3603 55.157 94.3069C55.2633 95.3203 55.4227 96.5469 55.6884 97.8269C59.2482 117.774 70.5123 128.547 79.2791 128.547C80.8731 128.547 82.3608 128.174 83.6891 127.427C84.061 127.214 84.4861 126.894 84.858 126.574C86.3988 125.294 88.5241 121.667 89.9056 118.894C90.2244 118.147 90.49 117.56 90.6494 117.08C91.0213 116.12 91.287 115.374 91.9246 115.054C92.7747 114.574 93.6248 114.787 96.5471 116.6C96.9722 116.814 97.3441 117.08 97.5566 117.08C97.716 117.027 97.7691 117.027 97.8223 116.974C98.6724 116.44 98.5661 114.734 98.4599 113.347C98.4067 112.974 98.4067 112.654 98.4067 112.387C97.7691 111.64 93.8905 109.24 93.0935 108.814C93.0404 108.76 92.9872 108.76 92.881 108.707C92.5622 108.547 91.9777 108.334 91.7121 107.8C86.1863 95.9069 65.571 83.8003 57.1761 83.8003C56.5385 83.8003 56.0603 83.8536 55.6352 84.0136C55.3164 84.0669 54.9976 83.9603 54.8382 83.7469C52.7129 80.2803 48.8874 78.4669 47.1872 79.1069C46.8684 79.2136 46.5496 79.1069 46.3371 78.8403C41.8208 71.7469 23.8621 59.1069 14.2983 59.1069C12.97 59.1069 11.8542 59.3203 11.0041 59.8003C10.7384 59.9603 10.5259 60.1203 10.2602 60.3336C10.0477 60.5469 9.67577 60.6003 9.41011 60.3869C7.44422 59.0003 5.37206 58.0936 3.51243 57.2936C3.45929 57.4536 3.45929 57.6669 3.45929 57.8803C3.2999 59.6936 3.1405 62.5203 5.47832 63.7469C9.8883 66.1469 10.1008 67.0003 11.4291 71.6403C12.1199 73.9336 13.0231 77.0803 14.8827 81.9869C19.6646 94.7336 28.3252 103.64 35.87 103.64C37.4108 103.64 38.8454 103.267 40.1206 102.52C43.0429 100.814 45.1682 97.1869 46.2839 92.1203C46.5496 90.9469 46.709 89.9869 46.8684 89.1336C47.1872 87.1069 47.3997 85.8803 48.303 85.3469C48.5155 85.2403 48.7812 85.1336 49.0999 85.1336ZM79.2791 129.934C69.9278 129.934 58.0262 118.787 54.3069 98.0936C54.0944 96.7603 53.935 95.5336 53.7756 94.5203C53.2443 90.6269 52.9786 88.5469 50.322 87.0003C49.6313 86.5736 49.2593 86.5203 49.0999 86.5203C48.6218 86.7336 48.4092 88.0669 48.1967 89.3469C48.0373 90.2536 47.8779 91.2136 47.6122 92.3869C46.4433 97.8803 44.0524 101.774 40.8113 103.694C39.3236 104.547 37.6234 105.027 35.87 105.027C27.6345 105.027 18.6551 95.9603 13.6076 82.4669C11.7479 77.5069 10.8447 74.3603 10.154 72.0136C8.87879 67.5869 8.71939 67.1069 4.84073 64.9736C1.70593 63.3203 1.97159 59.6936 2.07785 57.7736C2.13099 57.4536 2.13099 57.1869 2.13099 57.0269C2.13099 56.6003 2.34352 56.2269 2.66231 56.0136C3.03424 55.8536 3.45929 55.8003 3.77809 55.9603C5.69085 56.7603 7.70988 57.6136 9.78204 59.0003C9.94144 58.8936 10.1008 58.7336 10.3134 58.6269C11.376 57.9869 12.7574 57.6669 14.2983 57.6669C24.234 57.6669 41.9802 70.1469 47.2403 77.6669C49.7907 77.1336 53.5631 79.3736 55.6884 82.5736C63.4457 80.9203 86.7708 93.9336 92.9341 107.214C92.9872 107.32 93.306 107.427 93.4123 107.48C93.5717 107.534 93.678 107.587 93.7842 107.64C93.8374 107.64 99.735 110.947 99.735 112.227C99.735 112.547 99.7882 112.867 99.7882 113.24C99.9476 115 100.107 117.187 98.513 118.147C98.3536 118.2 98.2473 118.254 98.0879 118.307C97.3441 118.574 96.5471 118.2 95.9095 117.72C94.6343 117.027 93.2529 116.227 92.7216 116.227C92.4028 116.334 92.1902 116.974 91.9246 117.507C91.7121 118.094 91.4995 118.734 91.1276 119.427C90.065 121.72 87.674 125.987 85.7612 127.64C85.2831 128.014 84.858 128.334 84.3267 128.6C82.839 129.507 81.1387 129.934 79.2791 129.934Z" fill="#1FE422"/>
</svg>
