<svg width="160" height="161" viewBox="0 0 160 161" fill="none" xmlns="http://www.w3.org/2000/svg">
<path d="M83.0007 66.0099L82.3607 65.6366C77.0807 62.5966 68.7607 57.7966 62.9474 54.3832C68.7607 57.7966 77.0807 62.5966 82.3607 65.6366L83.0007 66.0099C87.214 68.4099 90.7874 73.3699 92.5474 78.4366C90.7874 73.3699 87.214 68.4099 83.0007 66.0099ZM38.894 40.5166L38.6807 40.4099C38.254 40.1432 37.8274 40.0366 37.4007 39.8232C37.8274 40.0366 38.254 40.1432 38.6807 40.4099L38.894 40.5166ZM60.5474 53.0499L60.814 53.2099L60.5474 53.0499C58.3607 51.7166 55.6407 50.1699 52.7607 48.5699C55.6407 50.1699 58.3607 51.7166 60.5474 53.0499ZM121.241 43.9299L120.601 43.5566C114.787 40.1966 105.241 34.7032 99.374 31.2899L98.734 30.9166C92.9207 27.5566 83.374 22.0632 77.5074 18.7032L76.9207 18.3299C73.9874 16.6232 71.3207 16.4632 69.4007 17.5832L31.1607 39.6632C29.2407 40.7832 28.0674 43.1299 28.0674 46.5432V97.1566C28.0674 103.877 32.814 112.143 38.6807 115.557L39.2674 115.93C45.134 119.237 54.6807 124.783 60.5474 128.143L61.134 128.517C67.0007 131.877 76.5474 137.423 82.3607 140.73L83.0007 141.103C85.934 142.81 88.5474 142.97 90.5207 141.85C91.854 141.05 92.814 139.663 93.294 137.743C92.814 139.663 91.854 141.05 90.5207 141.85L128.707 119.823C130.681 118.65 131.854 116.303 131.854 112.943V62.3299C131.854 55.6099 127.054 47.2899 121.241 43.9299Z" fill="#2B303E"/>
<path d="M121.219 43.9404L120.579 43.567C114.766 40.207 105.219 34.7137 99.3524 31.3004L98.7657 30.927C92.899 27.567 83.3524 22.0737 77.539 18.7137L76.899 18.3404C73.9657 16.6337 71.299 16.4737 69.379 17.5937L31.1924 39.6737C33.1124 38.5537 35.7257 38.7137 38.659 40.4204L39.2457 40.7404C45.1124 44.1537 54.659 49.647 60.5257 53.0604L61.1657 53.3804C66.979 56.7404 76.5257 62.287 82.339 65.647L82.979 66.0204C88.8457 69.4337 93.5924 77.647 93.5924 84.4204V135.034C93.5924 138.394 92.419 140.74 90.499 141.86L128.739 119.834C130.659 118.66 131.832 116.314 131.832 112.954V62.3404C131.832 55.6204 127.032 47.3004 121.219 43.9404Z" fill="#2B303E"/>
<path d="M34.8828 38.3359C36.2161 38.4959 37.6028 38.9759 39.0428 39.8292L83.3628 65.3759C89.3894 68.8959 94.2961 77.4292 94.2961 84.4159V135.029C94.2961 136.629 94.0294 138.123 93.5494 139.349L128.376 119.189C130.189 118.176 131.149 115.989 131.149 112.949V62.3359C131.149 55.7759 126.563 47.7759 120.909 44.5225L76.5361 18.9225C73.9761 17.4292 71.5228 17.2159 69.7628 18.2292L34.8828 38.3359ZM90.5094 142.603C90.2961 142.603 90.0294 142.443 89.9228 142.229C89.7094 141.909 89.8161 141.483 90.1894 141.269C91.9494 140.256 92.9094 138.016 92.9094 135.029V84.4159C92.9094 77.8559 88.3228 69.8559 82.6694 66.6025L38.2961 41.0025C35.7894 39.5092 33.2828 39.2959 31.5228 40.3092C31.2028 40.4692 30.7761 40.3625 30.5628 40.0425C30.4028 39.6692 30.5094 39.2959 30.8294 39.0825L69.0694 17.0025C71.2561 15.7225 74.1894 15.9892 77.2294 17.7492L121.549 43.3492C127.629 46.8159 132.536 55.3492 132.536 62.3359V112.949C132.536 116.416 131.309 119.083 129.069 120.416L90.8294 142.496C90.7228 142.549 90.6161 142.603 90.5094 142.603Z" fill="#1FE422"/>
<path d="M82.375 65.6747C76.5617 62.3147 66.9617 56.768 61.1483 53.408L60.5083 53.088C54.695 49.6747 45.1483 44.1813 39.2817 40.768L38.695 40.3947C35.7617 38.7413 33.095 38.5813 31.175 39.7013C29.255 40.8213 28.0283 43.168 28.0283 46.5813V97.1947C28.0283 103.915 32.8283 112.181 38.695 115.595L39.2817 115.915C45.1483 119.328 54.695 124.768 60.5083 128.181L61.1483 128.555C66.9617 131.915 76.5617 137.461 82.375 140.768L83.015 141.141C85.895 142.848 88.5617 143.008 90.4817 141.888C92.4017 140.768 93.6283 138.368 93.6283 135.061V84.448C93.6283 77.6747 88.8283 69.408 83.015 66.048L82.375 65.6747Z" fill="#2B303E"/>
<path d="M33.9243 39.6547C33.0176 39.6547 32.2176 39.868 31.5243 40.2947C29.7109 41.308 28.6976 43.4947 28.6976 46.5347V97.148C28.6976 103.655 33.3376 111.708 38.9909 114.961L83.3109 140.561C84.8576 141.415 86.3509 141.895 87.6843 141.895C88.5909 141.895 89.4443 141.681 90.1376 141.255C91.8976 140.241 92.9109 138.001 92.9109 135.015V84.4014C92.9109 77.8414 88.3243 69.8414 82.6709 66.588L38.2976 40.9881C36.8043 40.1347 35.2576 39.6547 33.9243 39.6547ZM87.6843 143.228C86.1376 143.228 84.3776 142.748 82.6709 141.735L38.2976 116.135C32.2709 112.615 27.3643 104.135 27.3643 97.148V46.5347C27.3643 43.0147 28.5909 40.4014 30.7776 39.068C33.0176 37.788 36.0043 38.0547 38.9909 39.8147L83.3109 65.3614C89.3909 68.8814 94.2976 77.4147 94.2976 84.4014V135.015C94.2976 138.535 93.0709 141.148 90.8309 142.481C89.9243 142.961 88.8576 143.228 87.6843 143.228Z" fill="#1FE422"/>
<path d="M82.9844 106.795L38.6644 81.2487C37.331 80.4487 36.1044 80.3954 35.1977 80.8754L32.6377 82.3687C33.5444 81.8354 34.771 81.8887 36.1044 82.6887L80.4244 108.289C83.091 109.889 85.2777 113.622 85.2777 116.769V133.035C85.2777 134.582 84.7444 135.702 83.891 136.235L86.3977 134.689C87.3044 134.262 87.8377 133.142 87.8377 131.595V115.275C87.8377 112.182 85.651 108.342 82.9844 106.795Z" fill="#2B303E"/>
<path d="M35.3538 81.5927C35.7271 81.7527 36.1005 81.9127 36.4738 82.1261L80.7938 107.673C83.6738 109.379 86.0205 113.433 86.0205 116.739V133.059C86.0205 133.486 85.9671 133.859 85.9138 134.233L86.1271 134.126C86.8205 133.753 87.1938 132.846 87.1938 131.566V115.299C87.1938 112.419 85.1138 108.846 82.6605 107.406L38.3405 81.8061C37.2738 81.2194 36.2605 81.0594 35.5671 81.4861L35.3538 81.5927ZM83.8871 136.899C83.6738 136.899 83.4071 136.739 83.3005 136.526C83.1405 136.206 83.1938 135.833 83.5671 135.619C84.2605 135.193 84.6338 134.286 84.6338 133.059V116.739C84.6338 113.913 82.5538 110.286 80.1005 108.899L35.7805 83.2994C34.7138 82.7127 33.7005 82.6061 33.0071 82.9261C32.6871 83.1394 32.2605 83.0327 32.0471 82.7127C31.8871 82.3927 31.9938 81.9661 32.3138 81.7527L34.8738 80.3127C35.9938 79.6727 37.4871 79.7794 39.0338 80.6327L83.3538 106.233C86.2338 107.886 88.5805 111.939 88.5805 115.299V131.566C88.5805 133.326 87.9405 134.659 86.8205 135.353L84.2605 136.793C84.1538 136.846 84.0471 136.899 83.8871 136.899Z" fill="#1FE422"/>
<path d="M82.9844 72.7471L38.6644 47.2005C37.331 46.4005 36.1044 46.3471 35.1977 46.8271L32.6377 48.3205C33.5444 47.7871 34.771 47.8405 36.1044 48.6405L80.4244 74.2405C83.091 75.8405 85.2777 79.5738 85.2777 82.7205V98.9871C85.2777 100.534 84.7444 101.654 83.891 102.134L86.3977 100.64C87.3044 100.16 87.8377 99.0405 87.8377 97.4938V81.2271C87.8377 78.1338 85.651 74.2938 82.9844 72.7471Z" fill="#2B303E"/>
<path d="M35.3384 47.5302C35.7118 47.6369 36.0851 47.8502 36.4584 48.0636L80.7784 73.6102C83.6584 75.3169 86.0051 79.3702 86.0051 82.6769V98.9969C86.0051 99.4236 85.9518 99.7969 85.8984 100.17L86.1118 100.064C86.8051 99.6903 87.1784 98.7836 87.1784 97.5036V81.2369C87.1784 78.3569 85.0984 74.7836 82.6451 73.3436L38.3251 47.7436C37.2584 47.1569 36.2451 46.9969 35.5518 47.4236L35.3384 47.5302ZM83.8718 102.837C83.6584 102.837 83.3918 102.677 83.2851 102.464C83.1251 102.144 83.1784 101.77 83.5518 101.557C84.2451 101.13 84.6184 100.224 84.6184 98.9969V82.6769C84.6184 79.8502 82.5384 76.2236 80.0851 74.8369L35.7651 49.2369C34.6984 48.6502 33.6851 48.4902 32.9918 48.8636C32.7784 48.9702 32.5651 48.9702 32.3518 48.9169V48.8636H32.2984C32.1918 48.8102 32.1384 48.7036 32.0318 48.6502V48.5969C31.9251 48.3836 31.9784 48.0636 32.0851 47.8502H32.1384V47.7969H32.1918V47.7436H32.2451H32.2984V47.6902L34.8584 46.2502C36.0318 45.6102 37.5251 45.7169 39.0184 46.5702L83.3384 72.1702C86.2184 73.8236 88.5651 77.8769 88.5651 81.2369V97.5036C88.5651 99.2636 87.9251 100.597 86.7518 101.29L84.2451 102.73C84.1384 102.784 84.0318 102.837 83.8718 102.837Z" fill="#1FE422"/>
<path d="M80.4581 74.2521L36.0848 48.6521C34.8048 47.8521 33.5781 47.7988 32.6714 48.3321C31.7648 48.7588 31.2314 49.8788 31.2314 51.4254V67.7454C31.2314 70.8921 33.4181 74.6788 36.0848 76.2254L36.7248 76.5454L80.4581 101.825C81.7914 102.572 83.0181 102.625 83.8714 102.092C84.7781 101.665 85.3114 100.545 85.3114 98.9988V82.6788C85.3114 79.5854 83.1248 75.7988 80.4581 74.2521Z" fill="#2B303E"/>
<path d="M33.9417 48.6956C33.5683 48.6956 33.2483 48.7489 32.9817 48.9089C32.2883 49.3356 31.915 50.1889 31.915 51.4689V67.7356C31.915 70.6689 33.9417 74.1889 36.4483 75.6289L80.7683 101.176C81.835 101.816 82.8483 101.976 83.5417 101.549C84.235 101.122 84.6617 100.269 84.6617 98.9889V82.7223C84.6617 79.8956 82.5817 76.2689 80.075 74.8289L35.755 49.2823C35.115 48.8556 34.475 48.6956 33.9417 48.6956ZM82.635 103.149C81.835 103.149 80.9817 102.936 80.075 102.402L35.755 76.8023C32.8217 75.0956 30.5283 71.1489 30.5283 67.7356V51.4689C30.5283 49.7623 31.1683 48.3756 32.3417 47.6823C33.4617 47.0956 34.955 47.2023 36.4483 48.0556L80.7683 73.6556C83.6483 75.3089 86.0483 79.3623 86.0483 82.7223V98.9889C86.0483 100.802 85.355 102.082 84.235 102.776C83.755 103.042 83.2217 103.149 82.635 103.149Z" fill="#1FE422"/>
<path d="M58.261 80.0967C59.4344 80.79 60.5544 80.8434 61.3544 80.4167C62.1544 79.9367 62.6344 78.9767 62.6344 77.5901C62.6344 74.7634 60.661 71.4034 58.261 70.0701C57.0877 69.3234 55.9677 69.2701 55.1677 69.7501C54.421 70.1234 53.8877 71.1367 53.8877 72.5234C53.8877 75.2967 55.861 78.71 58.261 80.0967Z" fill="#2B303E"/>
<path d="M56.317 70.0987C55.997 70.0987 55.7303 70.1521 55.517 70.3121C54.9303 70.6854 54.557 71.4321 54.557 72.5521C54.557 75.0587 56.4236 78.2054 58.557 79.4854C59.517 80.0721 60.4236 80.1254 61.0103 79.8054C61.597 79.4854 61.917 78.6854 61.917 77.6187C61.917 75.0587 60.1036 71.8587 57.917 70.6321C57.3303 70.3121 56.797 70.0987 56.317 70.0987ZM60.2103 81.3521C59.4636 81.3521 58.6636 81.1387 57.917 80.6587C55.2503 79.1654 53.2236 75.5921 53.2236 72.5521C53.2236 70.9521 53.8103 69.7254 54.8236 69.0854C55.837 68.5521 57.2236 68.6587 58.557 69.4054C61.2236 70.9521 63.3036 74.5254 63.3036 77.6187C63.3036 79.1654 62.717 80.3921 61.7036 80.9787C61.2236 81.2454 60.7436 81.3521 60.2103 81.3521Z" fill="#7370FF"/>
<path d="M80.4581 108.305L36.0848 82.7052C34.8048 81.9052 33.5781 81.8519 32.6714 82.3852C31.7648 82.8652 31.2314 83.9319 31.2314 85.4785V101.799C31.2314 104.945 33.4181 108.732 36.0848 110.279L36.7248 110.599L80.4581 135.879C81.7914 136.625 83.0181 136.679 83.8714 136.199C84.7781 135.719 85.3114 134.599 85.3114 133.052V116.732C85.3114 113.639 83.1248 109.852 80.4581 108.305Z" fill="#2B303E"/>
<path d="M33.9417 82.7581C33.5683 82.7581 33.2483 82.8114 32.9817 82.9714C32.2883 83.3981 31.915 84.2514 31.915 85.5314V101.798C31.915 104.678 33.995 108.305 36.4483 109.691L80.7683 135.291C81.835 135.878 82.8483 136.038 83.5417 135.611C84.235 135.185 84.6617 134.331 84.6617 133.051V116.785C84.6617 113.958 82.5817 110.331 80.075 108.891L35.755 83.3448C35.115 82.9714 34.475 82.7581 33.9417 82.7581ZM82.635 137.211C81.835 137.211 80.9817 136.998 80.075 136.465L35.755 110.865C32.875 109.211 30.5283 105.158 30.5283 101.798V85.5314C30.5283 83.8248 31.1683 82.4381 32.3417 81.7448C33.4617 81.1581 34.955 81.2648 36.4483 82.1181L80.7683 107.718C83.6483 109.371 86.0483 113.425 86.0483 116.785V133.051C86.0483 134.865 85.355 136.145 84.235 136.838C83.755 137.105 83.2217 137.211 82.635 137.211Z" fill="#1FE422"/>
<path d="M58.261 104.392C57.0877 103.699 56.021 103.646 55.1677 104.072C54.421 104.552 53.8877 105.512 53.8877 106.952C53.8877 109.726 55.861 113.086 58.261 114.472C59.4344 115.166 60.5544 115.219 61.3544 114.792C62.1544 114.366 62.6344 113.352 62.6344 111.966C62.6344 109.192 60.661 105.779 58.261 104.392Z" fill="#2B303E"/>
<path d="M56.317 104.513C55.997 104.513 55.7303 104.567 55.517 104.727C54.9303 105.047 54.557 105.847 54.557 106.967C54.557 109.473 56.4236 112.62 58.557 113.9C59.517 114.487 60.4236 114.54 60.957 114.22C61.597 113.9 61.917 113.047 61.917 111.98C61.917 109.473 60.1036 106.273 57.917 105.047C57.3303 104.673 56.797 104.513 56.317 104.513ZM60.2103 115.767C59.4636 115.767 58.717 115.553 57.917 115.073C55.2503 113.58 53.2236 110.007 53.2236 106.967C53.2236 105.367 53.8103 104.14 54.8236 103.5C55.837 102.967 57.2236 103.073 58.557 103.82C61.2236 105.367 63.3036 108.94 63.3036 111.98C63.3036 113.58 62.717 114.807 61.7036 115.393C61.2236 115.66 60.7436 115.767 60.2103 115.767Z" fill="#7370FF"/>
<path d="M57.8306 73.039C57.2439 72.6656 56.7106 72.6656 56.3373 72.879L54.0439 74.2123C54.4173 73.999 54.9506 74.0523 55.5373 74.319C56.7106 75.0656 57.6706 76.719 57.6706 78.1056C57.6706 78.7456 57.4573 79.2256 57.0306 79.439L59.3773 78.159C59.7506 77.9456 60.0173 77.4123 60.0173 76.719C60.0173 75.3856 59.0039 73.7323 57.8306 73.039Z" fill="#2B303E"/>
<path d="M56.0277 73.8873C57.3077 74.6873 58.2677 76.4473 58.321 77.9407L59.0143 77.5673C59.1743 77.4607 59.281 77.194 59.281 76.7673C59.281 75.6473 58.481 74.2073 57.4677 73.6207C57.041 73.354 56.8277 73.4073 56.6677 73.514L56.0277 73.8873ZM57.041 80.1807C56.8277 80.1807 56.561 80.0207 56.4543 79.8073C56.241 79.4873 56.3477 79.114 56.721 78.9007C56.881 78.794 56.9877 78.474 56.9877 78.1007C56.9877 76.9807 56.1343 75.5407 55.1743 75.0073C54.6943 74.7407 54.5343 74.794 54.3743 74.8473C54.0543 75.0073 53.6277 74.954 53.4143 74.5807C53.2543 74.2607 53.361 73.834 53.681 73.6207L55.9743 72.3407C56.6143 71.9673 57.361 72.0207 58.161 72.5007C59.5477 73.2473 60.6677 75.114 60.6677 76.7673C60.6677 77.674 60.3477 78.3673 59.7077 78.7407L57.361 80.074C57.2543 80.1273 57.1477 80.1807 57.041 80.1807Z" fill="#7370FF"/>
<path d="M57.6465 78.0911C57.6465 78.7845 57.4332 79.2111 57.0065 79.4245C56.6332 79.6911 56.0999 79.6378 55.5132 79.3178C54.3399 78.6245 53.3799 76.9711 53.3799 75.5845C53.3799 74.8911 53.5932 74.4645 54.0199 74.2511C54.3932 73.9845 54.9265 74.0378 55.5132 74.3578C56.6865 75.0511 57.6465 76.7578 57.6465 78.0911Z" fill="#2B303E"/>
<path d="M54.5825 74.7898C54.5292 74.7898 54.4225 74.7898 54.3692 74.8431C54.2092 74.9498 54.1025 75.2698 54.1025 75.6431C54.1025 76.7631 54.9025 78.1498 55.8625 78.7364C56.3958 79.0031 56.5558 78.9498 56.7158 78.8964C56.8758 78.7898 56.9825 78.4698 56.9825 78.0964C56.9825 76.9764 56.1825 75.5898 55.2225 75.0031C54.9025 74.8431 54.6892 74.7898 54.5825 74.7898ZM56.5025 80.3364C56.0758 80.3364 55.6492 80.2298 55.2225 79.9631C53.7825 79.1631 52.7158 77.2431 52.7158 75.6431C52.7158 74.7364 53.0892 73.9898 53.6758 73.6698C54.3158 73.2964 55.1158 73.3498 55.8625 73.7764C57.3025 74.6298 58.3692 76.4964 58.3692 78.0964C58.3692 79.0031 58.0492 79.7498 57.4092 80.1231C57.1425 80.2831 56.8225 80.3364 56.5025 80.3364Z" fill="#1FE422"/>
<path d="M55.085 73.7364C54.285 73.2564 53.5383 73.2031 53.005 73.5231L51.7783 74.2697C52.2583 73.9497 53.005 73.9497 53.8583 74.4297C55.4583 75.3897 56.7917 77.6297 56.7917 79.5497C56.7917 80.5097 56.4183 81.1497 55.9383 81.4697L57.165 80.7231C57.6983 80.4031 58.0183 79.7631 58.0183 78.8564C58.0183 76.9897 56.7383 74.6964 55.085 73.7364Z" fill="#2B303E"/>
<path d="M55.2005 74.6138C56.2138 75.5738 56.9605 76.9071 57.2805 78.2405C57.0671 76.9071 56.2671 75.4671 55.2005 74.6138ZM55.8938 82.1338C55.6805 82.1338 55.4138 82.0271 55.3071 81.8138C55.1471 81.4938 55.2005 81.0671 55.5738 80.8538C55.8938 80.6405 56.1071 80.1605 56.1071 79.5738C56.1071 77.9205 54.8805 75.8405 53.4938 75.0405C52.9071 74.7205 52.4271 74.6138 52.0538 74.8271C51.7338 74.9871 51.3071 74.8805 51.1471 74.5605C50.9338 74.2405 51.0405 73.8138 51.3605 73.6005H51.4138L52.6405 72.9071C53.3871 72.4804 54.4005 72.5338 55.4138 73.1205C57.2805 74.1871 58.7205 76.6938 58.7205 78.8271C58.7205 80.0005 58.2938 80.8538 57.4938 81.3338L56.2671 82.0805C56.1605 82.1338 56.0005 82.1338 55.8938 82.1338Z" fill="#7370FF"/>
<path d="M56.7856 79.5576C56.7856 80.5176 56.4656 81.1043 55.9323 81.4243C55.3989 81.7443 54.6523 81.6909 53.8523 81.2109C52.1989 80.3043 50.9189 78.0109 50.9189 76.1443C50.9189 75.1843 51.2389 74.4909 51.7723 74.2243C52.3056 73.9576 52.9989 73.9576 53.8523 74.3843C55.4523 75.3976 56.7856 77.6376 56.7856 79.5576Z" fill="#2B303E"/>
<path d="M52.5092 74.741C52.3492 74.741 52.1892 74.7943 52.0825 74.8477C51.7625 75.061 51.5492 75.541 51.5492 76.1277C51.5492 77.8343 52.7758 79.861 54.1625 80.661C54.7492 80.981 55.2292 81.0343 55.6025 80.8743C55.8692 80.661 56.0825 80.2343 56.0825 79.5943C56.0825 77.941 54.9092 75.861 53.5225 75.061C53.1492 74.8477 52.7758 74.741 52.5092 74.741ZM55.1225 82.3677C54.6425 82.3677 54.0558 82.2077 53.5225 81.8877C51.6558 80.7677 50.2158 78.261 50.2158 76.1277C50.2158 75.0077 50.6425 74.101 51.3892 73.621C52.1892 73.2477 53.1492 73.301 54.1625 73.8343C56.0292 74.9543 57.4692 77.461 57.4692 79.5943C57.4692 80.7143 57.0425 81.621 56.2425 82.101C55.9225 82.261 55.5492 82.3677 55.1225 82.3677Z" fill="#7370FF"/>
<path d="M57.8306 107.374C57.2439 107.001 56.7106 107.001 56.3373 107.214L54.0439 108.548C54.4173 108.334 54.9506 108.388 55.5373 108.654C56.7106 109.401 57.6706 111.001 57.6706 112.441C57.6706 113.081 57.4573 113.561 57.0306 113.774L59.3773 112.494C59.7506 112.281 60.0173 111.748 60.0173 111.054C60.0173 109.721 59.0039 108.068 57.8306 107.374Z" fill="#2B303E"/>
<path d="M56.0277 108.199C57.3077 108.999 58.2677 110.706 58.321 112.252L59.0143 111.826C59.1743 111.772 59.281 111.506 59.281 111.079C59.281 109.959 58.481 108.519 57.4677 107.932C56.9877 107.666 56.8277 107.719 56.6677 107.826L56.0277 108.199ZM57.041 114.439C56.8277 114.439 56.561 114.332 56.4543 114.119C56.241 113.799 56.401 113.426 56.721 113.212C56.881 113.106 56.9877 112.786 56.9877 112.412C56.9877 111.292 56.1343 109.852 55.1743 109.319C54.6943 108.999 54.481 109.052 54.3743 109.159C54.001 109.319 53.6277 109.212 53.4143 108.892C53.2543 108.572 53.361 108.146 53.681 107.932L55.9743 106.652C56.6143 106.279 57.361 106.332 58.161 106.812C59.5477 107.559 60.6677 109.426 60.6677 111.079C60.6677 111.986 60.2943 112.732 59.7077 113.052L57.4143 114.386C57.2543 114.439 57.1477 114.439 57.041 114.439Z" fill="#7370FF"/>
<path d="M57.6465 112.431C57.6465 113.124 57.4332 113.551 57.0065 113.764C56.6332 114.031 56.0999 113.977 55.5132 113.604C54.3399 112.964 53.3799 111.311 53.3799 109.924C53.3799 109.231 53.5932 108.804 54.0199 108.591C54.3932 108.324 54.9265 108.377 55.5132 108.697C56.6865 109.391 57.6465 111.044 57.6465 112.431Z" fill="#2B303E"/>
<path d="M54.5825 109.087C54.5292 109.087 54.4225 109.087 54.3692 109.14C54.2092 109.247 54.1025 109.567 54.1025 109.94C54.1025 111.06 54.9025 112.447 55.8625 113.034C56.3958 113.354 56.5558 113.247 56.7158 113.194C56.8758 113.087 56.9825 112.767 56.9825 112.394C56.9825 111.274 56.1825 109.887 55.2225 109.3C54.9025 109.14 54.6892 109.087 54.5825 109.087ZM56.5025 114.634C56.0758 114.634 55.6492 114.527 55.2225 114.26C53.7825 113.407 52.7158 111.54 52.7158 109.94C52.7158 109.034 53.0892 108.287 53.6758 107.967C54.3158 107.594 55.1158 107.647 55.8625 108.074C57.3025 108.927 58.3692 110.794 58.3692 112.394C58.3692 113.3 57.9958 114.047 57.4092 114.42C57.1425 114.58 56.8225 114.634 56.5025 114.634Z" fill="#1FE422"/>
<path d="M55.085 108.072C54.285 107.592 53.5383 107.539 53.005 107.859L51.7783 108.552C52.2583 108.285 53.005 108.285 53.8583 108.765C55.4583 109.672 56.7917 111.965 56.7917 113.885C56.7917 114.845 56.4183 115.485 55.9383 115.805L57.165 115.059C57.6983 114.739 58.0183 114.099 58.0183 113.192C58.0183 111.272 56.7383 109.032 55.085 108.072Z" fill="#2B303E"/>
<path d="M55.2005 108.95C56.2138 109.91 56.9605 111.243 57.2805 112.523C57.0671 111.243 56.2671 109.803 55.2005 108.95ZM55.8938 116.47C55.6805 116.47 55.4138 116.363 55.3071 116.15C55.1471 115.83 55.2005 115.35 55.5738 115.19C55.8938 114.976 56.1071 114.496 56.1071 113.91C56.1071 112.256 54.8805 110.123 53.4938 109.376C52.9071 109.056 52.4271 108.95 52.0538 109.163C51.7338 109.323 51.3071 109.216 51.1471 108.896C50.9338 108.576 51.0405 108.15 51.3605 107.936H51.4138L52.6405 107.243C53.3871 106.816 54.4005 106.87 55.4138 107.456C57.2805 108.523 58.7205 111.03 58.7205 113.163C58.7205 114.336 58.2938 115.19 57.4938 115.67L56.2671 116.416C56.1605 116.47 56.0005 116.47 55.8938 116.47Z" fill="#7370FF"/>
<path d="M56.7856 113.894C56.7856 114.854 56.4656 115.44 55.9323 115.76C55.3989 116.08 54.6523 116.027 53.8523 115.547C52.1989 114.64 50.9189 112.347 50.9189 110.48C50.9189 109.52 51.2389 108.827 51.7723 108.507C52.3056 108.294 52.9989 108.294 53.8523 108.72C55.4523 109.68 56.7856 111.974 56.7856 113.894Z" fill="#2B303E"/>
<path d="M52.5092 109.038C52.3492 109.038 52.1892 109.038 52.0825 109.145C51.7625 109.358 51.5492 109.838 51.5492 110.425C51.5492 112.078 52.7758 114.158 54.1625 114.958C54.7492 115.278 55.2292 115.332 55.6025 115.172C55.8692 114.958 56.0825 114.532 56.0825 113.892C56.0825 112.238 54.9092 110.158 53.5225 109.358C53.1492 109.145 52.7758 109.038 52.5092 109.038ZM55.1225 116.665C54.6425 116.665 54.0558 116.505 53.5225 116.185C51.6558 115.065 50.2158 112.558 50.2158 110.425C50.2158 109.305 50.6425 108.398 51.3892 107.918C52.1892 107.545 53.1492 107.598 54.1625 108.132C56.0292 109.198 57.4692 111.758 57.4692 113.892C57.4692 115.012 57.0425 115.918 56.2425 116.398C55.9225 116.558 55.5492 116.665 55.1225 116.665Z" fill="#7370FF"/>
</svg>
