<svg width="160" height="161" viewBox="0 0 160 161" fill="none" xmlns="http://www.w3.org/2000/svg">
<path d="M76.255 31.0266C72.1483 28.68 66.4417 29 60.1483 32.6266C47.5617 39.9333 37.375 57.5866 37.375 72.04C37.375 79.3466 39.935 84.4133 44.0417 86.8133L53.5883 92.3066C49.4817 89.9066 46.9217 84.7866 46.9217 77.5866C46.9217 63.0266 57.1083 45.3733 69.6417 38.12C75.9883 34.4933 81.6417 34.1733 85.8017 36.52L76.255 31.0266Z" fill="#2B303E"/>
<path d="M70.35 30.1974C67.31 30.1974 64.0033 31.2107 60.5367 33.2374C48.1633 40.384 38.0833 57.7707 38.0833 72.1174C38.0833 78.8907 40.3767 83.8507 44.43 86.1974L49.1233 88.9174C47.2567 86.0374 46.2433 82.1974 46.2433 77.5574C46.2433 62.8374 56.6433 44.9174 69.3367 37.5574C73.3367 35.264 77.1767 34.144 80.6433 34.3574L75.95 31.6374C74.2967 30.6774 72.43 30.1974 70.35 30.1974ZM53.6033 92.9707C53.4967 92.9707 53.39 92.9707 53.2833 92.9174L43.7367 87.424C39.2033 84.8107 36.75 79.3174 36.75 72.1174C36.75 57.344 47.0967 39.3707 59.8433 32.064C66.0833 28.4374 72.1633 27.8507 76.6433 30.4107L86.1367 35.904C86.4567 36.1174 86.6167 36.544 86.4033 36.864C86.19 37.184 85.8167 37.2907 85.4433 37.1307C81.4433 34.784 75.8967 35.3707 70.03 38.7307C57.6567 45.824 47.63 63.3174 47.63 77.5574C47.63 84.2774 49.8167 89.2907 53.8167 91.6374C54.1367 91.744 54.35 92.0107 54.35 92.3307C54.35 92.6507 53.9767 92.9174 53.6567 92.9707H53.6033Z" fill="#1FE422"/>
<path d="M92.4529 51.2691C92.4529 65.7758 82.2663 83.4825 69.6796 90.6825C63.3863 94.3625 57.6796 94.6824 53.5729 92.3358C49.4663 89.9358 46.9062 84.8158 46.9062 77.5625C46.9062 63.0558 57.0929 45.4025 69.6796 38.0958C75.9729 34.5225 81.6263 34.1491 85.7863 36.5491C89.8929 38.8958 92.4529 44.0158 92.4529 51.2691Z" fill="#2B303E"/>
<path d="M79.8565 35.7061C76.8165 35.7061 73.5098 36.7194 69.9898 38.7461C57.6165 45.8394 47.5898 63.3327 47.5898 77.5727C47.5898 84.346 49.8298 89.4127 53.9365 91.7594C57.9365 94.106 63.5365 93.5194 69.3498 90.1594C81.7231 83.0127 91.7498 65.5727 91.7498 51.2794C91.7498 44.5061 89.5098 39.4927 85.4031 37.146C83.8031 36.1861 81.9365 35.7061 79.8565 35.7061ZM59.5365 94.5327C57.1898 94.5327 55.1098 93.9994 53.2431 92.9327C48.7098 90.266 46.2031 84.8794 46.2031 77.5727C46.2031 62.8527 56.6031 44.9327 69.3498 37.5727C75.5898 33.946 81.6698 33.3594 86.1498 35.9194C90.6298 38.586 93.1365 43.9727 93.1365 51.2794C93.1365 65.9994 82.7898 83.9727 69.9898 91.3327C66.3631 93.466 62.7898 94.5327 59.5365 94.5327Z" fill="#1FE422"/>
<path d="M84.0514 56.1393C84.0514 65.3126 77.598 76.4593 69.6514 81.046C61.758 85.6326 55.3047 81.8993 55.3047 72.7793C55.3047 63.606 61.758 52.4593 69.6514 47.8726C77.598 43.286 84.0514 46.966 84.0514 56.1393Z" fill="#2B303E"/>
<path d="M76.134 46.6062C74.2673 46.6062 72.1873 47.2462 70.054 48.4729C62.3206 52.8995 56.0273 63.7795 56.0273 72.7395C56.0273 78.6595 58.8006 82.2862 63.2806 82.2862C65.1473 82.2862 67.2273 81.6462 69.3606 80.4729C77.094 75.9929 83.3873 65.1129 83.3873 56.1529C83.3873 50.2329 80.5606 46.6062 76.134 46.6062ZM63.2806 83.6729C58.054 83.6729 54.6406 79.3529 54.6406 72.7395C54.6406 63.3529 61.254 51.9929 69.3606 47.2995C71.7073 45.9129 74.0006 45.2195 76.134 45.2195C81.3606 45.2195 84.774 49.5395 84.774 56.1529C84.774 65.4862 78.1606 76.9529 70.054 81.5929C67.7073 83.0329 65.414 83.6729 63.2806 83.6729Z" fill="#1FE422"/>
<path d="M77.4263 59.9624C77.4263 64.9224 73.9596 70.8957 69.6396 73.4024C65.3729 75.8557 61.9062 73.8824 61.9062 68.9224C61.9062 63.9624 65.3729 57.9357 69.6396 55.4824C73.9596 52.9757 77.4263 55.0024 77.4263 59.9624Z" fill="#2B303E"/>
<path d="M73.1355 55.0658C72.1755 55.0658 71.1089 55.4391 69.9889 56.0791C65.9355 58.3725 62.6289 64.1858 62.6289 68.9325C62.6289 71.8658 64.0155 73.7858 66.2022 73.7858C67.1622 73.7858 68.2289 73.4125 69.3489 72.7725C73.4022 70.4258 76.7622 64.6658 76.7622 59.9725C76.7622 56.9325 75.3755 55.0658 73.1355 55.0658ZM66.2022 75.1191C63.1622 75.1191 61.2422 72.6658 61.2422 68.9325C61.2422 63.7591 64.8689 57.4658 69.3489 54.8525C70.6822 54.0525 71.9622 53.7325 73.1355 53.7325C76.1755 53.7325 78.0955 56.1858 78.0955 59.9725C78.0955 65.0925 74.4689 71.3858 69.9889 73.9458C68.7089 74.7458 67.4289 75.1191 66.2022 75.1191Z" fill="#1FE422"/>
<path d="M35.4668 89.3888L25.9734 83.8422C17.5468 88.6955 10.7734 100.536 10.7734 110.242C10.7734 115.042 12.4801 118.455 15.2001 120.055L24.7468 125.549C21.9734 123.949 20.2668 120.535 20.2668 115.682C20.2668 106.029 27.0934 94.2422 35.4668 89.3888Z" fill="#2B303E"/>
<path d="M25.9636 84.7191C17.9103 89.5724 11.457 100.932 11.457 110.266C11.457 114.692 12.897 117.946 15.5636 119.439L21.1103 122.692C20.097 120.826 19.617 118.479 19.617 115.706C19.617 106.212 26.017 94.6924 34.1236 89.4124L25.9636 84.7191ZM24.737 126.212C24.6303 126.212 24.5236 126.212 24.417 126.159C24.417 126.159 24.3636 126.159 24.3636 126.106L14.8703 120.666C11.777 118.906 10.0703 115.172 10.0703 110.266C10.0703 100.346 17.057 88.2391 25.6436 83.3324C25.857 83.2257 26.0703 83.2257 26.2836 83.3324L35.8303 88.7724C36.0436 88.9324 36.1503 89.1457 36.1503 89.4124C36.1503 89.6791 36.0436 89.8924 35.8303 89.9991C27.617 94.6924 20.9503 106.266 20.9503 115.706C20.9503 120.132 22.4436 123.439 25.057 124.986C25.4303 125.146 25.537 125.626 25.3236 125.892C25.217 126.106 24.9503 126.212 24.737 126.212Z" fill="#1FE422"/>
<path d="M25.9688 83.8693L35.4621 89.416C39.6754 86.9627 43.4621 86.7493 46.2354 88.296L36.6888 82.8027C33.9688 81.2027 30.1821 81.4693 25.9688 83.8693Z" fill="#2B303E"/>
<path d="M27.3599 83.9458L35.4666 88.6391C37.7066 87.3591 39.8932 86.7191 41.9199 86.6658L36.3199 83.4124C33.9732 82.0791 30.7199 82.2391 27.3599 83.9458ZM35.4666 90.0791C35.3599 90.0791 35.1999 90.0258 35.1466 89.9724L25.5999 84.5324C25.3866 84.3724 25.2266 84.1591 25.2266 83.8924C25.2266 83.6791 25.3866 83.4124 25.5999 83.3058C29.8666 80.8524 33.9732 80.5324 37.0132 82.2924L46.5599 87.7324C46.8799 87.9458 46.9866 88.3724 46.8266 88.6924C46.6132 89.0124 46.2399 89.1191 45.8666 88.9591C43.2532 87.4124 39.5732 87.7858 35.8399 89.9724C35.7332 90.0258 35.5732 90.0791 35.4666 90.0791Z" fill="#1FE422"/>
<path d="M50.6656 98.1426C50.6656 107.849 43.8923 119.636 35.4656 124.489C31.2523 126.889 27.4656 127.156 24.7456 125.556C21.9723 123.956 20.2656 120.543 20.2656 115.689C20.2656 105.983 27.0923 94.2493 35.4656 89.396C39.679 86.9426 43.4656 86.7293 46.239 88.276C48.959 89.9293 50.6656 93.2893 50.6656 98.1426Z" fill="#2B303E"/>
<path d="M42.2682 88.0133C40.2949 88.0133 38.0549 88.7066 35.8149 89.9866C27.6549 94.7333 20.9882 106.307 20.9882 115.747C20.9882 120.173 22.4282 123.427 25.0949 124.973C27.7082 126.52 31.3349 126.147 35.1216 123.907C43.3349 119.213 50.0016 107.64 50.0016 98.1466C50.0016 93.7199 48.5616 90.4666 45.8949 88.9733C44.8282 88.3333 43.6016 88.0133 42.2682 88.0133ZM28.7216 127.267C27.1216 127.267 25.6282 126.893 24.4016 126.2C21.3082 124.387 19.6016 120.653 19.6016 115.747C19.6016 105.827 26.5882 93.7733 35.1216 88.8133C39.3882 86.3599 43.4949 85.9866 46.5882 87.7466C49.6816 89.5066 51.3349 93.2399 51.3349 98.1466C51.3349 108.067 44.4016 120.173 35.8149 125.08C33.3616 126.573 30.9616 127.267 28.7216 127.267Z" fill="#1FE422"/>
<path d="M45.0373 101.419C45.0373 107.499 40.7706 114.965 35.4373 118.005C30.1573 121.045 25.8906 118.539 25.8906 112.459C25.8906 106.379 30.1573 98.912 35.4373 95.872C40.7706 92.832 45.0373 95.2853 45.0373 101.419Z" fill="#2B303E"/>
<path d="M39.7475 95.2405C38.5742 95.2405 37.1875 95.6672 35.8008 96.4672C30.7342 99.4005 26.5742 106.601 26.5742 112.467C26.5742 116.307 28.3342 118.601 31.1608 118.601C32.3875 118.601 33.7208 118.227 35.1075 117.427C40.2275 114.441 44.3342 107.347 44.3342 101.427C44.3342 97.6405 42.5742 95.2405 39.7475 95.2405ZM31.1608 120.041C27.5342 120.041 25.1875 117.054 25.1875 112.467C25.1875 106.174 29.6675 98.4939 35.1075 95.2939C36.7075 94.3339 38.3075 93.9072 39.7475 93.9072C43.3742 93.9072 45.7208 96.8405 45.7208 101.427C45.7208 107.721 41.2942 115.454 35.8008 118.601C34.2008 119.561 32.6542 120.041 31.1608 120.041Z" fill="#1FE422"/>
<path d="M40.6514 103.936C40.6514 107.243 38.358 111.296 35.478 112.949C32.6514 114.549 30.3047 113.269 30.3047 109.909C30.3047 106.656 32.6514 102.656 35.478 100.949C38.358 99.296 40.6514 100.629 40.6514 103.936Z" fill="#2B303E"/>
<path d="M37.8006 100.965C37.214 100.965 36.5206 101.178 35.8273 101.552C33.1606 103.098 31.0273 106.832 31.0273 109.925C31.0273 111.792 31.8273 112.965 33.214 112.965C33.7473 112.965 34.494 112.752 35.134 112.325C37.8006 110.832 39.9873 107.045 39.9873 103.952C39.9873 102.085 39.1873 100.965 37.8006 100.965ZM33.214 114.298C31.0273 114.298 29.6406 112.592 29.6406 109.925C29.6406 106.405 32.0406 102.138 35.134 100.378C36.094 99.845 36.9473 99.5783 37.8006 99.5783C39.9873 99.5783 41.374 101.285 41.374 103.952C41.374 107.525 38.9206 111.738 35.8273 113.498C34.9206 114.032 34.014 114.298 33.214 114.298Z" fill="#1FE422"/>
<path d="M76.7771 35.0948L67.2838 29.6014C51.0171 38.9881 37.8438 61.8148 37.8438 80.5881L47.3371 86.1348C47.3371 67.3614 60.5638 44.4281 76.7771 35.0948Z" fill="#2B303E"/>
<path d="M38.5273 80.2383L46.6873 84.9317C47.2206 66.585 59.8073 44.7183 75.434 35.1183L67.274 30.3717C51.4873 39.705 38.6873 61.8917 38.5273 80.2383ZM47.3806 86.7983C47.2206 86.7983 47.114 86.745 47.0073 86.6917L37.4606 81.1983C37.3006 81.0917 37.1406 80.8783 37.1406 80.6117C37.1406 61.625 50.5273 38.4783 66.954 29.0383C67.1673 28.8783 67.434 28.8783 67.594 29.0383L77.1406 34.5317C77.354 34.6383 77.4606 34.8517 77.4606 35.1183C77.4606 35.3317 77.354 35.5983 77.1406 35.705C61.0873 44.985 48.0206 67.5983 48.0206 86.105C48.0206 86.3183 47.914 86.585 47.7006 86.6917C47.594 86.745 47.434 86.7983 47.3806 86.7983Z" fill="#1FE422"/>
<path d="M97.6435 33.0391L88.0969 27.5458C82.6035 24.3458 75.1369 25.0925 67.2969 29.6258L76.7902 35.1191C84.6302 30.5858 92.1502 29.8391 97.6435 33.0391Z" fill="#2B303E"/>
<path d="M68.6738 29.5965L76.8338 34.2899C82.0604 31.3565 87.3404 30.0232 91.8738 30.5032L87.7671 28.1565C82.8071 25.2232 75.8204 25.8099 68.6738 29.5965ZM76.7804 35.7832C76.6738 35.7832 76.5671 35.7299 76.4604 35.6765L66.9671 30.1832C66.7537 30.0765 66.5938 29.8099 66.5938 29.5965C66.5938 29.3299 66.7537 29.1165 66.9671 29.0099C74.8604 24.4232 82.8071 23.6765 88.4604 26.9299L97.8471 32.3699C98.1671 32.4765 98.3804 32.7432 98.3804 33.0099C98.3804 33.3832 98.0604 33.6499 97.6337 33.7032C97.5271 33.7032 97.4204 33.7032 97.3137 33.6499C92.0338 30.6099 84.6204 31.3565 77.1538 35.6765C77.0471 35.7299 76.9404 35.7832 76.7804 35.7832Z" fill="#1FE422"/>
<path d="M47.375 86.1338L52.3883 83.2005C52.3883 67.6271 63.3217 48.6938 76.815 40.8538C83.2683 37.1738 89.5617 36.5338 94.095 39.2005C94.3617 39.3071 94.575 39.4671 94.8417 39.6271L98.5217 33.6005C98.255 33.3871 97.935 33.2271 97.615 33.0671C92.1217 29.8671 84.6017 30.6138 76.815 35.0938C60.6017 44.4805 47.375 67.3605 47.375 86.1338Z" fill="#2B303E"/>
<path d="M89.9785 31.7588C86.0319 31.7588 81.6052 33.0922 77.1785 35.7055C61.4452 44.7722 48.6452 66.5855 48.0585 84.9322L51.6852 82.8522C51.8985 67.1188 62.9385 48.0788 76.4852 40.2922C83.0985 36.4522 89.7119 35.8122 94.4585 38.5322C94.5119 38.5855 94.5652 38.5855 94.6185 38.6388L97.6052 33.7855C97.4985 33.7322 97.3919 33.6788 97.2852 33.6255C95.1519 32.3988 92.6985 31.7588 89.9785 31.7588ZM47.3652 86.7988C47.2585 86.7988 47.1519 86.7455 47.0452 86.6922C46.8319 86.5855 46.6719 86.3188 46.6719 86.1055C46.6719 67.1188 60.0585 43.9722 76.4852 34.4788C84.3785 29.9455 92.3252 29.1455 97.9785 32.4522C98.2985 32.6122 98.6185 32.8255 98.8852 32.9855C99.2052 33.1988 99.3119 33.6255 99.0985 33.9455L95.4185 39.9722C95.3119 40.1322 95.1519 40.2388 94.9919 40.2922C94.7785 40.3455 94.6185 40.2922 94.4585 40.1855C94.2452 40.0255 93.9785 39.8655 93.7652 39.7588C89.4452 37.2522 83.3119 37.8922 77.1785 41.4655C63.8452 49.1455 53.0719 67.8655 53.0719 83.1722C53.0719 83.4388 52.9119 83.6522 52.6985 83.8122L47.7385 86.6922C47.6319 86.7455 47.4719 86.7988 47.3652 86.7988Z" fill="#1FE422"/>
<path d="M78.625 111.525L128.918 82.2987L121.452 31.2587L85.2917 52.1654L78.625 111.525Z" fill="#2B303E"/>
<path d="M85.9212 52.5628L79.4679 110.269L128.161 81.9495L120.908 32.4028L85.9212 52.5628ZM78.6145 112.189C78.5079 112.189 78.3479 112.189 78.2412 112.083C78.0279 111.923 77.9212 111.709 77.9745 111.443L84.5879 52.0828C84.6412 51.8695 84.7479 51.6561 84.9079 51.5495L121.121 30.6961C121.335 30.5361 121.548 30.5361 121.761 30.6428C121.975 30.7495 122.081 30.9628 122.135 31.1761L129.601 82.2161C129.601 82.4828 129.495 82.6961 129.228 82.8561L78.9879 112.083C78.8812 112.189 78.7745 112.189 78.6145 112.189Z" fill="#1FE422"/>
<path d="M53.5729 33.8573L85.3063 52.1506L78.6396 111.564L46.9062 93.2173L53.5729 33.8573Z" fill="#2B303E"/>
<path d="M47.6392 92.8295L78.0392 110.429L84.5459 52.5095L54.1459 34.9628L47.6392 92.8295ZM78.6259 112.189C78.5192 112.189 78.4125 112.189 78.3059 112.083L46.5725 93.8428C46.3592 93.6828 46.1992 93.4161 46.2525 93.1495L52.8659 33.7895C52.9192 33.5228 53.0259 33.3628 53.2392 33.2561C53.4525 33.1495 53.7192 33.1495 53.8792 33.2561L85.6125 51.6028C85.8792 51.7095 85.9859 51.9761 85.9859 52.2428L79.3192 111.656C79.2659 111.816 79.1592 112.029 78.9459 112.136C78.8392 112.189 78.7325 112.189 78.6259 112.189Z" fill="#1FE422"/>
<path d="M82.1831 53.7655L55.9965 38.6188L53.7031 58.9922L79.9965 74.2988L82.1831 53.7655Z" fill="#2B303E"/>
<path d="M54.44 58.6281L79.4533 73.1348L81.4267 54.1481L56.5733 39.7481L54.44 58.6281ZM79.9867 75.0015C79.88 75.0015 79.7733 74.9481 79.6667 74.8948L53.32 59.5881C53.1067 59.4281 53 59.1615 53 58.8948L55.2933 38.5748C55.3467 38.3615 55.4533 38.1481 55.6667 38.0415C55.88 37.9348 56.0933 37.9348 56.3067 38.0415L82.4933 53.1348C82.76 53.2948 82.8667 53.5615 82.8667 53.8281L80.68 74.3615C80.68 74.5748 80.52 74.7881 80.3067 74.8948C80.2 74.9481 80.0933 75.0015 79.9867 75.0015Z" fill="#7370FF"/>
<path d="M89.7459 12.9504L121.479 31.2437L85.3193 52.1504L53.5859 33.8571L89.7459 12.9504Z" fill="#2B303E"/>
<path d="M54.9628 33.8659L85.3095 51.4125L120.136 31.3059L89.7361 13.8125L54.9628 33.8659ZM85.3095 52.8525C85.2028 52.8525 85.0428 52.8525 84.9361 52.7992L53.2561 34.4525C53.0428 34.3459 52.8828 34.1325 52.8828 33.8659C52.8828 33.6525 53.0428 33.3859 53.2561 33.2792L89.4161 12.3725C89.6295 12.2659 89.8961 12.2659 90.1095 12.3725L121.843 30.7192C122.056 30.8259 122.163 31.0392 122.163 31.3059C122.163 31.5725 122.056 31.7859 121.843 31.8925L85.6295 52.7992C85.5761 52.8525 85.4161 52.8525 85.3095 52.8525Z" fill="#1FE422"/>
<path d="M84.6406 86.5254C90.294 72.3387 100.694 59.0587 112.481 52.2321C115.201 50.6854 117.867 49.5654 120.427 48.7654L118.827 36.2321L87.9473 54.0987L84.6406 86.5254Z" fill="#2B303E"/>
<path d="M88.6105 54.4961L85.8371 82.2295C91.9171 69.1095 101.784 57.6428 112.184 51.6161C114.744 50.1761 117.25 49.0028 119.704 48.3095L118.317 37.3228L88.6105 54.4961ZM84.6638 87.1895H84.5038C84.1838 87.0828 83.9705 86.7628 84.0238 86.4961L87.2771 54.0161C87.2771 53.7495 87.4371 53.5895 87.5971 53.4828L118.53 35.6161C118.69 35.5095 118.957 35.5095 119.17 35.6161C119.384 35.7228 119.544 35.8828 119.544 36.1495L121.144 48.7361C121.197 49.0028 120.984 49.3228 120.664 49.4295C118.157 50.1761 115.49 51.2961 112.877 52.8428C101.677 59.2961 91.1171 72.3095 85.3038 86.7628C85.2505 87.0295 84.9838 87.1895 84.6638 87.1895Z" fill="#7370FF"/>
<path d="M133.208 63.931C129.048 61.531 123.395 61.9044 117.101 65.4777C104.515 72.7844 94.3281 90.4377 94.3281 104.944C94.3281 112.198 96.8881 117.318 100.995 119.718L110.541 125.158C106.381 122.811 103.875 117.691 103.875 110.438C103.875 95.931 114.061 78.2777 126.595 71.0244C132.941 67.3444 138.595 67.0244 142.701 69.4244L133.208 63.931Z" fill="#2B303E"/>
<path d="M127.264 63.088C124.224 63.088 120.917 64.1013 117.451 66.128C105.077 73.2213 94.9974 90.6613 94.9974 104.901C94.9974 111.728 97.2374 116.741 101.344 119.088L106.037 121.808C104.117 118.928 103.157 115.088 103.157 110.448C103.157 95.6747 113.557 77.7547 126.251 70.3947C130.251 68.1013 134.091 66.9813 137.557 67.1947L132.811 64.4747C131.211 63.568 129.344 63.088 127.264 63.088ZM110.517 125.861C110.411 125.861 110.304 125.861 110.197 125.808L100.651 120.261C96.1174 117.648 93.6641 112.208 93.6641 104.901C93.6641 90.2347 104.011 72.2613 116.757 64.9013C122.997 61.2747 129.077 60.7413 133.557 63.3013L143.051 68.7947C143.371 68.9547 143.477 69.3813 143.317 69.7547C143.104 70.0747 142.731 70.1813 142.357 69.968C138.357 67.6747 132.811 68.2613 126.944 71.568C114.571 78.7147 104.544 96.1547 104.544 110.448C104.544 117.168 106.731 122.128 110.731 124.475C111.051 124.581 111.211 124.848 111.211 125.168C111.211 125.541 110.944 125.861 110.571 125.861H110.517Z" fill="#1FE422"/>
<path d="M149.406 84.1588C149.406 98.6654 139.219 116.372 126.633 123.572C120.339 127.252 114.633 127.572 110.526 125.225C106.366 122.825 103.859 117.705 103.859 110.452C103.859 95.9454 114.046 78.2921 126.633 71.0388C132.926 67.4121 138.579 67.0388 142.739 69.4388C146.846 71.8388 149.406 76.9054 149.406 84.1588Z" fill="#2B303E"/>
<path d="M136.81 68.5581C133.716 68.5581 130.463 69.6248 126.943 71.5981C114.57 78.6914 104.543 96.1848 104.543 110.425C104.543 117.198 106.783 122.211 110.89 124.611C114.89 126.905 120.436 126.371 126.303 123.011C138.676 115.865 148.703 98.4248 148.703 84.1314C148.703 77.3581 146.463 72.3448 142.356 69.9448C140.756 69.0381 138.89 68.5581 136.81 68.5581ZM116.49 127.385C114.143 127.385 112.063 126.851 110.196 125.785C105.663 123.118 103.156 117.731 103.156 110.425C103.156 95.7048 113.556 77.7848 126.303 70.3714C132.543 66.7981 138.623 66.2114 143.05 68.8248C147.583 71.4381 150.09 76.8248 150.09 84.1314C150.09 98.8514 139.743 116.825 126.943 124.185C123.316 126.318 119.743 127.385 116.49 127.385Z" fill="#1FE422"/>
<path d="M141.004 88.9914C141.004 98.1647 134.551 109.311 126.604 113.898C118.711 118.485 112.258 114.751 112.258 105.631C112.258 96.458 118.711 85.3114 126.604 80.7247C134.551 76.138 141.004 79.818 141.004 88.9914Z" fill="#2B303E"/>
<path d="M133.034 79.4582C131.167 79.4582 129.087 80.0982 126.954 81.3249C119.22 85.7516 112.98 96.6316 112.98 105.592C112.98 111.512 115.754 115.192 120.234 115.192C122.1 115.192 124.127 114.498 126.314 113.325C134.047 108.845 140.287 97.9649 140.287 89.0049C140.287 83.0849 137.514 79.4582 133.034 79.4582ZM120.234 116.525C114.954 116.525 111.594 112.205 111.594 105.592C111.594 96.2049 118.154 84.8449 126.314 80.1516C128.607 78.7649 130.9 78.0716 133.034 78.0716C138.314 78.0716 141.674 82.3916 141.674 89.0049C141.674 98.3382 135.06 109.805 126.954 114.445C124.607 115.885 122.314 116.525 120.234 116.525Z" fill="#1FE422"/>
<path d="M134.379 92.852C134.379 97.812 130.913 103.785 126.593 106.292C122.326 108.745 118.859 106.772 118.859 101.812C118.859 96.852 122.326 90.8254 126.593 88.372C130.913 85.8654 134.379 87.892 134.379 92.852Z" fill="#2B303E"/>
<path d="M130.089 87.9555C129.129 87.9555 128.062 88.3288 126.942 88.9688C122.889 91.2621 119.582 97.0755 119.582 101.822C119.582 104.755 120.969 106.675 123.155 106.675C124.115 106.675 125.182 106.302 126.302 105.662C130.355 103.315 133.715 97.5555 133.715 92.8621C133.715 89.8221 132.329 87.9555 130.089 87.9555ZM123.155 108.009C120.115 108.009 118.195 105.555 118.195 101.822C118.195 96.6488 121.822 90.3555 126.302 87.7421C127.635 86.9421 128.915 86.6221 130.089 86.6221C133.129 86.6221 135.049 89.0755 135.049 92.8621C135.049 97.9821 131.422 104.275 126.942 106.835C125.662 107.635 124.382 108.009 123.155 108.009Z" fill="#1FE422"/>
<path d="M75.1374 109.5L78.7641 77.1796L51.3507 92.9129C51.3507 92.9129 41.4841 104.7 43.8841 127.58C59.6174 118.46 75.1374 109.5 75.1374 109.5Z" fill="#2B303E"/>
<path d="M51.8275 93.5237C50.9742 94.6437 42.6542 105.844 44.4675 126.43L74.4942 109.097L77.9075 78.4303L51.8275 93.5237ZM43.8809 128.244C43.7742 128.244 43.6675 128.244 43.5609 128.19C43.3475 128.084 43.1875 127.924 43.1875 127.657C40.7875 104.777 50.4409 92.9903 50.8142 92.5103C50.8675 92.457 50.9209 92.4037 51.0275 92.4037L78.4409 76.5637C78.6542 76.457 78.9209 76.457 79.1342 76.617C79.3475 76.7237 79.4542 76.937 79.4542 77.2037L75.8275 109.63C75.7742 109.844 75.6675 110.057 75.4542 110.164L44.2009 128.137C44.0942 128.19 43.9875 128.244 43.8809 128.244Z" fill="#1FE422"/>
<path d="M26.0117 78.2996L51.3984 92.9129C51.3984 92.9129 41.5317 104.7 43.8784 127.58L18.4917 112.913C16.0917 90.0863 26.0117 78.2996 26.0117 78.2996Z" fill="#2B303E"/>
<path d="M19.1711 112.496L43.0644 126.362C41.4111 106.949 48.3977 95.8556 50.3711 93.1889L26.1577 79.2156C24.5044 81.5622 17.1977 92.9222 19.1711 112.496ZM43.8644 128.282C43.7577 128.282 43.6511 128.229 43.5444 128.176L18.1577 113.562C17.9977 113.456 17.8377 113.242 17.8377 113.029C15.4377 90.1489 25.0377 78.3622 25.4644 77.9356C25.7311 77.6689 26.0511 77.5622 26.3711 77.7756L51.7044 92.3889C51.9177 92.4956 52.0244 92.6556 52.0777 92.8689C52.0777 93.0822 52.0244 93.2956 51.9177 93.4556C51.8111 93.5622 42.3177 105.189 44.5577 127.322C44.6111 127.376 44.6111 127.482 44.6111 127.589C44.6111 127.962 44.3444 128.282 43.9177 128.282H43.8644Z" fill="#1FE422"/>
<path d="M53.3678 62.4778L78.7545 77.1445L51.3411 92.9312L26.0078 78.3178L53.3678 62.4778Z" fill="#2B303E"/>
<path d="M27.3847 78.289L51.3847 92.1557L77.4114 77.169L53.4114 63.3024L27.3847 78.289ZM51.3847 93.5957C51.278 93.5957 51.1714 93.5957 51.0647 93.5424L25.678 78.8757C25.4647 78.769 25.3047 78.5557 25.3047 78.289C25.3047 78.0224 25.4647 77.809 25.678 77.7024L53.038 61.8624C53.2514 61.7557 53.5714 61.7557 53.7314 61.8624L79.118 76.529C79.3847 76.689 79.4914 76.9024 79.4914 77.169C79.4914 77.329 79.3847 77.5957 79.118 77.7024L51.758 93.5424C51.6514 93.5957 51.5447 93.5957 51.3847 93.5957Z" fill="#1FE422"/>
<path d="M133.332 53.668C127.786 50.468 120.319 51.2147 112.479 55.6947C96.2657 65.0814 83.0391 87.9614 83.0391 106.681L92.5857 112.228C92.5857 93.4547 105.759 70.5747 122.026 61.2414C129.812 56.708 137.332 55.9613 142.826 59.1614L133.332 53.668Z" fill="#2B303E"/>
<path d="M83.7617 106.332L91.9217 111.025C92.455 92.2521 105.628 69.8521 121.682 60.6254C127.068 57.5321 132.455 56.1454 137.095 56.5721L132.988 54.2254C127.762 51.2388 120.348 51.9854 112.828 56.3054C96.935 65.4788 83.9217 87.8254 83.7617 106.332ZM92.615 112.892C92.5083 112.892 92.3483 112.839 92.2417 112.785L82.695 107.345C82.535 107.185 82.375 106.972 82.375 106.705C82.375 87.7188 95.7617 64.6254 112.188 55.1321C120.082 50.5454 128.028 49.7454 133.682 53.0521L143.228 58.5454C143.548 58.7054 143.655 59.1321 143.442 59.5054C143.282 59.8254 142.855 59.9321 142.535 59.7188C137.255 56.6788 129.842 57.4788 122.375 61.7988C106.322 71.0788 93.255 93.6921 93.255 112.199C93.255 112.465 93.1483 112.679 92.935 112.785C92.8283 112.839 92.7217 112.892 92.615 112.892Z" fill="#1FE422"/>
<path d="M92.5703 112.228L97.5836 109.294C97.5836 93.7742 108.517 74.7875 122.01 66.9475C128.464 63.2675 134.757 62.6275 139.29 65.2942C139.557 65.4009 139.824 65.5609 140.037 65.7209L143.717 59.7475C143.45 59.5342 143.13 59.3209 142.81 59.1609C137.317 55.9609 129.797 56.7075 122.01 61.2409C105.797 70.6275 92.5703 93.4542 92.5703 112.228Z" fill="#2B303E"/>
<path d="M135.213 57.9049C131.213 57.9049 126.786 59.2383 122.36 61.7983C106.68 70.8649 93.8262 92.7316 93.2929 111.025L96.9196 108.945C97.0796 93.2116 108.12 74.2249 121.666 66.3849C128.28 62.5983 134.946 61.9583 139.64 64.6783C139.693 64.7316 139.746 64.7316 139.8 64.7849L142.786 59.9316C142.733 59.8783 142.626 59.8249 142.52 59.7183C140.386 58.5449 137.933 57.9049 135.213 57.9049ZM92.5996 112.892C92.4929 112.892 92.3329 112.838 92.2262 112.785C92.0129 112.678 91.9062 112.465 91.9062 112.252C91.9062 93.2649 105.24 70.1183 121.72 60.6249C129.613 56.0383 137.506 55.2916 143.213 58.5983C143.48 58.7583 143.8 58.9716 144.12 59.1316C144.44 59.3449 144.493 59.7716 144.333 60.0383L140.653 66.0649C140.546 66.2249 140.386 66.3316 140.173 66.3849C140.013 66.4383 139.8 66.3849 139.64 66.2783C139.426 66.1183 139.213 66.0116 138.946 65.8516C134.68 63.3983 128.546 63.9849 122.36 67.6116C109.08 75.2383 98.2529 94.0116 98.2529 109.318C98.2529 109.585 98.1462 109.798 97.9329 109.958L92.9196 112.785C92.8129 112.838 92.7062 112.892 92.5996 112.892Z" fill="#1FE422"/>
<path d="M71.42 102.906C68.7 101.306 64.86 101.573 60.7 103.973C52.3267 108.773 45.5 120.613 45.5 130.319C45.5 135.119 47.2067 138.533 49.9267 140.133L59.4733 145.626C56.7 144.026 54.9933 140.613 54.9933 135.759C54.9933 126.106 61.82 114.319 70.2467 109.466C74.4067 107.013 78.1933 106.799 80.9667 108.399L71.42 102.906Z" fill="#2B303E"/>
<path d="M67.4635 102.571C65.4902 102.571 63.3035 103.211 61.0102 104.545C52.8502 109.238 46.1835 120.811 46.1835 130.305C46.1835 134.731 47.6235 137.985 50.2902 139.478L55.8369 142.731C54.8769 140.865 54.3435 138.518 54.3435 135.745C54.3435 125.878 61.2769 113.771 69.8635 108.811C72.2102 107.478 74.5035 106.731 76.6369 106.678L71.0902 103.478C70.0235 102.838 68.7969 102.571 67.4635 102.571ZM59.4635 146.251C59.3569 146.251 59.2502 146.251 59.1435 146.198V146.145L49.5969 140.705C46.5035 138.945 44.7969 135.211 44.7969 130.305C44.7969 120.385 51.7835 108.278 60.3702 103.371C64.5835 100.918 68.6902 100.491 71.7835 102.251L81.2769 107.798C81.6502 107.958 81.7569 108.385 81.5435 108.705C81.3835 109.025 80.9569 109.131 80.6369 108.971C77.9702 107.425 74.3435 107.851 70.5569 110.038C62.3435 114.785 55.6769 126.251 55.6769 135.745C55.6769 140.118 57.1169 143.425 59.6769 144.971C59.9969 145.025 60.1569 145.291 60.1569 145.611C60.1569 145.931 59.8902 146.251 59.5169 146.251H59.4635Z" fill="#1FE422"/>
<path d="M85.3922 118.22C85.3922 127.926 78.6189 139.713 70.1922 144.566C66.0322 146.966 62.1922 147.233 59.4722 145.633C56.6989 144.033 54.9922 140.62 54.9922 135.766C54.9922 126.06 61.8189 114.326 70.1922 109.473C74.4055 107.02 78.1922 106.806 80.9655 108.353C83.6855 110.006 85.3922 113.366 85.3922 118.22Z" fill="#2B303E"/>
<path d="M76.9948 108.053C74.9681 108.053 72.8348 108.746 70.5415 110.026C62.3815 114.773 55.7148 126.293 55.7148 135.786C55.7148 140.213 57.1548 143.466 59.8215 145.013C62.4348 146.559 66.0615 146.133 69.8481 143.946C78.0615 139.199 84.7281 127.679 84.7281 118.186C84.7281 113.759 83.2881 110.506 80.6215 109.013C79.5548 108.373 78.3281 108.053 76.9948 108.053ZM63.4481 147.306C61.8481 147.306 60.4081 146.933 59.1281 146.239C56.0348 144.426 54.3281 140.693 54.3281 135.786C54.3281 125.866 61.3148 113.759 69.8481 108.853C74.1148 106.399 78.2215 106.026 81.3148 107.786C84.4081 109.546 86.1148 113.279 86.1148 118.186C86.1148 128.106 79.1281 140.213 70.5415 145.119C68.0881 146.613 65.6881 147.306 63.4481 147.306Z" fill="#1FE422"/>
<path d="M79.7781 121.443C79.7781 127.576 75.4581 134.99 70.1781 138.083C64.8981 141.123 60.5781 138.616 60.5781 132.536C60.5781 126.456 64.8981 118.99 70.1781 115.896C75.4581 112.856 79.7781 115.363 79.7781 121.443Z" fill="#2B303E"/>
<path d="M74.4741 115.294C73.3007 115.294 71.9141 115.721 70.5274 116.521C65.4607 119.454 61.3007 126.654 61.3007 132.521C61.3007 136.361 63.0607 138.654 65.8874 138.654C67.1141 138.654 68.4474 138.281 69.8341 137.481C74.9541 134.494 79.0607 127.347 79.0607 121.427C79.0607 117.641 77.3007 115.294 74.4741 115.294ZM65.8874 140.041C62.2607 140.041 59.9141 137.107 59.9141 132.521C59.9141 126.227 64.3941 118.494 69.8341 115.347C71.4341 114.387 73.0341 113.961 74.4741 113.961C78.1007 113.961 80.4474 116.894 80.4474 121.427C80.4474 127.774 76.0207 135.507 70.5274 138.654C68.9274 139.561 67.3807 140.041 65.8874 140.041Z" fill="#1FE422"/>
<path d="M75.3779 124.003C75.3779 127.31 73.0846 131.363 70.2046 132.963C67.3779 134.617 65.0312 133.283 65.0312 129.977C65.0312 126.723 67.3779 122.723 70.2046 121.017C73.0846 119.363 75.3779 120.697 75.3779 124.003Z" fill="#2B303E"/>
<path d="M72.4881 120.951C71.9015 120.951 71.2081 121.218 70.5148 121.591C67.8481 123.138 65.7148 126.871 65.7148 129.965C65.7148 131.831 66.5148 133.005 67.9015 133.005C68.4881 133.005 69.1815 132.791 69.8215 132.365C72.4881 130.871 74.6748 127.031 74.6748 123.991C74.6748 122.071 73.8748 120.951 72.4881 120.951ZM67.9015 134.338C65.7148 134.338 64.3281 132.631 64.3281 129.965C64.3281 126.391 66.7815 122.178 69.8215 120.365C70.7815 119.831 71.6348 119.618 72.4881 119.618C74.6748 119.618 76.0615 121.325 76.0615 123.991C76.0615 127.565 73.6081 131.778 70.5148 133.538C69.6081 134.071 68.7015 134.338 67.9015 134.338Z" fill="#1FE422"/>
<path d="M43.4346 119.939V113.966C43.4346 113.006 42.7946 111.939 41.9946 111.513L34.7946 107.353C34.4212 107.086 34.0479 107.086 33.7812 107.246L35.7546 106.073C36.0212 105.913 36.3946 105.913 36.7679 106.179L43.9679 110.339C44.7679 110.766 45.4079 111.886 45.4079 112.793V118.819C45.4079 119.246 45.2479 119.566 44.9812 119.726L43.0079 120.899C43.2746 120.739 43.4346 120.419 43.4346 119.939Z" fill="#2B303E"/>
<path d="M35.6139 106.964L42.3339 110.858C43.3472 111.444 44.1472 112.778 44.1472 113.951V119.391L44.6272 119.124C44.6806 119.124 44.7339 119.018 44.7339 118.804V112.778C44.7339 112.138 44.2539 111.231 43.6672 110.911L36.4672 106.751C36.3072 106.644 36.2006 106.644 36.1472 106.644L35.6139 106.964ZM43.0272 121.524C42.8139 121.524 42.6006 121.418 42.4406 121.204C42.2806 120.884 42.3872 120.458 42.6539 120.244C42.7072 120.244 42.7606 120.138 42.7606 119.924V113.951C42.7606 113.258 42.2806 112.404 41.6939 112.084L34.4939 107.924C34.3339 107.818 34.2272 107.818 34.1739 107.818C33.8539 108.031 33.4272 107.924 33.2672 107.551C33.0539 107.231 33.1606 106.804 33.4806 106.591L35.4539 105.471C35.9339 105.204 36.5739 105.258 37.1072 105.578L44.3606 109.738C45.3206 110.271 46.1206 111.658 46.1206 112.778V118.804C46.1206 119.444 45.8006 120.031 45.3739 120.298L43.4006 121.418C43.2939 121.471 43.1872 121.524 43.0272 121.524Z" fill="#7370FF"/>
<path d="M34.7773 107.322C34.404 107.056 34.0306 107.056 33.764 107.216C33.5506 107.376 33.3906 107.696 33.3906 108.122V114.149C33.3906 115.056 33.9773 116.122 34.7773 116.602L41.9773 120.762C42.404 120.976 42.724 120.976 42.9906 120.869C43.2573 120.709 43.4173 120.389 43.4173 119.909V113.936C43.4173 112.976 42.7773 111.909 41.9773 111.482L34.7773 107.322Z" fill="#2B303E"/>
<path d="M34.1666 107.776C34.1666 107.776 34.0599 107.883 34.0599 108.096V114.123C34.0599 114.763 34.5399 115.616 35.1266 115.936L42.3266 120.096C42.5932 120.256 42.6999 120.203 42.6999 120.203C42.6999 120.203 42.7532 120.096 42.7532 119.936V113.909C42.7532 113.269 42.2199 112.363 41.6866 112.043L34.4332 107.883C34.2732 107.776 34.1666 107.776 34.1666 107.776ZM42.6466 121.643C42.3266 121.643 42.0066 121.536 41.6866 121.323L34.4332 117.163C33.4732 116.576 32.7266 115.296 32.7266 114.123V108.096C32.7266 107.403 32.9932 106.869 33.4732 106.603C33.9532 106.336 34.5399 106.389 35.1266 106.656L42.3266 110.869C43.3399 111.403 44.1399 112.789 44.1399 113.909V119.936C44.1399 120.576 43.8199 121.163 43.3399 121.429C43.1266 121.536 42.9132 121.643 42.6466 121.643Z" fill="#7370FF"/>
<path d="M25.3734 109.51V103.537C25.3734 102.63 24.7334 101.51 23.9868 101.084L16.7334 96.9235C16.3601 96.6569 15.9868 96.6569 15.7734 96.8169L17.6934 95.6435C17.9601 95.4835 18.3334 95.5369 18.7068 95.7502L25.9601 99.9102C26.7068 100.337 27.3468 101.51 27.3468 102.364V108.39C27.3468 108.817 27.1868 109.137 26.9201 109.297L24.9468 110.47C25.2134 110.31 25.3734 109.99 25.3734 109.51Z" fill="#2B303E"/>
<path d="M17.528 96.5352L24.3013 100.429C25.3146 101.015 26.0613 102.349 26.0613 103.522V108.962L26.5946 108.695C26.5946 108.695 26.648 108.642 26.648 108.375V102.349C26.648 101.709 26.168 100.855 25.5813 100.482L18.3813 96.3219C18.2213 96.2686 18.1146 96.2152 18.1146 96.2152L17.528 96.5352ZM24.9413 111.095C24.728 111.095 24.4613 110.989 24.3546 110.775C24.1946 110.455 24.248 110.029 24.6213 109.815C24.6213 109.815 24.6746 109.709 24.6746 109.495V103.522C24.6746 102.829 24.1946 101.975 23.608 101.655L16.408 97.4952C16.248 97.3886 16.1413 97.3886 16.1413 97.3886C16.0346 97.4419 15.928 97.4952 15.8213 97.4952C15.5546 97.5486 15.288 97.3886 15.1813 97.1219C14.968 96.8019 15.0746 96.3752 15.3946 96.2152V96.1619L17.368 95.0952C17.848 94.7752 18.488 94.8286 19.0746 95.1486L26.2746 99.3086C27.288 99.8419 28.0346 101.229 28.0346 102.349V108.375C28.0346 109.015 27.768 109.602 27.288 109.869L25.3146 110.989C25.208 111.042 25.1013 111.095 24.9413 111.095Z" fill="#7370FF"/>
<path d="M16.7695 96.893C16.3961 96.6264 16.0228 96.6264 15.7561 96.7864C15.5428 96.9464 15.3828 97.2664 15.3828 97.693V103.72C15.3828 104.626 15.9695 105.693 16.7695 106.173L23.9695 110.333C24.3961 110.546 24.7161 110.546 24.9828 110.44C25.2495 110.28 25.4095 109.96 25.4095 109.48V103.506C25.4095 102.6 24.7695 101.48 23.9695 101.053L16.7695 96.893Z" fill="#2B303E"/>
<path d="M16.134 97.3843C16.0806 97.4376 16.0273 97.491 16.0273 97.7043V103.731C16.0273 104.371 16.5073 105.224 17.094 105.544L24.294 109.704C24.5606 109.864 24.614 109.811 24.614 109.811C24.6673 109.811 24.7206 109.704 24.7206 109.544V103.518C24.7206 102.878 24.1873 101.971 23.654 101.651L16.4006 97.491C16.2406 97.3843 16.134 97.3843 16.134 97.3843ZM24.614 111.251C24.294 111.251 23.9206 111.144 23.654 110.931L16.4006 106.771C15.4406 106.184 14.6406 104.904 14.6406 103.731V97.7043C14.6406 97.011 14.9606 96.4776 15.3873 96.211C15.8673 95.9443 16.5073 95.9976 17.094 96.2643L24.294 100.478C25.3073 101.011 26.1073 102.398 26.1073 103.518V109.544C26.1073 110.184 25.7873 110.771 25.3073 111.038C25.094 111.144 24.8806 111.251 24.614 111.251Z" fill="#7370FF"/>
<path d="M54.9073 94.2854L54.6406 96.5254L75.1206 84.6854L75.3873 82.4454L54.9073 94.2854Z" fill="#7370FF"/>
<path d="M54.0938 100.978L74.5737 89.1375L74.8937 86.8442L54.3604 98.6842L54.0938 100.978Z" fill="#7370FF"/>
<path d="M53.5469 105.353L74.0269 93.5125L74.2935 91.2725L53.8135 103.113L53.5469 105.353Z" fill="#7370FF"/>
</svg>
