<svg width="160" height="161" viewBox="0 0 160 161" fill="none" xmlns="http://www.w3.org/2000/svg">
<path d="M75.228 69.9256C70.5347 67.1523 62.8013 62.7256 58.0547 59.9523L54.6413 57.9789C49.8947 55.3123 42.1613 50.8323 37.4147 48.1123L34.0013 46.1389C31.6547 44.6989 29.468 44.5923 27.9213 45.4989C26.3747 46.4589 25.3613 48.3256 25.3613 51.0456V102.139C25.3613 107.579 29.2547 114.246 34.0013 117.019L37.4147 118.992C42.1613 121.712 49.8947 126.192 54.6413 128.859L58.0547 130.886C62.8013 133.606 70.5347 138.086 75.228 140.806L78.6413 142.779C81.0413 144.166 83.1747 144.326 84.7213 143.366C86.3213 142.459 87.2813 140.539 87.2813 137.819V86.7789C87.2813 81.3389 83.388 74.6189 78.6413 71.8989L75.228 69.9256Z" fill="#2B303E"/>
<path d="M30.152 45.5992C29.4587 45.5992 28.8187 45.7592 28.232 46.1325C26.8454 46.8792 26.0454 48.6925 26.0454 51.0925V102.132C26.0454 107.359 29.7787 113.759 34.312 116.372L79.0054 142.239C80.1787 142.879 81.4054 143.252 82.472 143.252C83.1654 143.252 83.8054 143.092 84.392 142.772C85.7787 141.972 86.5787 140.212 86.5787 137.812V86.7725C86.5787 81.5458 82.8454 75.1458 78.312 72.4792L33.6187 46.7192C32.392 45.9725 31.2187 45.5992 30.152 45.5992ZM82.472 144.639C81.1387 144.639 79.752 144.266 78.312 143.412L33.6187 117.599C28.712 114.772 24.6587 107.786 24.6587 102.132V51.0925C24.6587 48.1592 25.7254 45.9725 27.5387 44.9058C29.352 43.8925 31.8054 44.1058 34.312 45.4925L79.0054 71.2525C83.912 74.1325 87.912 81.0658 87.912 86.7725V137.812C87.912 140.692 86.8987 142.879 85.032 143.999C84.2854 144.426 83.432 144.639 82.472 144.639Z" fill="#1FE422"/>
<path d="M126.194 44.4315L122.78 42.4582C118.034 39.7382 110.3 35.2582 105.554 32.5382L102.14 30.5649C97.3937 27.7915 89.6604 23.3115 84.9671 20.6449L81.5004 18.6715C79.1537 17.2849 77.0204 17.1249 75.4204 18.0315L27.9004 45.4982C29.5004 44.5915 31.6337 44.6982 33.9804 46.0849L37.3937 48.0582C42.1404 50.7782 49.8737 55.2582 54.6204 57.9782L58.0337 59.9515C62.7804 62.7249 70.5137 67.1515 75.2071 69.9249L78.6737 71.8982C83.4204 74.5649 87.2604 81.2849 87.2604 86.7782V137.818C87.2604 140.538 86.3004 142.458 84.7537 143.312L132.274 115.952C133.82 114.992 134.78 113.072 134.78 110.352V59.3115C134.78 53.8715 130.94 47.2049 126.194 44.4315Z" fill="#2B303E"/>
<path d="M31.294 44.3585C32.3073 44.5184 33.3207 44.9451 34.334 45.4785L79.0273 71.2918C83.934 74.1718 87.934 81.0518 87.934 86.8118V137.852C87.934 139.025 87.774 140.145 87.454 140.998L131.934 115.345C133.321 114.545 134.121 112.785 134.121 110.385V59.3451C134.121 54.1185 130.387 47.6651 125.854 45.1051L81.1607 19.2384C79.134 18.0651 77.1607 17.8518 75.774 18.7051L31.294 44.3585ZM84.734 144.092C84.5207 144.092 84.3073 143.932 84.1473 143.718C83.934 143.398 84.094 143.025 84.414 142.812C85.8007 141.958 86.6007 140.252 86.6007 137.852V86.8118C86.6007 81.5318 82.8673 75.1318 78.334 72.4651L33.6407 46.7051C31.614 45.4785 29.6407 45.3185 28.254 46.1185C27.934 46.2785 27.5073 46.1718 27.3473 45.8518C27.134 45.5318 27.2407 45.1051 27.5607 44.9451L75.0807 17.4784C76.894 16.4651 79.3473 16.6251 81.854 18.0651L126.547 43.8785C131.454 46.7051 135.454 53.6918 135.454 59.3451V110.385C135.454 113.318 134.441 115.505 132.574 116.572L85.054 143.985C84.9473 144.038 84.8407 144.092 84.734 144.092Z" fill="#1FE422"/>
<path d="M82.2261 109.4C82.2261 92.8667 70.5995 72.7601 56.3061 64.5467C42.0128 56.2801 30.4395 63.0001 30.4395 79.4801C30.4395 96.0134 42.0128 116.067 56.3061 124.333C70.5995 132.6 82.2261 125.933 82.2261 109.4Z" fill="#2B303E"/>
<path d="M44.7616 61.704C36.3349 61.704 31.1082 68.5307 31.1082 79.5173C31.1082 95.784 42.5749 115.624 56.7082 123.784C60.6016 126.024 64.3882 127.251 67.9082 127.251C71.9082 127.251 75.3216 125.597 77.7216 122.611C80.2282 119.464 81.5082 114.877 81.5082 109.437C81.5082 93.1173 70.0949 73.2773 55.9616 65.1173C52.0149 62.824 48.2282 61.704 44.7616 61.704ZM67.9082 128.584C64.1749 128.584 60.1749 127.357 55.9616 124.957C41.5082 116.584 29.7749 96.1573 29.7749 79.5173C29.7749 67.8373 35.6416 60.3707 44.7616 60.3707C48.4949 60.3707 52.4949 61.544 56.7082 63.944C71.1616 72.3173 82.8949 92.6907 82.8949 109.437C82.8949 115.251 81.4549 120.104 78.7882 123.464C76.1216 126.824 72.3349 128.584 67.9082 128.584Z" fill="#7370FF"/>
<path d="M36.7644 57.0947C36.7644 55.1747 35.431 52.8814 33.7777 51.9214C32.1243 51.0147 30.791 51.7081 30.791 53.6814C30.791 55.5481 32.1243 57.8947 33.7777 58.8014C35.431 59.7614 36.7644 58.9614 36.7644 57.0947Z" fill="#2B303E"/>
<path d="M32.4208 52.2178C31.5674 52.2178 31.4608 53.2312 31.4608 53.6578C31.4608 55.3112 32.6874 57.4445 34.0741 58.1912C34.4474 58.4045 34.7674 58.5112 35.0874 58.5112C35.3541 58.5112 35.5674 58.4578 35.7274 58.2445C35.9408 57.9778 36.0474 57.6045 36.0474 57.1245C36.0474 55.4712 34.8208 53.3378 33.4341 52.5378C33.0608 52.3245 32.6874 52.2178 32.4208 52.2178ZM35.0874 59.9512C34.5541 59.9512 33.9674 59.7912 33.4341 59.4178C31.5674 58.3512 30.1274 55.7912 30.1274 53.6578C30.1274 51.9512 31.0341 50.8845 32.4208 50.8845C32.9541 50.8845 33.5408 51.0445 34.0741 51.3112C35.9408 52.4312 37.4341 54.9912 37.4341 57.1245C37.4341 57.8712 37.2208 58.6178 36.8474 59.0978C36.3674 59.6312 35.7808 59.9512 35.0874 59.9512Z" fill="#1FE422"/>
<path d="M33.7772 104.016C32.1239 103.056 30.7905 103.802 30.7905 105.722C30.7905 107.589 32.1239 109.936 33.7772 110.896C35.4305 111.802 36.7639 111.056 36.7639 109.189C36.7639 107.269 35.4305 104.976 33.7772 104.016Z" fill="#2B303E"/>
<path d="M32.4208 104.289C31.5674 104.289 31.4608 105.355 31.4608 105.729C31.4608 107.435 32.6874 109.515 34.0741 110.315C34.4474 110.475 34.7674 110.635 35.0874 110.635C35.3541 110.635 35.5674 110.529 35.7274 110.315C35.9408 110.049 36.0474 109.675 36.0474 109.195C36.0474 107.542 34.8208 105.409 33.4341 104.609C33.0608 104.395 32.6874 104.289 32.4208 104.289ZM35.0874 112.022C34.5541 112.022 33.9674 111.862 33.4341 111.489C31.5674 110.422 30.1274 107.862 30.1274 105.729C30.1274 104.075 31.0341 102.955 32.4208 102.955C32.9541 102.955 33.5408 103.115 34.0741 103.382C35.9408 104.502 37.4341 107.062 37.4341 109.195C37.4341 109.942 37.2208 110.689 36.8474 111.169C36.3674 111.702 35.7808 112.022 35.0874 112.022Z" fill="#1FE422"/>
<path d="M81.8429 83.1494C81.8429 81.2294 80.5096 78.9361 78.8563 77.9761C77.203 77.0694 75.8696 77.7628 75.8696 79.7361C75.8696 81.6028 77.203 83.9494 78.8563 84.8561C80.5096 85.8161 81.8429 85.0161 81.8429 83.1494Z" fill="#2B303E"/>
<path d="M77.5522 78.2344C76.6456 78.2344 76.5389 79.3011 76.5389 79.6744C76.5389 81.3278 77.7656 83.4611 79.2056 84.2078C79.5789 84.4211 79.8989 84.5278 80.2189 84.5278C80.4856 84.5278 80.6989 84.4744 80.8589 84.2611C81.0189 83.9944 81.1789 83.6211 81.1789 83.1411C81.1789 81.4878 79.9522 79.3544 78.5122 78.5544C78.1922 78.3411 77.8189 78.2344 77.5522 78.2344ZM80.2189 85.9678C79.6856 85.9678 79.0989 85.8078 78.5122 85.4344C76.6456 84.3678 75.2056 81.8078 75.2056 79.6744C75.2056 77.9678 76.1656 76.9011 77.5522 76.9011C78.0856 76.9011 78.6722 77.0611 79.2056 77.3278C81.0722 78.4478 82.5122 81.0078 82.5122 83.1411C82.5122 83.8878 82.2989 84.6344 81.9256 85.1144C81.4989 85.6478 80.8589 85.9678 80.2189 85.9678Z" fill="#1FE422"/>
<path d="M78.8949 130.07C77.2415 129.11 75.9082 129.91 75.9082 131.776C75.9082 133.643 77.2415 135.99 78.8949 136.95C80.5482 137.856 81.8815 137.11 81.8815 135.243C81.8815 133.323 80.5482 131.03 78.8949 130.07Z" fill="#2B303E"/>
<path d="M77.5522 130.343C76.6456 130.343 76.5389 131.41 76.5389 131.783C76.5389 133.49 77.7656 135.57 79.2056 136.37C79.8989 136.743 80.5389 136.797 80.8589 136.37C81.0189 136.103 81.1789 135.73 81.1789 135.25C81.1789 133.597 79.9522 131.463 78.5122 130.663C78.1922 130.45 77.8189 130.343 77.5522 130.343ZM80.2189 138.077C79.6856 138.077 79.0989 137.917 78.5122 137.543C76.6456 136.477 75.2056 133.917 75.2056 131.783C75.2056 130.13 76.1656 129.01 77.5522 129.01C78.0856 129.01 78.6722 129.17 79.2056 129.49C81.0722 130.557 82.5122 133.117 82.5122 135.25C82.5122 135.997 82.2989 136.743 81.9256 137.223C81.4989 137.757 80.8589 138.077 80.2189 138.077Z" fill="#1FE422"/>
<path d="M51.4812 103.888C50.4679 103.302 49.5612 102.235 49.1345 100.902L45.3479 91.0885L33.7212 84.4218V78.1285L46.9479 85.7018C47.9079 86.2885 48.8145 87.4085 49.2945 88.6885L51.2145 93.7018L58.3079 79.9418C58.7345 79.0885 59.6412 78.9285 60.6545 79.4618C61.6679 79.9951 62.6812 81.2218 63.1612 82.5551L69.0812 98.3951L78.8945 104.048V110.342L67.4279 103.782C66.4679 103.195 65.5612 102.022 65.0279 100.742L60.9745 89.8085L53.9345 103.462C53.5612 104.315 52.6012 104.528 51.5879 103.942C51.5345 103.942 51.4812 103.942 51.4812 103.888Z" fill="#2B303E"/>
<path d="M60.9895 89.1397H61.0429C61.3095 89.1397 61.5229 89.353 61.6295 89.5663L65.6829 100.5C66.1095 101.62 66.9095 102.686 67.7629 103.166L78.1629 109.193V104.446L68.7229 99.0063C68.6162 98.8997 68.5095 98.793 68.4562 98.633L62.5362 82.793C62.1095 81.5663 61.2029 80.4997 60.3495 80.073C59.7095 79.6997 59.1762 79.753 58.9095 80.233L51.8162 93.993C51.7095 94.2597 51.4962 94.4197 51.1762 94.3663C50.9095 94.3663 50.6962 94.2063 50.5895 93.9397L48.6695 88.873C48.2429 87.8063 47.4429 86.793 46.5362 86.2597L34.4295 79.273V83.9663L45.6829 90.473C45.7895 90.5263 45.8962 90.6863 45.9495 90.8463L49.7362 100.713C50.1629 101.78 50.9629 102.793 51.8162 103.326C52.7229 103.753 53.0962 103.646 53.3629 103.166L60.4029 89.513C60.5095 89.2997 60.7229 89.1397 60.9895 89.1397ZM78.8562 111.006C78.7495 111.006 78.6429 111.006 78.5362 110.953L67.1229 104.34C66.0029 103.7 64.9362 102.42 64.4029 100.98L60.9362 91.5397L54.5895 103.753C54.0029 104.926 52.6162 105.3 51.2829 104.553C50.0029 103.806 48.9895 102.58 48.4562 101.193L44.7762 91.5397L33.4162 84.9797C33.2029 84.873 33.0962 84.6597 33.0962 84.393V78.0997C33.0962 77.833 33.2029 77.6197 33.4162 77.513C33.6295 77.353 33.8962 77.353 34.1095 77.513L47.2829 85.0863C48.4029 85.7797 49.3629 87.0063 49.8962 88.393L51.2829 92.0197L57.6829 79.593C58.2695 78.473 59.6562 78.153 60.9895 78.8997C62.1629 79.433 63.2295 80.8197 63.8162 82.313L69.6295 97.9397L79.2295 103.486C79.4429 103.593 79.5495 103.753 79.5495 104.02V110.313C79.5495 110.58 79.4429 110.793 79.2295 110.953C79.1229 111.006 78.9629 111.006 78.8562 111.006Z" fill="#7370FF"/>
</svg>
