<svg width="120" height="120" viewBox="0 0 120 120" fill="none" xmlns="http://www.w3.org/2000/svg">
<path d="M73.1606 92.3716L96.0806 105.612L99.1606 103.812L76.2406 90.5716L73.1606 92.3716Z" fill="white"/>
<path d="M74.1757 92.3865L96.0957 104.986L98.1357 103.826L76.2157 91.2265L74.1757 92.3865ZM96.0957 106.146C95.9757 106.146 95.8957 106.106 95.8557 106.066L72.8957 92.8265C72.7357 92.7465 72.6157 92.5465 72.6157 92.3865C72.6157 92.1865 72.7357 92.0265 72.8957 91.9065L75.9357 90.1465C76.0957 90.0665 76.2957 90.0665 76.4957 90.1465L99.4157 103.386C99.5757 103.466 99.6557 103.666 99.6557 103.826C99.6557 104.026 99.5757 104.186 99.4157 104.306L96.3357 106.066C96.2557 106.106 96.1757 106.146 96.0957 106.146Z" fill="#7370FF"/>
<path d="M99.1596 103.834L96.0796 105.634V75.5938L99.1596 73.8338V103.834Z" fill="white"/>
<path d="M96.5996 75.8989V104.739L98.6396 103.539V74.6989L96.5996 75.8989ZM96.0796 106.139C95.9996 106.139 95.9196 106.099 95.8396 106.059C95.6796 105.979 95.5596 105.779 95.5596 105.619V75.5789C95.5596 75.4189 95.6796 75.2189 95.8396 75.1389L98.8796 73.3789C99.0796 73.2989 99.2396 73.2989 99.3996 73.3789C99.5596 73.4589 99.6796 73.6189 99.6796 73.8189V103.819C99.6796 104.019 99.5596 104.179 99.3996 104.299L96.3596 106.059C96.2796 106.099 96.1596 106.139 96.0796 106.139Z" fill="#7370FF"/>
<path d="M99.1606 73.8372L96.0806 75.5972L73.1606 62.3572L76.2406 60.5972L99.1606 73.8372Z" fill="white"/>
<path d="M74.1757 62.3501L96.0957 74.9901L98.1357 73.8301L76.2157 61.1901L74.1757 62.3501ZM96.0957 76.1101C95.9757 76.1101 95.8957 76.0701 95.8557 76.0301L72.8957 62.7901C72.7357 62.7101 72.6157 62.5501 72.6157 62.3501C72.6157 62.1901 72.7357 61.9901 72.8957 61.9101L75.9357 60.1501C76.0957 60.0301 76.2957 60.0301 76.4957 60.1501L99.4157 73.3901C99.5757 73.4701 99.6557 73.6301 99.6557 73.8301C99.6557 74.0301 99.5757 74.1901 99.4157 74.2701L96.3357 76.0301C96.2557 76.0701 96.1757 76.1101 96.0957 76.1101Z" fill="#7370FF"/>
<path d="M73.1646 62.3465V92.3865L96.0845 105.626V75.5865L73.1646 62.3465Z" fill="white"/>
<path d="M73.6718 92.0738L95.5518 104.714V75.9138L73.6718 63.2338V92.0738ZM96.1118 106.154C95.9918 106.154 95.9118 106.114 95.8318 106.074L72.9118 92.8338C72.7518 92.7538 72.6318 92.5538 72.6318 92.3938V62.3538C72.6318 62.1538 72.7518 61.9938 72.9118 61.9138C73.0718 61.8338 73.2718 61.8338 73.4318 61.9138L96.3518 75.1538C96.5118 75.2338 96.5918 75.3938 96.5918 75.5938V105.634C96.5918 105.794 96.5118 105.994 96.3518 106.074C96.2718 106.114 96.1518 106.154 96.1118 106.154Z" fill="#7370FF"/>
<path d="M51.444 82.1538L46.644 84.8738L82.524 105.634L87.324 102.874L51.444 82.1538Z" fill="white"/>
<path d="M47.6913 84.8845L82.5313 105.005L86.2913 102.845L51.4513 82.7245L47.6913 84.8845ZM82.5313 106.125C82.4513 106.125 82.3713 106.085 82.2913 106.045L46.4113 85.3645C46.2513 85.2445 46.1313 85.0845 46.1313 84.8845C46.1313 84.7245 46.2513 84.5245 46.4113 84.4445L51.1713 81.6845C51.3313 81.6045 51.5313 81.6045 51.6913 81.6845L87.6114 102.365C87.7313 102.485 87.8513 102.645 87.8513 102.845C87.8513 103.045 87.7313 103.205 87.6114 103.285L82.7713 106.045C82.6913 106.085 82.6113 106.125 82.5313 106.125Z" fill="#7370FF"/>
<path d="M87.3239 102.859L82.5239 105.619V58.6592L87.3239 55.8592V102.859Z" fill="white"/>
<path d="M83.0435 58.9318V104.732L86.8034 102.532V56.7718L83.0435 58.9318ZM82.5235 106.132C82.4435 106.132 82.3635 106.092 82.2835 106.052C82.1235 105.972 82.0435 105.772 82.0435 105.612V58.6518C82.0435 58.4518 82.1235 58.2918 82.2835 58.1718L87.0834 55.4118C87.2034 55.3318 87.4034 55.3318 87.6034 55.4118C87.7634 55.5318 87.8434 55.6918 87.8434 55.8518V102.852C87.8434 103.052 87.7634 103.212 87.6034 103.292L82.8035 106.052C82.7235 106.092 82.6035 106.132 82.5235 106.132Z" fill="#1FE422"/>
<path d="M87.324 55.867L82.524 58.627L46.644 37.907L51.444 35.147L87.324 55.867Z" fill="white"/>
<path d="M47.6913 37.9143L82.5313 58.0343L86.2913 55.8743L51.4513 35.7543L47.6913 37.9143ZM82.5313 59.1543C82.4513 59.1543 82.3713 59.1143 82.2913 59.0743L46.4113 38.3543C46.2513 38.2743 46.1313 38.1143 46.1313 37.9143C46.1313 37.7543 46.2513 37.5543 46.4113 37.4743L51.1713 34.7143C51.3313 34.5943 51.5313 34.5943 51.6913 34.7143L87.6114 55.3943C87.7313 55.5143 87.8513 55.6743 87.8513 55.8743C87.8513 56.0343 87.7313 56.2343 87.6114 56.3143L82.7713 59.0743C82.6913 59.1143 82.6113 59.1543 82.5313 59.1543Z" fill="#1FE422"/>
<path d="M46.6602 37.9138V84.8738L82.5402 105.634V58.6338L46.6602 37.9138Z" fill="white"/>
<path d="M47.167 84.6118L82.0469 104.732V58.9318L47.167 38.8118V84.6118ZM82.5269 106.132C82.4469 106.132 82.3669 106.092 82.2869 106.052L46.407 85.3718C46.247 85.2518 46.127 85.0918 46.127 84.8918V37.9318C46.127 37.7318 46.247 37.5718 46.407 37.4518C46.567 37.3718 46.767 37.3718 46.927 37.4518L82.8069 58.1718C82.9669 58.2918 83.0469 58.4518 83.0469 58.6518V105.612C83.0469 105.772 82.9669 105.972 82.8069 106.052C82.7269 106.092 82.6069 106.132 82.5269 106.132Z" fill="#1FE422"/>
<path d="M26.6961 75.3938L20.5361 78.9538L66.6961 105.634L72.8961 102.034L26.6961 75.3938Z" fill="white"/>
<path d="M21.56 78.9477L66.72 104.988L71.88 102.028L26.68 75.9877L21.56 78.9477ZM66.72 106.148C66.64 106.148 66.56 106.108 66.48 106.068L20.28 79.3877C20.12 79.3077 20 79.1077 20 78.9477C20 78.7877 20.12 78.5877 20.28 78.5077L26.44 74.9477C26.6 74.8277 26.8 74.8277 26.96 74.9477L73.16 101.588C73.32 101.668 73.4 101.868 73.4 102.028C73.4 102.228 73.32 102.388 73.16 102.508L67 106.068C66.92 106.108 66.8 106.148 66.72 106.148Z" fill="#7370FF"/>
<path d="M72.888 102.041L66.728 105.641V45.1614L72.888 41.5614V102.041Z" fill="white"/>
<path d="M67.2441 45.4338V104.714L72.3641 101.754V42.4738L67.2441 45.4338ZM66.7241 106.154C66.6441 106.154 66.5241 106.114 66.4441 106.074C66.3241 105.994 66.2041 105.794 66.2041 105.634V45.1538C66.2041 44.9538 66.3241 44.7938 66.4441 44.6738L72.6441 41.1138C72.8041 41.0338 73.0041 41.0338 73.1241 41.1138C73.3241 41.2338 73.4041 41.3938 73.4041 41.5538V102.034C73.4041 102.234 73.3241 102.394 73.1641 102.514L67.0041 106.074C66.9241 106.114 66.8041 106.154 66.7241 106.154Z" fill="#7370FF"/>
<path d="M72.8878 41.5684L66.7278 45.1284L20.5278 18.4484L26.6878 14.8884L72.8878 41.5684Z" fill="white"/>
<path d="M21.56 18.4631L66.72 44.5431L71.88 41.5831L26.68 15.5031L21.56 18.4631ZM66.72 45.6631C66.64 45.6631 66.56 45.6231 66.48 45.5831L20.28 18.9031C20.12 18.8231 20 18.6631 20 18.4631C20 18.3031 20.12 18.1031 20.28 18.0231L26.44 14.4631C26.6 14.3431 26.8 14.3431 26.96 14.4631L73.16 41.1031C73.32 41.2231 73.4 41.3831 73.4 41.5831C73.4 41.7831 73.32 41.9031 73.16 42.0231L67 45.5831C66.92 45.6231 66.8 45.6631 66.72 45.6631Z" fill="#7370FF"/>
<path d="M20.5244 18.4592V78.9391L66.7244 105.619V45.1392L20.5244 18.4592Z" fill="white"/>
<path d="M21.0512 78.6599L66.2112 104.74V45.4199L21.0512 19.3799V78.6599ZM66.7312 106.14C66.6512 106.14 66.5312 106.1 66.4512 106.06L20.2512 79.4199C20.1312 79.2999 20.0112 79.1399 20.0112 78.9399V18.4599C20.0112 18.2999 20.1312 18.0999 20.2512 18.0199C20.4112 17.9399 20.6112 17.9399 20.8112 18.0199L66.9712 44.6999C67.1312 44.7799 67.2512 44.9399 67.2512 45.1399V105.62C67.2512 105.78 67.1312 105.98 66.9712 106.06C66.8912 106.1 66.8112 106.14 66.7312 106.14Z" fill="#7370FF"/>
<path d="M28.0439 54.6732C27.8839 54.5932 27.7239 54.4332 27.6039 54.2732C27.2839 53.7932 27.2439 53.2332 27.4839 52.9932L35.2439 45.7532C35.3639 45.6332 35.5239 45.6332 35.7239 45.7132C35.9239 45.7932 36.1239 45.9932 36.2839 46.2332L42.7239 55.9932L50.6039 47.7932C50.7239 47.6732 50.9239 47.6732 51.1239 47.7532C51.3239 47.8332 51.5239 48.0332 51.6439 48.2732C51.6439 48.2732 55.2039 53.9532 56.3639 55.8732C56.5639 56.2332 57.0039 56.9932 56.6039 57.3132C56.2839 57.6732 55.6439 56.8332 55.4839 56.5932L51.3239 49.9132L43.4439 58.0732C43.3639 58.1932 43.1639 58.2332 42.9639 58.1532C42.7639 58.0732 42.5639 57.9132 42.4039 57.6732L35.9239 47.8332L28.6039 54.6732C28.4839 54.7932 28.2439 54.7932 28.0439 54.6732Z" fill="#1FE422"/>
<path d="M38.5521 48.576C38.5521 50.256 37.3921 50.896 35.9521 50.096C34.5121 49.256 33.3521 47.256 33.3521 45.576C33.3521 43.936 34.5121 43.256 35.9521 44.096C37.3921 44.936 38.5521 46.936 38.5521 48.576Z" fill="#1FE422"/>
<path d="M34.8038 44.2419C33.9638 44.2419 33.8838 45.1619 33.8838 45.6019C33.8838 47.0419 34.9238 48.9219 36.2038 49.6419C36.5238 49.8019 36.8438 49.9219 37.1238 49.9219C37.9638 49.9219 38.0438 49.0019 38.0438 48.5619C38.0438 47.1219 36.9638 45.2419 35.6838 44.5219C35.3637 44.3219 35.0438 44.2419 34.8038 44.2419ZM37.1238 50.9219C36.6438 50.9219 36.2038 50.8019 35.6838 50.5219C34.0837 49.6019 32.8438 47.4419 32.8438 45.6019C32.8438 44.1619 33.6438 43.2419 34.8038 43.2419C35.2438 43.2419 35.7238 43.3619 36.2038 43.6419C37.8038 44.5619 39.0438 46.7219 39.0438 48.5619C39.0438 50.0019 38.2838 50.9219 37.1238 50.9219Z" fill="white"/>
<path d="M35.9562 48.698C35.1962 48.258 34.5562 47.178 34.5562 46.258C34.5562 45.378 35.1962 45.058 35.9562 45.458C36.7162 45.938 37.3562 47.018 37.3562 47.898C37.3562 48.778 36.7162 49.138 35.9562 48.698Z" fill="white"/>
<path d="M35.3322 45.8058C35.1322 45.8058 35.0922 46.0858 35.0922 46.2858C35.0922 46.9658 35.6122 47.8858 36.2122 48.2458C36.3322 48.3258 36.4922 48.3658 36.5722 48.3658C36.8122 48.3658 36.8522 48.0858 36.8522 47.8858C36.8522 47.2058 36.2922 46.2858 35.6922 45.9258C35.5722 45.8458 35.4122 45.8058 35.3322 45.8058ZM36.5722 49.4058C36.2922 49.4058 36.0122 49.2858 35.6922 49.1258C34.7722 48.6058 34.0522 47.3658 34.0522 46.2858C34.0522 45.0458 35.1322 44.4058 36.2122 45.0058C37.1322 45.5658 37.8522 46.8058 37.8522 47.8858C37.8522 48.9258 37.2122 49.4058 36.5722 49.4058Z" fill="#1FE422"/>
<path d="M53.6516 50.5675C53.6516 52.2075 52.4917 52.8875 51.0517 52.0475C49.6117 51.2475 48.4517 49.2075 48.4517 47.5675C48.4517 45.9275 49.6117 45.2475 51.0517 46.0875C52.4917 46.8875 53.6516 48.8875 53.6516 50.5675Z" fill="#1FE422"/>
<path d="M49.8999 46.2341C49.0599 46.2341 48.9799 47.1541 48.9799 47.5541C48.9799 49.0341 50.0599 50.8741 51.2999 51.5941C51.6199 51.7941 51.9399 51.9141 52.2199 51.9141C53.0599 51.9141 53.1399 50.9541 53.1399 50.5541C53.1399 49.1141 52.0599 47.2341 50.7799 46.5141C50.4599 46.3141 50.1799 46.2341 49.8999 46.2341ZM52.2199 52.9141C51.7399 52.9141 51.2999 52.7941 50.7799 52.5141C49.1799 51.5941 47.9399 49.4341 47.9399 47.5541C47.9399 46.1541 48.7399 45.1941 49.8999 45.1941C50.3399 45.1941 50.8199 45.3541 51.2999 45.6341C52.8999 46.5541 54.1399 48.7141 54.1399 50.5541C54.1399 51.9941 53.3799 52.9141 52.2199 52.9141Z" fill="white"/>
<path d="M51.0519 50.6684C50.2919 50.2284 49.6519 49.1484 49.6519 48.2684C49.6519 47.3484 50.2919 47.0284 51.0519 47.4684C51.8119 47.9084 52.4519 48.9884 52.4519 49.8684C52.4519 50.7484 51.8119 51.1084 51.0519 50.6684Z" fill="white"/>
<path d="M50.448 47.776C50.208 47.776 50.208 48.096 50.208 48.256C50.208 48.976 50.728 49.896 51.288 50.256C51.448 50.296 51.568 50.336 51.688 50.336C51.888 50.336 51.928 50.056 51.928 49.856C51.928 49.176 51.408 48.256 50.808 47.896C50.648 47.816 50.528 47.776 50.448 47.776ZM51.688 51.376C51.368 51.376 51.088 51.296 50.808 51.096C49.888 50.576 49.168 49.336 49.168 48.256C49.168 47.216 49.808 46.776 50.448 46.776C50.728 46.776 51.008 46.856 51.288 47.016C52.248 47.536 52.968 48.776 52.968 49.856C52.968 50.896 52.328 51.376 51.688 51.376Z" fill="#1FE422"/>
<path d="M45.4481 58.617C45.4481 60.257 44.2881 60.937 42.8881 60.097C41.4081 59.297 40.2881 57.257 40.2881 55.617C40.2881 53.977 41.4081 53.297 42.8881 54.137C44.2881 54.937 45.4481 56.937 45.4481 58.617Z" fill="#1FE422"/>
<path d="M41.6959 54.2831C40.8559 54.2831 40.7759 55.2031 40.7759 55.6031C40.7759 57.0831 41.8559 58.9231 43.1359 59.6831C43.4159 59.8431 43.7359 59.9631 44.0159 59.9631C44.8559 59.9631 44.9359 59.0031 44.9359 58.6031C44.9359 57.1631 43.8559 55.2831 42.5759 54.5631C42.2959 54.3631 41.9759 54.2831 41.6959 54.2831ZM44.0159 60.9631C43.5759 60.9631 43.0959 60.8431 42.5759 60.5631C41.0159 59.6431 39.7759 57.4831 39.7759 55.6031C39.7759 54.2031 40.5359 53.2431 41.6959 53.2431C42.1359 53.2431 42.6159 53.4031 43.1359 53.6831C44.7359 54.6031 45.9759 56.7631 45.9759 58.6031C45.9759 60.0431 45.1759 60.9631 44.0159 60.9631Z" fill="white"/>
<path d="M42.8683 58.7102C42.0683 58.2702 41.4683 57.1902 41.4683 56.3102C41.4683 55.4302 42.0683 55.0702 42.8683 55.5102C43.6283 55.9502 44.2683 57.0302 44.2683 57.9102C44.2683 58.7902 43.6283 59.1502 42.8683 58.7102Z" fill="white"/>
<path d="M42.2444 55.8253C42.0444 55.8253 42.0044 56.1453 42.0044 56.3053C42.0044 57.0253 42.5244 57.9453 43.1243 58.3053C43.2443 58.3453 43.3643 58.3853 43.4843 58.3853C43.7243 58.3853 43.7643 58.1053 43.7643 57.9053C43.7643 57.2253 43.2043 56.3053 42.6044 55.9453C42.4444 55.8653 42.3244 55.8253 42.2444 55.8253ZM43.4843 59.4253C43.2043 59.4253 42.9243 59.3453 42.6044 59.1453C41.6844 58.6253 40.9644 57.3853 40.9644 56.3053C40.9644 55.0653 42.0444 54.4253 43.1243 55.0653C44.0443 55.5853 44.7643 56.8653 44.7643 57.9053C44.7643 58.9853 44.1243 59.4253 43.4843 59.4253Z" fill="#1FE422"/>
<path d="M27.4604 57.5268L59.3004 75.9268V74.8868L27.4604 56.4868V57.5268Z" fill="#7370FF"/>
<path d="M27.3042 29.7712V57.4512L28.1442 57.9312V30.2512L27.3042 29.7712Z" fill="#7370FF"/>
<path d="M37.2837 69.4404L54.8837 79.6004V80.6804L37.2837 70.4804V69.4404Z" fill="#1FE422"/>
<path d="M31.4438 65.0806L34.4039 66.8006V69.8406L31.4438 68.1206V65.0806Z" fill="white"/>
<path d="M31.9721 67.8181L33.8921 68.9381V67.0981L31.9721 65.9781V67.8181ZM34.4121 70.3381C34.3321 70.3381 34.2521 70.2981 34.1721 70.2981L31.1721 68.5781C31.0521 68.4581 30.9321 68.2981 30.9321 68.0981V65.0981C30.9321 64.8981 31.0521 64.7381 31.1721 64.6181C31.3721 64.5381 31.5721 64.5381 31.7321 64.6181L34.6521 66.3381C34.8121 66.4581 34.9321 66.6181 34.9321 66.8181V69.8181C34.9321 70.0181 34.8121 70.1781 34.6521 70.2981C34.5721 70.2981 34.4921 70.3381 34.4121 70.3381Z" fill="#1FE422"/>
<path d="M37.2837 74.3987L54.8837 84.5587V85.6387L37.2837 75.4387V74.3987Z" fill="#1FE422"/>
<path d="M31.4438 70.0388L34.4039 71.7588V74.7988L31.4438 73.0788V70.0388Z" fill="white"/>
<path d="M31.9721 72.7769L33.8921 73.8969V72.0569L31.9721 70.9369V72.7769ZM34.4121 75.2969C34.3321 75.2969 34.2521 75.2569 34.1721 75.2569L31.1721 73.5369C31.0521 73.4169 30.9321 73.2569 30.9321 73.0569V70.0569C30.9321 69.8569 31.0521 69.6969 31.1721 69.5769C31.3721 69.4969 31.5721 69.4969 31.7321 69.5769L34.6521 71.2969C34.8121 71.4169 34.9321 71.5769 34.9321 71.7769V74.7769C34.9321 74.9769 34.8121 75.1369 34.6521 75.2569C34.5721 75.2569 34.4921 75.2969 34.4121 75.2969Z" fill="#1FE422"/>
<path d="M37.2837 79.3645L54.8837 89.5245V90.6045L37.2837 80.4045V79.3645Z" fill="#1FE422"/>
<path d="M31.4438 75.0046L34.4039 76.6846V79.7646L31.4438 78.0446V75.0046Z" fill="white"/>
<path d="M31.9721 77.7354L33.8921 78.8554V77.0154L31.9721 75.8954V77.7354ZM34.4121 80.2554C34.3321 80.2554 34.2521 80.2154 34.1721 80.1754L31.1721 78.4954C31.0521 78.3754 30.9321 78.2154 30.9321 78.0154V75.0154C30.9321 74.8154 31.0521 74.6554 31.1721 74.5354C31.3721 74.4554 31.5721 74.4554 31.7321 74.5354L34.6521 76.2554C34.8121 76.3354 34.9321 76.5354 34.9321 76.6954V79.7354C34.9321 79.9354 34.8121 80.0954 34.6521 80.1754C34.5721 80.2154 34.4921 80.2554 34.4121 80.2554Z" fill="#1FE422"/>
</svg>
