<svg width="120" height="120" viewBox="0 0 120 120" fill="none" xmlns="http://www.w3.org/2000/svg">
<path d="M86.2401 41.4406C89.1601 43.8406 91.3601 48.0806 91.3601 51.6406C91.3601 48.0806 89.1601 43.8406 86.2401 41.4406ZM39.8801 82.2406C40.9601 82.3206 41.9601 82.2006 42.8401 81.9206C41.9601 82.2006 40.9601 82.3206 39.8801 82.2406ZM36.2001 81.2006C35.7601 81.0006 35.3201 80.7606 34.8801 80.5206C32.2001 78.9606 29.6801 76.6006 27.6401 73.8006C29.6801 76.6006 32.2001 78.9606 34.8801 80.5206C35.3601 80.7606 35.7601 81.0006 36.2001 81.2006C37.0801 81.6006 37.9201 81.8806 38.7201 82.0806C37.9201 81.8806 37.0801 81.6006 36.2001 81.2006ZM22.5201 62.8406C22.2401 61.7606 22.0801 60.6806 22.0001 59.6406C21.9601 59.0806 21.9201 58.5606 21.9201 58.0406C21.9201 56.5206 22.1201 55.1206 22.5201 53.9206C22.7201 53.2806 22.9601 52.6806 23.2801 52.2006C22.9601 52.6806 22.7201 53.2806 22.5201 53.9206C22.1201 55.1206 21.9201 56.5206 21.9201 58.0406C21.9201 58.5606 21.9601 59.0806 22.0001 59.6406C22.0801 60.6806 22.2401 61.7606 22.5201 62.8406C23.1201 65.5606 24.2401 68.2806 25.7201 70.8006C24.2401 68.2806 23.1201 65.5606 22.5201 62.8406ZM26.4001 42.5206H26.2001H26.4001ZM37.7201 46.8406C38.8801 47.7206 40.0401 48.8006 41.1201 49.8806C40.0401 48.8006 38.8801 47.7206 37.7201 46.8406C36.8001 46.1206 35.8401 45.5206 34.8801 44.9606C34.6801 44.8406 34.4801 44.7206 34.2801 44.6406C34.4801 44.7206 34.6801 44.8406 34.8801 44.9606C35.8401 45.5206 36.8001 46.1206 37.7201 46.8406ZM52.2801 21.8406C52.7201 22.0006 53.1201 22.2006 53.6001 22.4406L84.9601 40.5606L53.6001 22.4406C53.1201 22.2006 52.7201 22.0006 52.2801 21.8406C51.8801 21.6806 51.4801 21.6006 51.1201 21.6006C51.4801 21.6006 51.8801 21.6806 52.2801 21.8406ZM95.6001 34.4006L64.2401 16.2806C62.4801 15.2806 60.8801 15.1606 59.7201 15.8406L49.0801 22.0006C47.9201 22.6806 47.1601 24.0806 47.1601 26.1206V43.7206C45.7601 42.4406 44.2801 41.3206 42.7601 40.4406C37.8001 37.5606 33.3601 37.2806 30.1201 39.1606L22.2801 43.7206C19.0401 45.5606 17.0801 49.5606 17.0801 55.2406C17.0801 66.6406 25.0401 80.4806 34.8801 86.1206C39.8001 88.9206 44.2001 89.2006 47.4001 87.3606C48.8001 86.5206 50.0001 85.2806 50.8801 83.6806C50.0001 85.2806 48.8001 86.5206 47.4001 87.3606L51.9601 84.7206C52.4801 85.2006 53.0001 85.6006 53.6001 85.9206L84.9601 104.041C86.7201 105.081 88.3201 105.161 89.4801 104.481C89.8801 104.241 90.2401 103.921 90.5201 103.481C90.2401 103.921 89.8801 104.241 89.4801 104.481L100.12 98.3606C101.28 97.6806 102.04 96.2406 102.04 94.2006V45.4806C102.04 41.4006 99.1201 36.4406 95.6001 34.4006Z" fill="white"/>
<path d="M95.603 34.4295L64.243 16.3095C62.483 15.2695 60.883 15.1895 59.723 15.8695L49.043 22.0295C50.203 21.3495 51.803 21.4295 53.563 22.4695L84.963 40.5495C88.483 42.5895 91.363 47.5895 91.363 51.6695V100.39C91.363 102.43 90.603 103.83 89.483 104.51L100.123 98.3895C101.283 97.7095 102.003 96.2695 102.003 94.2295V45.4695C102.003 41.4295 99.123 36.4695 95.603 34.4295Z" fill="white"/>
<path d="M51.5882 21.1283C52.3082 21.2483 53.0682 21.5683 53.8282 21.9683L85.2282 40.1283C88.9082 42.2083 91.8682 47.3683 91.8682 51.6483V100.368C91.8682 101.248 91.7482 102.048 91.5082 102.728L99.8682 97.8883C100.908 97.2883 101.508 95.9683 101.508 94.2083V45.4483C101.508 41.5683 98.7482 36.8083 95.3482 34.8483L63.9882 16.7283C62.4682 15.8483 60.9882 15.6883 59.9882 16.2883L51.5882 21.1283ZM89.4682 105.008C89.3082 105.008 89.1082 104.928 89.0282 104.768C88.9082 104.528 88.9882 104.208 89.2282 104.048C90.2682 103.448 90.8282 102.128 90.8282 100.368V51.6483C90.8282 47.7283 88.1082 42.9683 84.7082 41.0083L53.3082 22.8883C51.7882 22.0083 50.3482 21.8483 49.3082 22.4483C49.0682 22.6083 48.7482 22.4883 48.6282 22.2483C48.4682 22.0083 48.5482 21.6883 48.7882 21.5683H48.8282L59.4682 15.4083C60.8282 14.6083 62.6282 14.7683 64.5082 15.8483L95.8682 33.9283C99.5482 36.0883 102.508 41.2483 102.508 45.4483V94.2083C102.508 96.3683 101.748 98.0083 100.388 98.7683L89.7482 104.968C89.6682 105.008 89.5482 105.008 89.4682 105.008Z" fill="#7370FF"/>
<path d="M91.3573 100.39C91.3573 102.43 90.6373 103.83 89.4773 104.51C88.3173 105.15 86.7173 105.07 84.9573 104.07L53.5973 85.9499C50.0773 83.9099 47.1973 78.9499 47.1973 74.8699V26.1499C47.1973 24.1099 47.9173 22.6699 49.0773 22.0299C50.2373 21.3099 51.8373 21.4298 53.5973 22.4299L84.9573 40.5499C88.4773 42.5899 91.3573 47.5899 91.3573 51.6299V100.39Z" fill="white"/>
<path d="M50.7499 22.0982C50.1899 22.0982 49.7499 22.2182 49.3099 22.4582C48.2699 23.0582 47.7099 24.3782 47.7099 26.1382V74.8982C47.7099 78.7782 50.4699 83.5782 53.8299 85.4982L85.2299 103.658C86.7099 104.498 88.1899 104.658 89.2299 104.058C90.2699 103.458 90.8299 102.138 90.8299 100.418V51.6582C90.8299 47.7382 88.1099 42.9782 84.7099 41.0182L53.3099 22.8982C52.4299 22.3782 51.5499 22.0982 50.7499 22.0982ZM87.7899 105.418C86.8299 105.418 85.7499 105.138 84.7099 104.538L53.3099 86.4182C49.6699 84.2582 46.6699 79.0982 46.6699 74.8982V26.1382C46.6699 23.9782 47.4299 22.3382 48.7899 21.5782C50.1499 20.7782 51.9899 20.9382 53.8299 22.0182L85.2299 40.1382C88.9099 42.2182 91.8699 47.3782 91.8699 51.6582V100.418C91.8699 102.538 91.1099 104.138 89.7499 104.978C89.1499 105.298 88.5099 105.418 87.7899 105.418Z" fill="#7370FF"/>
<path d="M53.7856 73.4583C52.9456 72.9383 52.2656 71.7783 52.2656 70.8183V29.2983C52.2656 28.3383 52.9456 27.9383 53.7856 28.4583L84.7056 46.2583C85.5456 46.7783 86.2656 47.9783 86.2656 48.9783V90.4183C86.2656 91.3783 85.5456 91.7783 84.7056 91.2983L53.7856 73.4583Z" fill="white"/>
<path d="M53.0983 28.7098C52.8183 28.7098 52.7783 29.0698 52.7783 29.3098V70.7898C52.7783 71.5498 53.3783 72.5898 54.0583 72.9498L84.9783 90.8698C85.1783 90.9898 85.3383 90.9898 85.4183 90.9898C85.6983 90.9898 85.7383 90.6298 85.7383 90.3898V48.9498C85.7383 48.1498 85.1383 47.1098 84.4583 46.7098L53.5383 28.8298C53.3383 28.7498 53.1783 28.7098 53.0983 28.7098ZM85.4183 92.0298C85.0983 92.0298 84.7783 91.9098 84.4583 91.7098L53.5383 73.8698C52.4983 73.2698 51.7383 71.9098 51.7383 70.7898V29.3098C51.7383 28.1898 52.4183 27.7098 53.0983 27.7098C53.4183 27.7098 53.7383 27.7898 54.0583 27.9498L84.9783 45.8298C85.9783 46.3898 86.7783 47.7898 86.7783 48.9498V90.3898C86.7783 91.5098 86.0983 92.0298 85.4183 92.0298Z" fill="#7370FF"/>
<path d="M83.4728 96.842C83.4728 98.362 82.3928 99.002 81.0328 98.242C79.7128 97.482 78.6328 95.602 78.6328 94.042C78.6328 92.522 79.7128 91.882 81.0328 92.682C82.3928 93.402 83.4728 95.282 83.4728 96.842Z" fill="white"/>
<path d="M79.9748 92.8208C79.2148 92.8208 79.1348 93.6608 79.1348 94.0208C79.1348 95.3808 80.1348 97.1008 81.2948 97.7808C81.6148 97.9808 81.8948 98.0608 82.1348 98.0608C82.8948 98.0608 82.9748 97.1808 82.9748 96.8608C82.9748 95.4608 81.9748 93.7408 80.8148 93.1008C80.4948 92.9408 80.2148 92.8208 79.9748 92.8208ZM82.1348 99.0608C81.6948 99.0608 81.2548 98.9408 80.8148 98.6608C79.2948 97.8208 78.1348 95.7808 78.1348 94.0208C78.1348 92.7008 78.8548 91.8208 79.9748 91.8208C80.4148 91.8208 80.8548 91.9408 81.2948 92.1808C82.8148 93.0608 83.9748 95.1008 83.9748 96.8608C83.9748 98.1808 83.2548 99.0608 82.1348 99.0608Z" fill="#7370FF"/>
<path d="M75.6213 92.3153C75.6213 93.8353 74.5413 94.4753 73.1813 93.6753C71.8613 92.9553 70.7812 91.0753 70.7812 89.5153C70.7812 87.9953 71.8613 87.3553 73.1813 88.1153C74.5413 88.8753 75.6213 90.7553 75.6213 92.3153Z" fill="white"/>
<path d="M72.1232 88.28C71.3632 88.28 71.2832 89.12 71.2832 89.48C71.2832 90.84 72.2832 92.56 73.4832 93.24C73.7632 93.4 74.0432 93.52 74.2832 93.52C75.0432 93.52 75.1232 92.64 75.1232 92.32C75.1232 90.92 74.1232 89.2 72.9632 88.56C72.6432 88.36 72.3632 88.28 72.1232 88.28ZM74.2832 94.52C73.8432 94.52 73.4032 94.4 72.9632 94.12C71.4432 93.28 70.2832 91.2 70.2832 89.48C70.2832 88.16 71.0432 87.28 72.1232 87.28C72.5632 87.28 73.0032 87.4 73.4832 87.64C74.9632 88.52 76.1632 90.56 76.1632 92.32C76.1632 93.64 75.4032 94.52 74.2832 94.52Z" fill="#7370FF"/>
<path d="M67.7697 87.7353C67.7697 89.2953 66.6897 89.9353 65.3297 89.1353C64.0097 88.3753 62.9297 86.4953 62.9297 84.9753C62.9297 83.4153 64.0097 82.7753 65.3297 83.5753C66.6897 84.3353 67.7697 86.2153 67.7697 87.7353Z" fill="white"/>
<path d="M64.2716 83.7678C63.5116 83.7678 63.4316 84.6078 63.4316 84.9678C63.4316 86.3278 64.4316 88.0078 65.5916 88.7278C65.9116 88.8878 66.1916 88.9678 66.4316 88.9678C67.1516 88.9678 67.2316 88.1278 67.2316 87.7678C67.2316 86.4078 66.2716 84.6878 65.1116 84.0478C64.7916 83.8478 64.5116 83.7678 64.2716 83.7678ZM66.4316 90.0078C65.9916 90.0078 65.5516 89.8478 65.1116 89.6078C63.5916 88.7278 62.4316 86.6878 62.4316 84.9678C62.4316 83.6078 63.1516 82.7278 64.2716 82.7278C64.6716 82.7278 65.1116 82.8878 65.5916 83.1278C67.1116 84.0078 68.2716 86.0478 68.2716 87.7678C68.2716 89.1278 67.5516 90.0078 66.4316 90.0078Z" fill="#7370FF"/>
<path d="M59.8888 83.1948C59.8888 84.7548 58.8088 85.3948 57.4488 84.5948C56.1288 83.8348 55.0488 81.9548 55.0488 80.4348C55.0488 78.8748 56.1288 78.2348 57.4488 79.0348C58.8088 79.7948 59.8888 81.6748 59.8888 83.1948Z" fill="white"/>
<path d="M56.3908 79.2373C55.6308 79.2373 55.5508 80.0773 55.5508 80.4373C55.5508 81.7573 56.5508 83.4773 57.7108 84.1573C58.0308 84.3573 58.3108 84.4373 58.5508 84.4373C59.2708 84.4373 59.3508 83.5573 59.3508 83.2373C59.3508 81.8373 58.3908 80.1573 57.2308 79.4773C56.9108 79.3173 56.6308 79.2373 56.3908 79.2373ZM58.5508 85.4373C58.1108 85.4373 57.6708 85.3173 57.2308 85.0773C55.7108 84.1973 54.5508 82.1573 54.5508 80.4373C54.5508 79.0773 55.2708 78.1973 56.3908 78.1973C56.8308 78.1973 57.2708 78.3573 57.7108 78.5573C59.2308 79.4773 60.3908 81.5173 60.3908 83.2373C60.3908 84.5573 59.6708 85.4373 58.5508 85.4373Z" fill="#7370FF"/>
<path d="M81.4703 53.1816L57.0703 39.0616V37.5816L81.4703 51.7016V53.1816Z" fill="#7370FF"/>
<path d="M81.4703 57.4001L57.0703 43.3202V41.8402L81.4703 55.9601V57.4001Z" fill="#7370FF"/>
<path d="M81.4703 61.6487L57.0703 47.5287V46.0887L81.4703 60.1687V61.6487Z" fill="#7370FF"/>
<path d="M81.4703 65.897L57.0703 51.777V50.297L81.4703 64.417V65.897Z" fill="#7370FF"/>
<path d="M81.4703 70.1157L57.0703 55.9957V54.5557L81.4703 68.6757V70.1157Z" fill="#7370FF"/>
<path d="M81.4703 74.3923L57.0703 60.2723V58.7923L81.4703 72.9123V74.3923Z" fill="#7370FF"/>
<path d="M81.4703 78.6113L57.0703 64.5313V63.0513L81.4703 77.1713V78.6113Z" fill="#7370FF"/>
<path d="M78.1903 80.9551L57.0703 68.7551V67.2751L78.1903 79.5151V80.9551Z" fill="#7370FF"/>
<path d="M34.8741 80.514C27.7141 76.354 21.9141 66.354 21.9141 58.034C21.9141 53.914 23.3541 51.034 25.7141 49.674L33.5541 45.114C31.1941 46.474 29.7541 49.394 29.7541 53.514C29.7541 61.794 35.5541 71.874 42.7141 75.994C46.2741 78.034 49.4741 78.194 51.7941 76.874L43.9541 81.394C41.6341 82.754 38.4341 82.594 34.8741 80.514Z" fill="white"/>
<path d="M30.656 47.4405L25.976 50.1205C23.696 51.4405 22.416 54.2805 22.416 58.0805C22.416 66.1605 28.136 76.0405 35.136 80.0805C38.376 81.9605 41.456 82.2805 43.736 80.9605L48.416 78.2805C46.536 78.2805 44.536 77.6405 42.456 76.4805C35.176 72.2405 29.256 61.9605 29.256 53.5205C29.256 51.1205 29.736 49.0405 30.656 47.4405ZM40.616 82.8005C38.736 82.8005 36.736 82.2005 34.656 81.0005C27.336 76.7605 21.416 66.5205 21.416 58.0805C21.416 53.8805 22.856 50.7605 25.456 49.2405L33.296 44.7205C33.536 44.5605 33.856 44.6805 34.016 44.9205C34.136 45.1205 34.056 45.4405 33.816 45.6005C31.536 46.9205 30.296 49.7605 30.296 53.5205C30.296 61.6005 35.976 71.5205 42.976 75.5605C46.256 77.4405 49.296 77.7605 51.536 76.4805C51.816 76.3205 52.136 76.4005 52.256 76.6005C52.416 76.8805 52.336 77.2005 52.096 77.3605H52.056L44.216 81.8405C43.136 82.4805 41.936 82.8005 40.616 82.8005Z" fill="#7370FF"/>
<path d="M38.8105 78.2577C31.6505 74.0977 25.8105 64.0977 25.8105 55.7777C25.8105 51.6577 27.2905 48.7777 29.6505 47.4177C31.9705 46.0577 35.2105 46.2577 38.8105 48.3377C43.7705 51.1777 48.0106 56.8977 50.2106 62.8577C51.1706 65.5377 51.7706 68.2177 51.7706 70.7777C51.7706 73.3377 51.1706 75.3777 50.2106 76.8977C49.5706 77.8577 48.8106 78.6177 47.8906 79.1377C45.5306 80.4977 42.3706 80.3377 38.8105 78.2577Z" fill="white"/>
<path d="M33.0218 47.0359C31.8618 47.0359 30.8218 47.3159 29.9018 47.8759C27.6218 49.1959 26.3418 51.9959 26.3418 55.7959C26.3418 63.8759 32.0618 73.7559 39.0618 77.8359C42.3018 79.6759 45.3818 79.9959 47.6218 78.7159C48.5018 78.1959 49.1818 77.5159 49.7818 76.5959C50.7818 75.0359 51.2618 73.0359 51.2618 70.7959C51.2618 68.4359 50.7418 65.8359 49.7018 62.9959C47.4618 56.9159 43.1818 51.4359 38.5818 48.7559C36.5818 47.6359 34.7418 47.0359 33.0218 47.0359ZM44.5418 80.5159C42.6618 80.5159 40.6218 79.9159 38.5418 78.7159C31.2618 74.5159 25.3418 64.2359 25.3418 55.7959C25.3418 51.5959 26.7818 48.4759 29.3818 46.9559C31.9818 45.4759 35.4618 45.7959 39.0618 47.8759C43.9018 50.6759 48.3818 56.3159 50.6618 62.6759C51.7418 65.5959 52.3018 68.3159 52.3018 70.7959C52.3018 73.2759 51.7418 75.4359 50.6218 77.1559C49.9818 78.1959 49.1418 79.0359 48.1418 79.5559C47.1018 80.1959 45.8618 80.5159 44.5418 80.5159Z" fill="#1FE422"/>
<path d="M34.8949 44.9814C29.9749 42.1414 25.4949 41.8614 22.2949 43.7414L30.1349 39.1814C33.3349 37.3414 37.8149 37.5814 42.7349 40.4614C50.4549 44.9014 56.9349 54.3014 59.4149 63.6614L51.5749 68.1814C49.0949 58.8614 42.5749 49.4214 34.8949 44.9814Z" fill="white"/>
<path d="M26.9308 41.9999C29.4908 41.9999 32.2908 42.8399 35.1708 44.4799C42.5308 48.7599 49.2108 57.8799 51.9308 67.3999L58.8508 63.3999C56.2108 54.0799 49.6908 45.0399 42.4908 40.8799C37.8908 38.2399 33.5708 37.7999 30.3708 39.5999L26.2108 42.0399C26.4508 41.9999 26.6908 41.9999 26.9308 41.9999ZM51.6108 68.6799C51.5308 68.6799 51.4508 68.6799 51.4108 68.6399C51.2508 68.5999 51.1308 68.4399 51.0908 68.2799C48.5708 58.8399 41.9308 49.5999 34.6508 45.3999C30.0908 42.7999 25.7308 42.3199 22.5708 44.1599H22.5308C22.2908 44.3199 21.9708 44.2399 21.8508 43.9599C21.6908 43.7199 21.7708 43.3999 22.0108 43.2399L29.8908 38.7199C33.3708 36.7199 38.0908 37.1599 43.0108 39.9999C50.5308 44.3599 57.3308 53.7999 59.9308 63.5199C60.0108 63.7199 59.8908 63.9999 59.6908 64.1199L51.8508 68.5999C51.7708 68.6799 51.6908 68.6799 51.6108 68.6799Z" fill="#1FE422"/>
<path d="M59.4316 77.6918L51.5916 82.1718C50.6716 84.5718 49.2716 86.2918 47.4316 87.3718L55.2716 82.8518C57.0716 81.7718 58.5516 80.0518 59.4316 77.6918Z" fill="white"/>
<path d="M51.9891 82.5787C51.6691 83.3787 51.2691 84.0987 50.8291 84.8187L54.9891 82.3787C56.3091 81.6187 57.4291 80.4187 58.2691 78.9387L51.9891 82.5787ZM47.3891 87.8987C47.2291 87.8987 47.0291 87.7787 46.9491 87.6187C46.7891 87.3787 46.9091 87.0587 47.1091 86.8987C48.9091 85.8987 50.2291 84.2587 51.1091 82.0187C51.1491 81.8987 51.1891 81.8187 51.3091 81.7387L59.1491 77.2187C59.3491 77.0987 59.5891 77.1387 59.7491 77.2587C59.9091 77.4187 59.9891 77.6587 59.9091 77.8587C58.9491 80.2587 57.4291 82.1387 55.4691 83.2987L47.6691 87.8187C47.5891 87.8587 47.4691 87.8987 47.3891 87.8987Z" fill="#1FE422"/>
<path d="M59.4318 63.6513L51.5918 68.1713L66.1118 76.5312L73.9518 72.0513L59.4318 63.6513Z" fill="white"/>
<path d="M52.6245 68.1681L66.1045 75.9281L72.9045 72.0481L59.4245 64.2081L52.6245 68.1681ZM66.1045 77.0881C65.9845 77.0881 65.9045 77.0481 65.8245 77.0081L51.3445 68.6081C51.1445 68.5281 51.0645 68.3681 51.0645 68.1681C51.0645 67.9681 51.1445 67.8081 51.3445 67.7281L59.1845 63.2081C59.3045 63.0881 59.5045 63.0881 59.6645 63.2081L74.1845 71.5681C74.3445 71.6481 74.4245 71.8481 74.4245 72.0481C74.4245 72.2081 74.3445 72.3681 74.1845 72.4481L66.3445 77.0081C66.2645 77.0481 66.1845 77.0881 66.1045 77.0881Z" fill="#1FE422"/>
<path d="M73.9338 72.0342L66.0938 76.5142V90.5942L73.9338 86.0742V72.0342Z" fill="white"/>
<path d="M66.6064 76.8518V89.6918L73.4064 85.7718V72.8918L66.6064 76.8518ZM66.0864 91.0918C66.0064 91.0918 65.9264 91.0918 65.8064 91.0118C65.6864 90.9718 65.5664 90.8118 65.5664 90.6118V76.5318C65.5664 76.3718 65.6864 76.1718 65.8064 76.0918L73.6864 71.5718C73.8464 71.4918 74.0464 71.4918 74.1664 71.5718C74.3264 71.6518 74.4464 71.8518 74.4464 72.0518V86.0518C74.4464 86.2518 74.3264 86.4118 74.1664 86.4918L66.3664 91.0118C66.2864 91.0918 66.1664 91.0918 66.0864 91.0918Z" fill="#1FE422"/>
<path d="M43.9708 81.4049C41.6508 82.7249 38.4508 82.5649 34.8908 80.5249C27.7308 76.3649 21.9308 66.3249 21.9308 58.0449C21.9308 53.9249 23.3708 51.0049 25.6908 49.6449C28.0508 48.3249 31.2908 48.5249 34.8908 50.5649C39.8108 53.4449 44.0908 59.1249 46.2908 65.1249C47.2508 67.7649 47.8508 70.4849 47.8508 73.0449C47.8508 75.5649 47.2508 77.6049 46.2908 79.1249C45.6508 80.1249 44.8908 80.8449 43.9708 81.4049ZM66.0908 90.5649V76.5249L51.5708 68.1649C49.0908 58.8449 42.5708 49.4049 34.8908 44.9649C29.9708 42.1249 25.4908 41.8449 22.2908 43.7249C19.0508 45.5649 17.0508 49.5649 17.0508 55.2449C17.0508 66.6449 25.0108 80.4849 34.8908 86.1249C39.8108 88.9249 44.1708 89.2049 47.4108 87.3649C49.2508 86.2849 50.6508 84.5649 51.5708 82.2049L66.0908 90.5649Z" fill="white"/>
<path d="M29.1022 49.2923C27.9422 49.2923 26.9022 49.5723 25.9822 50.1323C23.7022 51.4123 22.4222 54.2523 22.4222 58.0523C22.4222 66.1323 28.1422 76.0123 35.1422 80.0923C38.3822 81.9323 41.4622 82.2523 43.7422 80.9323C44.5822 80.4523 45.3022 79.7723 45.8622 78.8523C46.8622 77.2923 47.3822 75.3323 47.3822 73.0523C47.3822 70.6923 46.8222 68.0923 45.7822 65.2523C43.5822 59.1723 39.3022 53.6923 34.6622 51.0123C32.7022 49.8923 30.8222 49.2923 29.1022 49.2923ZM40.6222 82.7723C38.7422 82.7723 36.7422 82.1723 34.6622 80.9723C27.3422 76.7723 21.4222 66.4923 21.4222 58.0523C21.4222 53.8523 22.8622 50.7323 25.4622 49.2123C28.0622 47.7323 31.5422 48.0523 35.1422 50.1323C39.9822 52.9323 44.4622 58.5723 46.7822 64.9323C47.8222 67.8523 48.3822 70.5723 48.3822 73.0523C48.3822 75.5323 47.8222 77.6923 46.7022 79.4123C46.0622 80.4523 45.2222 81.2923 44.2222 81.8123C43.1822 82.4523 41.9422 82.7723 40.6222 82.7723ZM51.5822 81.6923C51.6622 81.6923 51.7822 81.7323 51.8622 81.7723L65.5822 89.6923V76.8123L51.3422 68.5723C51.2222 68.5323 51.1422 68.4523 51.1022 68.2923C48.5822 58.8123 41.9422 49.6123 34.6622 45.3723C30.0622 42.7723 25.7422 42.2923 22.5422 44.1323C19.3422 46.0123 17.5822 49.9323 17.5822 55.2123C17.5822 66.4523 25.4622 80.0923 35.1422 85.6923C39.7022 88.3323 44.0222 88.7323 47.1422 86.8923C48.9022 85.8923 50.2622 84.2123 51.1022 82.0123C51.1822 81.8523 51.3022 81.7723 51.4222 81.7323C51.5022 81.7323 51.5422 81.6923 51.5822 81.6923ZM66.1022 91.0923C66.0222 91.0923 65.9422 91.0923 65.8222 91.0123L51.8622 82.9323C50.9022 85.0923 49.4622 86.7723 47.6622 87.8123C44.1822 89.8123 39.5022 89.3723 34.6622 86.5723C24.6622 80.8123 16.5422 66.7723 16.5822 55.2123C16.5822 49.5723 18.5022 45.2923 22.0222 43.2523C25.5422 41.2523 30.2622 41.6923 35.1422 44.4923C42.6222 48.8123 49.4222 58.1723 52.0222 67.8123L66.3822 76.0923C66.5422 76.1723 66.6222 76.3723 66.6222 76.5323V90.5723C66.6222 90.7723 66.5422 90.9323 66.3822 91.0123C66.3022 91.0923 66.1822 91.0923 66.1022 91.0923Z" fill="#1FE422"/>
</svg>
