<svg width="160" height="161" viewBox="0 0 160 161" fill="none" xmlns="http://www.w3.org/2000/svg">
<path d="M74.9461 114.468C74.9461 123.215 77.4528 130.521 82.5195 134.735C77.4528 130.521 74.9461 123.215 74.9461 114.468ZM26.3595 90.6814C26.5728 94.7881 27.3728 98.5214 28.7595 101.721C27.3728 98.5214 26.5728 94.7881 26.3595 90.6814ZM148.866 108.975C148.546 109.028 148.279 109.135 147.959 109.295C148.279 109.135 148.546 109.028 148.866 108.975ZM151.746 109.188L148.546 107.321C150.413 100.548 149.666 94.4148 146.359 91.2681C147.106 84.2281 145.773 77.9881 142.413 74.0948C142.146 64.7614 138.893 57.2414 132.599 53.6148L122.946 48.0681C114.946 43.4281 103.959 46.2014 93.6128 54.0948C94.7328 42.0414 91.5328 31.9614 83.9061 27.5881L74.3061 21.9881C68.0661 18.4148 59.9595 19.3214 51.7461 23.6414C46.6795 22.5214 40.5461 24.3881 34.6261 28.5481C30.0928 26.3081 23.7995 28.7614 18.3595 34.2548L16.5461 33.1881C13.9861 31.6948 9.87945 34.0948 7.31945 38.5214C4.81279 42.8948 4.81279 47.6414 7.31945 49.0814L9.18612 50.2014C7.10612 57.6681 8.17279 64.3348 12.3328 67.0548C11.6928 74.3081 13.1328 80.5481 16.7061 84.4414C17.0261 93.6681 20.2795 101.135 26.5195 104.708L36.1728 110.308C44.1728 114.948 55.1595 112.175 65.5594 104.228C64.3861 116.335 67.5861 126.415 75.1595 130.788L84.8661 136.335C91.1061 140.015 99.2661 139.055 107.479 134.628C112.546 135.588 118.519 133.561 124.333 129.455C128.706 130.735 134.413 128.281 139.373 123.268L142.573 125.135C141.613 124.601 141.026 123.588 140.759 122.308C141.026 123.588 141.613 124.601 142.573 125.135C145.079 126.628 149.239 124.281 151.746 119.855C154.306 115.481 154.306 110.681 151.746 109.188Z" fill="#2B303E"/>
<path d="M7.35945 38.4977C9.86612 34.071 14.0261 31.7244 16.5328 33.1644L26.2395 38.7644C23.6795 37.271 19.5728 39.671 17.0128 44.0444C14.4528 48.471 14.4528 53.2177 17.0128 54.6577L7.35945 49.111C4.79945 47.6177 4.79945 42.9244 7.35945 38.4977Z" fill="#2B303E"/>
<path d="M14.852 33.4266C12.612 33.4266 9.78528 35.6666 7.91862 38.8666C5.62528 42.8666 5.51862 47.2932 7.70528 48.5199L14.6919 52.5199C14.4786 51.9332 14.4253 51.2399 14.4253 50.4399C14.4253 48.3599 15.1186 45.9599 16.3986 43.7199C18.1586 40.6799 20.7719 38.4399 23.172 37.7999L16.1853 33.7999C15.812 33.5332 15.332 33.4266 14.852 33.4266ZM16.9853 55.3999C16.8786 55.3999 16.772 55.3466 16.6653 55.2932L7.01195 49.7466C4.07862 48.0399 3.97195 42.9732 6.74528 38.1199C8.87862 34.5466 12.132 32.0932 14.852 32.0932C15.5986 32.0932 16.292 32.2532 16.8786 32.5732L26.5319 38.1732C26.8519 38.3332 27.012 38.7599 26.7986 39.0799C26.5853 39.3999 26.1586 39.5066 25.892 39.3466C23.7053 38.1199 19.8653 40.5199 17.572 44.4132C16.3986 46.4399 15.7586 48.5732 15.7586 50.4399C15.7586 52.1999 16.292 53.4266 17.252 54.0666C17.5186 54.1732 17.732 54.4399 17.732 54.6532C17.732 55.0799 17.3586 55.3466 17.0386 55.3999H16.9853Z" fill="#7370FF"/>
<path d="M17.007 54.6822C19.567 56.1756 23.6736 53.7756 26.2336 49.3489C28.7403 44.9756 28.7403 40.2289 26.2336 38.7889C23.6736 37.2956 19.567 39.6956 17.007 44.0689C14.5003 48.4956 14.5003 53.2422 17.007 54.6822Z" fill="#2B303E"/>
<path d="M24.5038 39.0286C22.2638 39.0286 19.4372 41.2686 17.5705 44.4686C16.3972 46.4953 15.7572 48.6286 15.7572 50.4953C15.7572 52.2553 16.3438 53.5353 17.3038 54.1219C19.4905 55.4019 23.3838 52.9486 25.6238 49.0553C26.7438 47.0286 27.4372 44.8419 27.4372 42.9753C27.4372 41.2686 26.8505 39.9886 25.8372 39.4019C25.4638 39.1353 24.9838 39.0286 24.5038 39.0286ZM18.6905 55.8286C17.9438 55.8286 17.2505 55.6686 16.6638 55.3486C15.1705 54.4953 14.4238 52.7886 14.4238 50.4953C14.4238 48.4153 15.1172 46.0153 16.3972 43.7753C18.4772 40.1486 21.7305 37.6953 24.5038 37.6953C25.2505 37.6953 25.9438 37.8553 26.5305 38.1753C27.9705 39.0286 28.7705 40.7353 28.7705 42.9753C28.7705 45.1086 28.0772 47.5086 26.7972 49.7486C24.6638 53.4286 21.4105 55.8286 18.6905 55.8286Z" fill="#1FE422"/>
<path d="M12.7748 41.6175C18.9081 31.0042 28.8814 25.1909 35.0681 28.7642L44.7214 34.3109C38.5348 30.7909 28.5614 36.5509 22.4281 47.1642C16.2414 57.8842 16.2414 69.4042 22.4281 72.9775L12.7748 67.3775C6.5881 63.8042 6.5881 52.2842 12.7748 41.6175Z" fill="#2B303E"/>
<path d="M30.9374 28.4149C25.124 28.4149 18.0307 33.8549 13.3374 41.9616C10.404 47.0283 8.80404 52.4683 8.80404 57.2149C8.80404 61.7483 10.3507 65.2149 13.124 66.7616L18.724 70.0149C17.6574 68.0949 17.124 65.6416 17.124 62.7616C17.124 57.7483 18.7774 52.1483 21.8174 46.8683C26.6707 38.4416 34.084 32.7883 40.324 32.6283L34.6707 29.3749C33.604 28.7349 32.324 28.4149 30.9374 28.4149ZM22.404 73.6416C22.2974 73.6416 22.1374 73.5883 22.0307 73.5349L12.3774 67.9883C9.2307 66.1749 7.4707 62.2816 7.4707 57.2149C7.4707 52.2016 9.12404 46.5483 12.164 41.3216C17.0707 32.7883 24.644 27.0283 30.9374 27.0283C32.5907 27.0283 34.084 27.4016 35.364 28.2016L45.0174 33.7483C45.3907 33.9616 45.444 34.3349 45.284 34.7083C45.124 35.0283 44.6974 35.0816 44.324 34.9216C43.2574 34.2816 41.9774 33.9616 40.5907 33.9616C34.7774 33.9616 27.684 39.4549 22.9907 47.5616C20.0574 52.6283 18.5107 58.0149 18.5107 62.7616C18.5107 67.2949 19.9507 70.6549 22.6707 72.3083C22.9374 72.4149 23.1507 72.6816 23.1507 72.9483C23.1507 73.3216 22.8307 73.5883 22.404 73.6416Z" fill="#1FE422"/>
<path d="M22.4223 72.9598C28.6089 76.4798 38.5823 70.7198 44.7156 60.0531C50.9023 49.4398 50.9023 37.8664 44.7156 34.3464V34.2931C38.5823 30.7731 28.6089 36.5331 22.4223 47.1998C16.2889 57.8664 16.2889 69.3864 22.4223 72.9598Z" fill="#2B303E"/>
<path d="M22.8115 72.403C23.9315 73.043 25.1582 73.363 26.5449 73.363C32.3582 73.363 39.4515 67.8696 44.1449 59.763C50.0649 49.4163 50.2249 38.323 44.4115 34.963C44.4115 34.963 44.4115 34.963 44.3582 34.9096C43.2915 34.323 42.0115 34.003 40.6249 34.003C34.8115 34.003 27.7182 39.443 23.0249 47.5496C20.0915 52.6163 18.4915 58.003 18.4915 62.7496C18.4915 67.3363 20.0382 70.803 22.8115 72.3496V72.403ZM26.5449 74.6963C24.8915 74.6963 23.3982 74.323 22.0649 73.523C18.8649 71.6563 17.1582 67.8696 17.1582 62.7496C17.1582 57.7896 18.8115 52.1363 21.8515 46.8563C26.7582 38.323 34.3315 32.6163 40.6249 32.6163C42.2249 32.6163 43.7182 32.9896 45.0515 33.7363C51.5582 37.4696 51.6649 49.4163 45.3182 60.403C40.4115 68.9896 32.8382 74.6963 26.5449 74.6963Z" fill="#1FE422"/>
<path d="M19.5973 45.5792C29.4639 28.5125 45.4106 19.2859 55.2239 24.9925L64.8773 30.5392C55.0639 24.8859 39.0639 34.1125 29.2506 51.1259C19.3839 68.1925 19.3839 86.6459 29.2506 92.3525L19.5973 86.7525C9.7306 81.0459 9.7306 62.6459 19.5973 45.5792Z" fill="#2B303E"/>
<path d="M48.6872 24.0028C39.1938 24.0028 27.7272 32.8561 20.1538 45.9761C10.5538 62.6161 10.4472 80.6961 19.9405 86.1894L24.5272 88.8028C22.3405 85.6028 21.1672 81.2828 21.1672 76.0028C21.1672 68.1628 23.8338 59.2028 28.6338 50.7761C36.7405 36.7494 49.3805 27.5228 59.5138 28.2694L54.9272 25.6028C53.0605 24.5361 50.9805 24.0028 48.6872 24.0028ZM29.2205 93.0161C29.1138 93.0161 29.0072 92.9628 28.9005 92.9094H28.8472L19.2472 87.3628C9.06052 81.4961 8.95385 62.6161 18.9805 45.2294C26.8205 31.7361 38.7138 22.6694 48.6872 22.6694C51.2472 22.6694 53.5405 23.2561 55.5672 24.4294L65.2205 29.9761C65.5405 30.1894 65.6472 30.6161 65.4872 30.9361C65.3272 31.2561 64.9005 31.3628 64.5272 31.1494C62.7138 30.1361 60.6338 29.5494 58.3405 29.5494C48.8472 29.5494 37.4338 38.4028 29.8072 51.5228C25.1138 59.6294 22.5538 68.3761 22.5538 76.0028C22.5538 83.4694 25.0072 89.0161 29.4872 91.6828C29.7538 91.7894 29.9672 92.0561 29.9672 92.3761C29.9672 92.7494 29.6472 92.9094 29.2738 93.0161H29.2205Z" fill="#1FE422"/>
<path d="M29.2457 92.3639C19.379 86.6572 19.379 68.2039 29.2457 51.1906C39.1124 34.1239 55.059 24.8972 64.8724 30.5506C74.7924 36.2572 74.7924 54.7106 64.8724 71.7239C55.059 88.8439 39.1124 98.0172 29.2457 92.3639Z" fill="#2B303E"/>
<path d="M58.355 29.5377C48.8616 29.5377 37.395 38.391 29.8216 51.511C20.2216 68.1511 20.115 86.2311 29.555 91.7244C31.4216 92.7377 33.5016 93.3244 35.795 93.3244C45.2883 93.3244 56.755 84.4711 64.3283 71.4044C69.0216 63.191 71.635 54.4977 71.635 46.871C71.635 39.351 69.1283 33.751 64.5416 31.1377C62.7283 30.071 60.6483 29.5377 58.355 29.5377ZM35.795 94.6577C33.235 94.6577 30.9416 94.0177 28.915 92.8977C23.9016 90.0177 21.1816 83.991 21.1816 75.991C21.1816 68.0977 23.8483 59.1377 28.6483 50.7644C36.435 37.271 48.3816 28.2044 58.355 28.2044C60.8616 28.2044 63.2083 28.7377 65.235 29.911C70.2483 32.8444 72.9683 38.8177 72.9683 46.871C72.9683 54.7644 70.3016 63.671 65.5016 72.0444C57.715 85.5377 45.7683 94.6577 35.795 94.6577Z" fill="#1FE422"/>
<path d="M26.5313 49.5746C39.7047 26.748 61.0913 14.3746 74.318 22.0013L83.918 27.548C70.7447 19.9746 49.358 32.2946 36.1847 55.1213C23.0113 78.0013 23.0113 102.695 36.1847 110.321L26.5313 104.721C13.3047 97.148 13.3047 72.4546 26.5313 49.5746Z" fill="#2B303E"/>
<path d="M65.533 20.4258C52.733 20.4258 37.3197 32.2658 27.133 49.9192C20.8397 60.8525 17.3197 72.5858 17.3197 82.8258C17.3197 93.0125 20.733 100.533 26.8663 104.159L30.7063 106.346C27.3997 102.026 25.5863 95.8925 25.5863 88.4258C25.5863 77.9192 29.1597 65.9725 35.613 54.8258C46.013 36.7458 61.9063 24.6392 75.1863 24.6392C76.093 24.6392 76.9463 24.6925 77.7463 24.7992L73.9597 22.6125C71.453 21.1725 68.6263 20.4258 65.533 20.4258ZM36.1997 110.986C36.093 110.986 35.933 110.986 35.8263 110.879L26.2263 105.333C19.613 101.493 15.9863 93.5458 15.9863 82.8258C15.9863 72.3192 19.5063 60.4258 25.9597 49.2792C36.3597 31.1992 52.253 19.0925 65.533 19.0925C68.893 19.0925 71.9863 19.8392 74.653 21.4392L84.3063 26.9858C84.6263 27.1458 84.733 27.5725 84.5197 27.8925C84.3597 28.2125 83.933 28.3192 83.613 28.1592C81.1063 26.7192 78.2797 25.9725 75.1863 25.9725C62.3863 25.9725 46.973 37.8658 36.7863 55.5192C30.493 66.4525 26.973 78.1858 26.973 88.4258C26.973 98.5058 30.333 106.079 36.4663 109.599C36.6797 109.706 36.893 109.973 36.893 110.293C36.893 110.666 36.6263 110.986 36.253 110.986H36.1997Z" fill="#1FE422"/>
<path d="M36.1788 110.296C23.0055 102.669 23.0055 78.0293 36.1788 55.1493C49.4055 32.3226 70.7388 19.9493 83.9655 27.576C97.1388 35.2026 97.1388 59.896 83.9655 82.7226C70.7388 105.549 49.4055 117.923 36.1788 110.296Z" fill="#2B303E"/>
<path d="M75.1957 26.0119C62.3957 26.0119 46.9824 37.8519 36.7957 55.5053C30.5024 66.4386 26.9824 78.1719 26.9824 88.4119C26.9824 98.5986 30.3957 106.119 36.529 109.745C39.0357 111.132 41.8624 111.879 45.009 111.879C57.7557 111.879 73.169 100.039 83.3557 82.3853C96.3157 59.8786 96.4224 35.6119 83.6224 28.1986C81.1157 26.7586 78.289 26.0119 75.1957 26.0119ZM45.009 113.212C41.649 113.212 38.5557 112.465 35.8357 110.865C29.2757 107.079 25.5957 99.1319 25.5957 88.4119C25.5957 77.9053 29.169 66.0119 35.6224 54.8653C46.0224 36.7853 61.9157 24.6786 75.1957 24.6786C78.5557 24.6786 81.5957 25.4253 84.3157 26.9719C97.809 34.8119 97.9157 59.9319 84.529 83.0786C74.129 101.159 58.2357 113.212 45.009 113.212Z" fill="#1FE422"/>
<path d="M56.8907 65.0353C59.4507 60.662 63.5574 58.262 66.064 59.702L140.091 102.422C137.531 100.982 133.424 103.382 130.864 107.755C128.304 112.182 128.304 116.929 130.864 118.369L56.8907 75.6487C54.3307 74.2086 54.3307 69.462 56.8907 65.0353Z" fill="#2B303E"/>
<path d="M64.3832 59.9922C62.1432 59.9922 59.3165 62.2322 57.5032 65.4322C55.1565 69.4322 55.0499 73.8589 57.2365 75.0856L128.543 116.259C127.85 113.912 128.437 110.552 130.25 107.406C132.063 104.312 134.623 102.126 137.023 101.486L65.7165 60.3656C65.3432 60.0989 64.9165 59.9922 64.3832 59.9922ZM130.837 119.032C130.73 119.032 130.623 119.032 130.517 118.979L56.5432 76.3122C53.6099 74.5522 53.5032 69.5389 56.2765 64.7389C58.4099 61.1122 61.6632 58.6589 64.3832 58.6589C65.1299 58.6589 65.8232 58.8189 66.4099 59.1389L140.383 101.859C140.703 102.019 140.863 102.446 140.65 102.819C140.437 103.139 140.01 103.246 139.69 103.086C139.317 102.819 138.837 102.712 138.357 102.712C136.117 102.712 133.29 104.952 131.423 108.099C129.183 112.046 129.023 116.419 131.103 117.752C131.37 117.806 131.583 118.072 131.583 118.392C131.583 118.766 131.263 119.032 130.89 119.032H130.837Z" fill="#7370FF"/>
<path d="M130.835 118.375C133.395 119.815 137.502 117.468 140.062 113.042C142.568 108.668 142.568 103.922 140.062 102.428C137.502 100.988 133.395 103.388 130.835 107.762C128.328 112.188 128.328 116.935 130.835 118.375Z" fill="#2B303E"/>
<path d="M138.371 102.701C136.131 102.701 133.251 104.941 131.438 108.141C130.264 110.168 129.624 112.301 129.624 114.168C129.624 115.928 130.211 117.208 131.171 117.794C133.304 119.074 137.198 116.621 139.491 112.674C140.611 110.701 141.251 108.514 141.251 106.648C141.251 104.888 140.718 103.661 139.704 103.021C139.331 102.808 138.851 102.701 138.371 102.701ZM132.558 119.501C131.758 119.501 131.118 119.341 130.531 119.021C129.038 118.168 128.291 116.461 128.291 114.168C128.291 112.034 128.984 109.634 130.264 107.394C132.344 103.821 135.598 101.368 138.371 101.368C139.118 101.368 139.758 101.528 140.398 101.848C141.838 102.701 142.638 104.354 142.638 106.648C142.638 108.781 141.944 111.181 140.611 113.421C138.531 117.101 135.278 119.501 132.558 119.501Z" fill="#1FE422"/>
<path d="M75.2032 75.6293C88.3765 52.8026 109.763 40.4826 122.99 48.056L132.643 53.656C119.417 45.976 98.0299 58.4026 84.8565 81.176C71.6832 104.056 71.6832 128.749 84.8565 136.376L75.2032 130.776C61.9765 123.203 61.9765 98.5093 75.2032 75.6293Z" fill="#2B303E"/>
<path d="M114.166 46.4948C101.366 46.4948 85.9525 58.3348 75.7658 75.9881C69.4725 86.9215 66.0058 98.6548 66.0058 108.895C66.0058 119.028 69.3658 126.601 75.4991 130.175L79.3391 132.361C76.0325 128.041 74.2191 121.908 74.2191 114.441C74.2191 103.935 77.7925 92.0415 84.2458 80.8948C94.6458 62.8148 110.592 50.6548 123.819 50.6548C124.726 50.6548 125.579 50.7081 126.432 50.8148L122.592 48.6281C120.139 47.2415 117.312 46.4948 114.166 46.4948ZM84.8325 137.001C84.7258 137.001 84.6191 137.001 84.4591 136.895L74.8591 131.401C68.2458 127.561 64.6191 119.561 64.6191 108.895C64.6191 98.3881 68.1391 86.4415 74.5925 75.2948C84.9925 57.2148 100.886 45.1081 114.166 45.1081C117.526 45.1081 120.619 45.9081 123.286 47.4548L132.939 53.0015C133.259 53.2148 133.366 53.6415 133.152 53.9615C132.992 54.2815 132.566 54.3881 132.246 54.2281C129.739 52.7881 126.912 52.0415 123.819 52.0415C111.019 52.0415 95.6058 63.8815 85.4191 81.5348C79.1258 92.4681 75.6058 104.201 75.6058 114.441C75.6058 124.575 78.9658 132.095 85.0991 135.668C85.3658 135.775 85.5258 136.041 85.5258 136.361C85.5258 136.681 85.2058 136.948 84.8325 137.001Z" fill="#1FE422"/>
<path d="M84.8516 136.35C71.625 128.723 71.625 104.083 84.8516 81.2035C98.025 58.3768 119.412 46.0035 132.638 53.6302C145.812 61.2568 145.812 85.9502 132.638 108.777C119.412 131.603 98.025 143.977 84.8516 136.35Z" fill="#2B303E"/>
<path d="M85.2152 135.761C87.6685 137.148 90.5485 137.895 93.6419 137.895C106.389 137.895 121.855 126.055 131.989 108.401C138.335 97.468 141.802 85.788 141.802 75.4414C141.802 65.308 138.442 57.7347 132.255 54.2147H132.202C129.749 52.7214 126.922 52.0814 123.829 52.0814C111.029 52.0814 95.6152 63.868 85.4285 81.5214C79.1352 92.4547 75.6152 104.188 75.6152 114.481C75.6152 124.615 79.0285 132.188 85.2152 135.761ZM93.6419 139.228C90.2819 139.228 87.1885 138.481 84.5219 136.881H84.4685C77.9085 133.095 74.2285 125.148 74.2285 114.481C74.2285 103.921 77.8018 92.028 84.2552 80.8814C94.6552 62.8014 110.602 50.6414 123.829 50.6414C127.189 50.6414 130.282 51.4414 132.949 52.988C132.949 52.988 133.002 52.988 133.002 53.0414C139.562 56.8814 143.189 64.828 143.189 75.4414C143.189 86.0014 139.669 97.948 133.215 109.095C122.762 127.175 106.869 139.228 93.6419 139.228Z" fill="#1FE422"/>
<path d="M93.8941 86.4529C103.761 69.3862 119.707 60.1595 129.521 65.8129L139.227 71.4129C129.361 65.7062 113.414 74.9329 103.547 91.9995C93.7341 109.066 93.7341 127.52 103.547 133.173L93.8941 127.573C84.0275 121.92 84.0275 103.466 93.8941 86.4529Z" fill="#2B303E"/>
<path d="M123.003 64.8622C113.51 64.8622 102.043 73.6622 94.4701 86.7822C89.7767 94.9422 87.2167 103.689 87.2167 111.315C87.2167 118.835 89.6701 124.382 94.2034 127.049L98.8434 129.715C96.6567 126.462 95.4834 122.089 95.4834 116.915C95.4834 108.969 98.1501 100.009 102.95 91.6888C110.79 78.1422 122.683 69.0755 132.657 69.0755C133.03 69.0755 133.403 69.0755 133.83 69.1288L129.19 66.4622C127.377 65.3955 125.297 64.8622 123.003 64.8622ZM103.537 133.875C103.43 133.875 103.323 133.875 103.217 133.769L93.5634 128.222C88.5501 125.342 85.8301 119.315 85.8301 111.315C85.8301 103.422 88.4967 94.4622 93.2967 86.0888C101.083 72.5955 113.03 63.5288 123.003 63.5288C125.51 63.5288 127.857 64.0622 129.883 65.2888L139.537 70.8355C139.857 70.9955 139.963 71.4755 139.803 71.7955C139.643 72.1155 139.217 72.2222 138.843 72.0622C137.03 70.9422 134.95 70.4088 132.657 70.4088C123.163 70.4088 111.75 79.2622 104.123 92.3822C99.4301 100.489 96.8701 109.235 96.8701 116.915C96.8701 124.329 99.3234 129.929 103.803 132.542C104.07 132.649 104.283 132.862 104.283 133.182C104.283 133.555 103.963 133.875 103.59 133.875H103.537Z" fill="#1FE422"/>
<path d="M103.543 133.184C93.6759 127.531 93.6759 109.078 103.543 92.0643C113.409 74.9443 129.356 65.7176 139.169 71.4243C149.036 77.0776 149.036 95.5309 139.169 112.598C129.356 129.664 113.409 138.838 103.543 133.184Z" fill="#2B303E"/>
<path d="M132.672 70.4352C123.178 70.4352 111.712 79.2352 104.138 92.3552C94.5382 109.102 94.3782 127.075 103.872 132.622C105.738 133.689 107.818 134.169 110.112 134.169C119.605 134.169 131.072 125.369 138.645 112.249C148.245 95.6085 148.352 77.5285 138.858 72.0352V71.9819C137.045 70.9685 134.912 70.4352 132.672 70.4352ZM110.112 135.555C107.552 135.555 105.258 134.969 103.232 133.795C93.0449 127.929 92.9382 109.049 102.965 91.6618C110.752 78.1685 122.698 69.1019 132.672 69.1019C135.178 69.1019 137.525 69.6352 139.552 70.8619H139.605C149.738 76.7285 149.845 95.6085 139.818 112.942C131.978 126.489 120.085 135.555 110.112 135.555Z" fill="#1FE422"/>
<path d="M113.008 97.4917C119.195 86.825 129.168 81.0117 135.302 84.585L144.955 90.1317C138.822 86.6117 128.795 92.3717 122.662 103.038C116.528 113.705 116.528 125.225 122.662 128.798L113.008 123.198C106.875 119.678 106.875 108.105 113.008 97.4917Z" fill="#2B303E"/>
<path d="M131.211 84.2159C125.397 84.2159 118.304 89.7092 113.611 97.8159C110.677 102.883 109.077 108.269 109.077 113.016C109.077 117.603 110.624 121.016 113.397 122.616L118.997 125.869C116.117 120.536 117.131 111.309 122.091 102.723C126.944 94.2425 134.357 88.5892 140.597 88.4292L134.944 85.2292C133.877 84.5892 132.597 84.2159 131.211 84.2159ZM122.677 129.496C122.571 129.496 122.411 129.443 122.304 129.389L112.651 123.789C109.451 121.976 107.744 118.136 107.744 113.016C107.744 108.003 109.397 102.403 112.437 97.1225C117.344 88.5892 124.917 82.8826 131.211 82.8826C132.864 82.8826 134.357 83.2026 135.637 84.0026L145.291 89.6026C145.664 89.7626 145.717 90.1892 145.557 90.5092C145.397 90.8292 144.971 90.9359 144.597 90.7759C143.531 90.1359 142.251 89.7626 140.864 89.7626C135.051 89.7626 127.957 95.2559 123.264 103.363C117.344 113.656 117.184 124.696 122.891 128.109C123.211 128.216 123.424 128.483 123.424 128.803C123.424 129.176 123.051 129.549 122.677 129.496Z" fill="#1FE422"/>
<path d="M122.657 128.818C128.843 132.338 138.817 126.578 144.95 115.965C151.083 105.298 151.083 93.7782 144.95 90.1515C138.817 86.6315 128.79 92.3915 122.657 103.058C116.523 113.725 116.523 125.245 122.657 128.818Z" fill="#2B303E"/>
<path d="M140.859 89.8085C135.046 89.8085 127.953 95.3018 123.259 103.409C120.326 108.475 118.726 113.862 118.726 118.609C118.726 123.195 120.273 126.609 122.993 128.209C124.113 128.795 125.339 129.169 126.726 129.169C132.593 129.169 139.686 123.729 144.326 115.569C150.299 105.275 150.406 94.1818 144.646 90.8218H144.593C143.526 90.1818 142.246 89.8085 140.859 89.8085ZM126.726 130.555C125.126 130.555 123.633 130.182 122.299 129.382C119.099 127.569 117.393 123.729 117.393 118.609C117.393 113.595 119.046 107.995 122.033 102.715C126.993 94.1818 134.513 88.4752 140.859 88.4752C142.459 88.4752 143.953 88.7952 145.233 89.5418C145.286 89.5952 145.286 89.5952 145.286 89.5952C151.793 93.3285 151.899 105.329 145.553 116.262C140.646 124.795 133.073 130.555 126.726 130.555Z" fill="#1FE422"/>
<path d="M132.945 108.952C135.452 104.578 139.612 102.178 142.119 103.618L151.825 109.218C149.265 107.778 145.159 110.125 142.599 114.498C140.039 118.925 140.039 123.672 142.599 125.165L132.945 119.565C130.385 118.125 130.385 113.378 132.945 108.952Z" fill="#2B303E"/>
<path d="M140.438 103.903C138.198 103.903 135.371 106.143 133.558 109.343C131.211 113.343 131.105 117.77 133.291 118.997L140.278 122.997C139.585 120.65 140.171 117.343 141.985 114.197C143.745 111.103 146.358 108.917 148.758 108.277L141.771 104.277C141.398 104.01 140.971 103.903 140.438 103.903ZM142.625 125.823C142.465 125.823 142.358 125.823 142.251 125.77L132.598 120.223C129.665 118.463 129.558 113.45 132.331 108.65C134.465 105.023 137.718 102.57 140.438 102.57C141.185 102.57 141.878 102.73 142.465 103.05L152.118 108.65C152.491 108.81 152.598 109.237 152.385 109.557C152.225 109.877 151.745 109.983 151.478 109.77C151.051 109.557 150.571 109.45 150.091 109.45C147.851 109.45 145.025 111.69 143.158 114.89C140.918 118.783 140.758 123.157 142.838 124.543C143.105 124.597 143.318 124.863 143.318 125.13C143.318 125.557 142.945 125.877 142.625 125.823Z" fill="#7370FF"/>
<path d="M142.594 125.171C145.1 126.611 149.26 124.264 151.767 119.838C154.327 115.464 154.327 110.718 151.767 109.224C149.26 107.784 145.1 110.184 142.594 114.558C140.034 118.984 140.034 123.731 142.594 125.171Z" fill="#2B303E"/>
<path d="M150.086 109.497C147.846 109.497 145.02 111.737 143.153 114.937C140.86 118.884 140.753 123.364 142.94 124.591C145.073 125.871 148.966 123.417 151.206 119.524C152.326 117.497 152.966 115.311 152.966 113.444C152.966 111.684 152.433 110.457 151.42 109.817C151.046 109.604 150.566 109.497 150.086 109.497ZM144.273 126.297C143.526 126.297 142.833 126.137 142.246 125.817C139.313 124.057 139.206 119.044 141.98 114.244C144.06 110.617 147.313 108.164 150.086 108.164C150.833 108.164 151.526 108.324 152.113 108.644C153.553 109.497 154.406 111.151 154.406 113.444C154.406 115.577 153.66 117.977 152.38 120.217C150.246 123.897 146.993 126.297 144.273 126.297Z" fill="#7370FF"/>
</svg>
