<svg width="120" height="120" viewBox="0 0 120 120" fill="none" xmlns="http://www.w3.org/2000/svg">
<path d="M91.9196 39.2849L48.3996 14.1649L42.9196 22.4449L28.5996 25.6049L72.0796 50.7249L91.9196 39.2849Z" fill="white"/>
<path d="M30 25.8231L72.12 50.1431L90.92 39.2631L48.6 14.8631L43.36 22.7431C43.32 22.8231 43.2 22.9431 43.08 22.9431L30 25.8231ZM72.12 51.2231C72.04 51.2231 71.92 51.2231 71.84 51.1831L28.32 26.0631C28.16 25.9431 28.04 25.7431 28.08 25.5431C28.12 25.3031 28.28 25.1431 28.48 25.1031L42.64 21.9831L48 13.9031C48.16 13.6631 48.44 13.5831 48.68 13.7031L92.2 38.8631C92.36 38.9431 92.48 39.1031 92.48 39.2631C92.48 39.4631 92.36 39.6231 92.2 39.7431L72.36 51.1831C72.28 51.2231 72.2 51.2231 72.12 51.2231Z" fill="#7370FF"/>
<path d="M28.6216 26.1157C28.3416 26.1157 28.1016 25.9157 28.1016 25.5957C28.1016 25.3157 28.3416 25.1157 28.6216 25.1157C28.9016 25.1157 29.1416 25.3157 29.1416 25.5957C29.1416 25.9157 28.9016 26.1157 28.6216 26.1157Z" fill="#7370FF"/>
<path d="M69.5708 105.92L26.0508 80.8004L50.9708 66.4004L94.4908 91.5604L69.5708 105.92Z" fill="white"/>
<path d="M27.0541 80.8075L69.5341 105.328L93.4541 91.5675L50.9741 67.0075L27.0541 80.8075ZM69.5341 106.448C69.4541 106.448 69.3741 106.448 69.2941 106.368L25.7741 81.2475C25.6141 81.1675 25.4941 81.0075 25.4941 80.8075C25.4941 80.6075 25.6141 80.4475 25.7741 80.3275L50.6941 65.9675C50.8541 65.8875 51.0541 65.8875 51.2141 65.9675L94.7341 91.0875C94.8941 91.2075 94.9741 91.3675 94.9741 91.5675C94.9741 91.6875 94.8941 91.8875 94.7341 91.9675L69.8141 106.368C69.7341 106.448 69.6141 106.448 69.5341 106.448Z" fill="#7370FF"/>
<path d="M69.5708 105.92L72.0908 50.7204L28.6108 25.6004L26.0508 80.8004L69.5708 105.92Z" fill="white"/>
<path d="M26.5927 80.4982L69.1127 105.058L71.5927 51.0582L29.0727 26.4982L26.5927 80.4982ZM69.5927 106.418C69.4727 106.418 69.3927 106.418 69.3127 106.338L25.7927 81.2582C25.6327 81.1782 25.5527 80.9782 25.5527 80.7782L28.1127 25.5782C28.1127 25.4182 28.1927 25.2582 28.3527 25.1782C28.5127 25.0982 28.7127 25.0982 28.8727 25.1782L72.3927 50.2982C72.5527 50.3782 72.6327 50.5782 72.6327 50.7782L70.0727 105.978C70.0727 106.138 69.9927 106.298 69.8327 106.378C69.7527 106.418 69.6727 106.418 69.5927 106.418Z" fill="#7370FF"/>
<path d="M78.6366 89.6002L77.5566 42.4402L72.0766 50.7202L69.5566 105.92L78.6366 89.6002Z" fill="white"/>
<path d="M72.6186 50.8875L70.1786 103.768L78.1386 89.4875L77.0986 44.0875L72.6186 50.8875ZM69.5786 106.448H69.4186C69.2186 106.368 69.0586 106.168 69.0586 105.888L71.6186 50.7275C71.6186 50.6075 71.6586 50.5275 71.6986 50.4475L77.1386 42.1675C77.2986 41.9675 77.5386 41.8875 77.7386 41.9275C77.9386 42.0075 78.0986 42.2075 78.0986 42.4475L79.1786 89.6075C79.1786 89.6875 79.1786 89.7675 79.0986 89.8475L70.0186 106.168C69.9386 106.368 69.7386 106.448 69.5786 106.448Z" fill="#7370FF"/>
<path d="M91.944 39.2849L94.504 91.5649L78.664 89.6049L77.584 42.4449L91.944 39.2849Z" fill="white"/>
<path d="M79.1659 89.1423L93.9659 90.9823L91.4859 39.9423L78.1259 42.9023L79.1659 89.1423ZM94.4859 92.0623H94.4059L78.6059 90.1023C78.3259 90.0623 78.1659 89.9023 78.1659 89.6223L77.0859 42.4623C77.0859 42.2223 77.2459 42.0223 77.4859 41.9423L91.8459 38.7823C91.9659 38.7423 92.1259 38.7823 92.2459 38.9023C92.3659 38.9823 92.4459 39.1423 92.4859 39.3023L95.0059 91.3823C95.0059 91.4223 95.0059 91.5023 95.0059 91.5823C95.0059 91.8223 94.7659 92.0223 94.4859 92.0623Z" fill="#7370FF"/>
<path d="M78.6366 89.6002L69.5566 105.92L94.4766 91.5602L78.6366 89.6002Z" fill="white"/>
<path d="M78.9391 90.1387L70.8991 104.539L92.8991 91.8587L78.9391 90.1387ZM69.5791 106.419C69.4191 106.419 69.2991 106.379 69.1791 106.259C69.0191 106.099 68.9791 105.899 69.0991 105.699L78.1791 89.2987C78.2991 89.1787 78.4991 89.0587 78.7391 89.0987L94.5391 91.0187C94.7791 91.0187 94.9391 91.1787 94.9791 91.4187C95.0191 91.6587 94.9391 91.8587 94.7391 91.9787L69.8191 106.339C69.7391 106.419 69.6591 106.419 69.5791 106.419Z" fill="#7370FF"/>
<path d="M43.3303 23.0282L28.5703 25.6282L42.9303 33.9082L43.3303 23.0282Z" fill="white"/>
<path d="M30.0799 25.8865L42.4799 33.0465L42.7999 23.6465L30.0799 25.8865ZM42.9599 34.4065C42.8799 34.4065 42.7599 34.4065 42.6799 34.3665L28.3599 26.0465C28.1599 25.9265 28.0399 25.7665 28.0799 25.5265C28.1199 25.3265 28.3199 25.1265 28.5199 25.0865L43.2399 22.5265C43.3999 22.4865 43.5599 22.5265 43.6799 22.6065C43.7999 22.7265 43.8399 22.8865 43.8399 23.0465L43.4399 33.9265C43.4399 34.0865 43.3599 34.2465 43.1999 34.3665C43.1199 34.4065 43.0399 34.4065 42.9599 34.4065Z" fill="#7370FF"/>
<path d="M42.9551 33.8837L48.4351 37.0437V14.1637L43.3551 23.0037L42.9551 33.8837Z" fill="white"/>
<path d="M43.4677 33.611L47.9077 36.131V16.091L43.8277 23.171L43.4677 33.611ZM48.4277 37.571C48.3477 37.571 48.2277 37.571 48.1477 37.531L42.6677 34.371C42.5077 34.251 42.4277 34.091 42.4277 33.891L42.8277 22.971C42.8277 22.891 42.8277 22.811 42.8677 22.771L47.9877 13.891C48.0677 13.691 48.3477 13.611 48.5477 13.651C48.7877 13.731 48.9477 13.931 48.9477 14.171V37.051C48.9477 37.251 48.8277 37.411 48.6677 37.531C48.5877 37.571 48.5077 37.571 48.4277 37.571Z" fill="#7370FF"/>
<path d="M30 25.8231L71.96 50.0631L77.16 42.1831C77.24 42.0631 77.36 41.9831 77.48 41.9431L90.52 39.1031L48.6 14.8631L43.36 22.7431C43.32 22.8231 43.2 22.9431 43.08 22.9431L30 25.8231ZM72.12 51.2231C72.04 51.2231 71.92 51.2231 71.84 51.1831L28.32 26.0631C28.16 25.9431 28.04 25.7431 28.08 25.5431C28.12 25.3031 28.28 25.1431 28.48 25.1031L42.64 21.9831L48 13.9031C48.16 13.6631 48.44 13.5831 48.68 13.7031L92.2 38.8631C92.4 38.9831 92.48 39.1431 92.44 39.3431C92.44 39.5831 92.24 39.7431 92.04 39.7831L77.88 42.9031L72.52 51.0231C72.44 51.1431 72.28 51.2231 72.12 51.2231Z" fill="#7370FF"/>
<path d="M37.6473 42.2218C36.3273 43.0218 35.8873 44.7018 36.6473 46.0218C37.4073 47.3018 39.0873 47.7818 40.4073 47.0218C41.1673 46.5418 41.1673 45.1418 40.4073 43.8218C39.6473 42.5018 38.4073 41.7818 37.6473 42.2218Z" fill="white"/>
<path d="M38.1318 42.6031C38.0518 42.6031 37.9718 42.6431 37.8918 42.6831C37.3718 43.0031 37.0118 43.4431 36.8518 44.0431C36.6918 44.6031 36.7718 45.2031 37.0518 45.7231C37.4518 46.4431 38.2118 46.8431 39.0118 46.8431C39.4118 46.8431 39.8118 46.7631 40.1318 46.5631C40.3318 46.4431 40.4518 46.1631 40.4518 45.7231C40.4518 45.2031 40.2518 44.6431 39.9318 44.0831C39.3718 43.1231 38.6118 42.6031 38.1318 42.6031ZM39.0118 47.8831C37.8518 47.8831 36.7718 47.2431 36.1718 46.2431C35.7318 45.4831 35.6518 44.6031 35.8518 43.7631C36.0918 42.9231 36.6118 42.2031 37.3718 41.7631C38.3718 41.2031 39.9318 42.0031 40.8118 43.5631C41.2518 44.2831 41.4518 45.0831 41.4518 45.7231C41.4518 46.5631 41.1718 47.1231 40.6118 47.4431C40.1318 47.7231 39.5718 47.8831 39.0118 47.8831Z" fill="#1FE422"/>
<path d="M57.4226 53.5327C56.1026 54.2927 55.6626 56.0127 56.4226 57.2927C57.1826 58.6127 58.8626 59.0527 60.1826 58.2927C60.9026 57.8527 60.9026 56.4127 60.1826 55.1327C59.4226 53.8127 58.1826 53.0927 57.4226 53.5327Z" fill="white"/>
<path d="M57.925 53.9409C57.845 53.9409 57.725 53.9409 57.685 53.9809C57.125 54.3009 56.805 54.7809 56.645 55.3409C56.485 55.9409 56.565 56.5009 56.845 57.0609C57.245 57.7409 57.965 58.1409 58.765 58.1409C59.165 58.1409 59.565 58.1009 59.885 57.9009C60.365 57.6209 60.365 56.5009 59.725 55.3809C59.165 54.4609 58.405 53.9409 57.925 53.9409ZM58.765 59.2209C57.645 59.2209 56.525 58.5809 55.965 57.5809C55.525 56.8209 55.405 55.9409 55.645 55.0609C55.845 54.2609 56.405 53.541 57.165 53.101C58.165 52.541 59.685 53.301 60.605 54.8609C61.525 56.4609 61.445 58.1409 60.405 58.7409C59.925 59.0609 59.365 59.2209 58.765 59.2209Z" fill="#1FE422"/>
<path d="M49.8726 69.416C48.8326 69.416 47.7926 69.096 46.7926 68.536C41.0326 65.216 36.3926 52.296 36.3926 45.616C36.3926 45.136 36.7926 44.696 37.3126 44.696C37.8326 44.696 38.2326 45.136 38.2326 45.616C38.2326 51.736 42.5926 63.936 47.7126 66.936C49.1126 67.696 50.4726 67.736 51.7526 66.976C54.2726 65.536 56.2726 61.176 56.2726 57.096C56.2726 56.576 56.6726 56.176 57.1926 56.176C57.7126 56.176 58.1526 56.576 58.1526 57.096C58.1526 61.936 55.8326 66.816 52.7126 68.616C51.7926 69.136 50.8326 69.416 49.8726 69.416Z" fill="white"/>
<path d="M37.3159 45.1943C37.0759 45.1943 36.8759 45.3943 36.8759 45.6343C36.8759 52.1943 41.4359 64.8343 47.0359 68.0743C48.8759 69.1543 50.7159 69.1943 52.4359 68.1543C55.4759 66.4343 57.6359 61.7943 57.6359 57.1143C57.6359 56.8743 57.4359 56.6743 57.1959 56.6743C56.9559 56.6743 56.7559 56.8743 56.7559 57.1143C56.7559 61.3543 54.6759 65.9143 52.0359 67.4343C50.5959 68.2343 48.9959 68.2343 47.4759 67.3543C42.1959 64.3143 37.7559 51.8343 37.7559 45.6343C37.7559 45.3943 37.5559 45.1943 37.3159 45.1943ZM49.8759 69.9143C48.7559 69.9143 47.6359 69.5943 46.5159 68.9943C40.6359 65.5943 35.8359 52.4343 35.8359 45.6343C35.8359 44.7943 36.5159 44.1943 37.3159 44.1943C38.1159 44.1943 38.7959 44.7943 38.7959 45.6343C38.7959 51.5943 42.9959 63.5543 47.9959 66.4343C49.1959 67.1543 50.3959 67.1943 51.4759 66.5143C53.8759 65.1543 55.7159 61.0343 55.7159 57.1143C55.7159 56.2743 56.3959 55.6343 57.1959 55.6343C57.9959 55.6343 58.6759 56.2743 58.6759 57.1143C58.6759 62.1543 56.2759 67.1543 52.9559 69.0743C51.9559 69.6343 50.9159 69.9143 49.8759 69.9143Z" fill="#1FE422"/>
<path d="M77.1996 41.9139L71.9196 49.9139L30.3196 25.9139L43.3196 23.0339L48.6396 15.0339L90.1996 39.0339L77.1996 41.9139ZM48.3996 14.1939L42.9596 22.4739L28.5996 25.6339L72.1196 50.7539L77.5596 42.4739L91.9196 39.3139L48.3996 14.1939Z" fill="white"/>
<path d="M31.7199 26.1029L71.7599 49.2229L76.7599 41.5829C76.8399 41.5029 76.9599 41.4229 77.0799 41.3829L88.7999 38.8229L48.7999 15.7029L43.7599 23.3029C43.6799 23.4229 43.5599 23.5029 43.4399 23.5429L31.7199 26.1029ZM72.1199 51.2229C72.0399 51.2229 71.9199 51.2229 71.8399 51.1829L28.3599 26.0629C28.1599 25.9429 28.0399 25.7429 28.0799 25.5429C28.1199 25.3029 28.2799 25.1829 28.4799 25.1029L42.6399 21.9829L47.9999 13.9029C48.1599 13.6629 48.4399 13.5829 48.6799 13.7029L92.1999 38.8629C92.3999 38.9829 92.4799 39.1829 92.4399 39.3829C92.4399 39.5829 92.2399 39.7429 92.0399 39.7829L77.8799 42.9029L72.5599 51.0629C72.4399 51.1429 72.2799 51.2229 72.1199 51.2229Z" fill="#7370FF"/>
</svg>
