<svg width="160" height="161" viewBox="0 0 160 161" fill="none" xmlns="http://www.w3.org/2000/svg">
<path d="M116.907 112.469C116.907 110.016 117.547 107.349 118.561 104.789C117.547 107.349 116.907 110.016 116.907 112.469C116.907 114.069 117.174 115.403 117.654 116.523C117.174 115.403 116.907 114.069 116.907 112.469ZM128.107 93.1094C128.481 92.8961 128.801 92.7361 129.121 92.5761C128.801 92.7361 128.481 92.8961 128.107 93.1094C125.921 94.3361 123.947 96.2028 122.241 98.4428C123.947 96.2028 125.921 94.3361 128.107 93.1094ZM62.8808 84.7361C62.7741 84.4694 62.6674 84.1494 62.5608 83.7761C62.6674 84.1494 62.7741 84.4694 62.8808 84.7361ZM42.7741 68.1494C43.7341 67.5094 44.3208 66.7627 44.3208 65.8027C44.3208 64.5761 43.2008 63.4561 41.4408 62.8694V54.9228C47.5208 57.4294 54.5608 58.6561 61.5474 58.6561C63.7341 58.6561 65.8674 58.5494 68.0008 58.2827C68.0008 58.3361 68.0008 58.3361 68.0008 58.3361C63.6274 60.8428 59.8941 65.9094 58.0274 71.1894L54.6674 68.0961C54.6141 68.0961 54.5608 68.0961 54.5608 68.0428C54.3474 67.8828 54.1341 67.8294 53.9208 67.6694C53.7608 67.6161 53.6008 67.5094 53.4408 67.4561C53.2808 67.4027 53.0674 67.4028 52.8541 67.3494C52.6408 67.3494 52.4808 67.2961 52.2674 67.2961C52.0541 67.3494 51.8941 67.4027 51.6808 67.4561C51.4674 67.5094 51.3074 67.5628 51.0941 67.6694C51.0408 67.7228 50.9874 67.6694 50.9341 67.7227L44.3208 71.5094V65.8027C44.3208 66.7627 43.7341 67.5094 42.7741 68.1494ZM38.2941 90.9761C37.2808 91.5094 36.2674 92.2028 35.3074 93.0028V86.9228L38.4008 88.7361C38.9341 89.0561 39.4141 89.5361 39.8408 90.1227C39.3074 90.3894 38.8274 90.6561 38.2941 90.9761ZM25.8674 129.323C26.0808 130.389 26.3474 131.349 26.7208 132.256C26.3474 131.349 26.0808 130.389 25.8674 129.323ZM25.5474 125.589V125.696V125.589ZM38.2941 69.2694C39.7341 69.2694 41.0674 69.0561 42.0808 68.5228C41.0674 69.0561 39.7341 69.2694 38.2941 69.2694ZM38.3474 98.1228C37.7608 98.7094 37.2274 99.2428 36.6941 99.8294C37.2274 99.2428 37.7608 98.7094 38.3474 98.1228C39.0408 97.4828 39.7874 96.8961 40.5341 96.3094C39.7874 96.8961 39.0408 97.4828 38.3474 98.1228ZM77.8141 60.0428C76.4808 60.1494 74.9874 60.5761 73.4408 61.4827C72.2674 62.1761 71.1474 63.0828 70.0808 64.0961C71.1474 63.0828 72.2674 62.1761 73.4408 61.4827C74.9874 60.5761 76.4808 60.1494 77.8141 60.0428ZM117.601 75.9894C117.707 75.8294 117.814 75.6161 117.867 75.4028C117.814 75.6161 117.707 75.8294 117.601 75.9894ZM66.5074 68.3627C66.9874 67.6161 67.5208 66.9228 68.0008 66.2828C67.5208 66.9228 66.9874 67.6161 66.5074 68.3627ZM63.0408 75.7227C63.3608 74.6561 63.6808 73.5894 64.1608 72.5761C63.6808 73.5894 63.3608 74.6561 63.0408 75.7227ZM78.9341 90.0161L74.8808 86.3894C75.2541 86.1228 75.6274 85.8561 76.0008 85.5361C76.9074 86.8161 78.1874 87.8828 79.6808 88.8428C79.8941 89.0028 80.0541 89.1094 80.2674 89.2161L78.9341 90.0161ZM136.054 92.3094C135.307 91.8294 134.401 91.6694 133.494 91.6161C134.401 91.6694 135.307 91.8294 136.054 92.3094L130.561 89.1628C128.534 87.9361 125.761 88.1494 122.667 89.9094C120.481 91.1894 118.507 93.0561 116.801 95.2961L109.121 90.8694C111.201 89.9627 113.014 88.9494 114.507 87.7228C114.987 87.2961 115.521 86.9228 115.894 86.4427C115.947 86.3894 116.001 86.3361 116.107 86.2294C116.694 85.5894 117.227 84.8428 117.601 84.1494C117.707 83.9361 117.814 83.7228 117.867 83.5094C117.974 83.2961 118.081 83.0828 118.134 82.8694C118.454 82.0694 118.614 81.2161 118.614 80.3094V72.1494C118.614 73.0561 118.454 73.9094 118.134 74.7627C118.454 73.9094 118.614 73.0561 118.614 72.1494C118.614 65.0561 108.641 59.2961 96.3208 59.2961C91.2541 59.2961 86.5608 60.2561 82.8274 61.9627C82.4008 61.4827 81.9208 61.0028 81.3341 60.6828C80.3741 60.1494 79.2008 59.9361 77.9208 60.0428C79.2008 59.9361 80.3741 60.1494 81.3341 60.6828L75.8941 57.5894C75.5741 57.3761 75.2008 57.2694 74.8274 57.1628C79.0408 56.1494 82.9341 54.6561 86.4008 52.6294C87.9474 51.7761 88.4274 49.8561 87.5741 48.3627C86.7208 46.8694 84.7474 46.3361 83.2541 47.1894C71.3074 54.0694 51.8408 54.0694 39.8941 47.1894C34.6674 44.2028 31.8408 40.3628 31.8408 36.4694C31.8408 32.5761 34.6674 28.7894 39.8941 25.8028C41.3874 24.8961 41.9208 22.9761 41.0674 21.4827C40.2141 19.9894 38.2408 19.4561 36.7474 20.3094C29.4941 24.5228 25.5474 30.2294 25.5474 36.4694C25.5474 42.2828 28.9608 47.5628 35.1474 51.6161V62.8161C33.4408 63.4561 32.2674 64.5761 32.2674 65.8027V80.8428C32.1074 80.8961 32.0008 80.8961 31.8941 81.0028C30.0274 82.0694 29.0141 84.0961 29.0141 86.6561V99.2961C23.6808 106.016 20.1074 114.763 20.1074 122.443C20.1074 128.256 22.1341 132.309 25.4408 134.229L30.8808 137.376C29.4408 136.523 28.2141 135.243 27.3074 133.589C28.2141 135.243 29.4408 136.523 30.8808 137.376C34.1874 139.296 38.7208 139.029 43.7341 136.096C53.8141 130.283 61.9208 116.203 61.9208 104.629C61.9208 98.7628 59.8941 94.7094 56.6408 92.8428C54.1874 91.4028 51.0408 91.2428 47.5208 92.3628C51.0408 91.2428 54.1874 91.4028 56.6408 92.8428L51.1474 89.6427C49.7608 88.8428 48.0541 88.4694 46.2408 88.4694C45.5474 87.0828 44.6408 85.8561 43.5741 84.7894C44.0541 84.3628 44.3208 83.7761 44.3208 83.1361V78.8161L52.1074 74.3361L56.8541 78.6027C57.0141 81.6961 58.1874 83.9361 60.0541 85.0028L65.4941 88.2028C66.2941 88.6294 67.2008 88.8428 68.2141 88.8961L76.3741 96.2028C76.4274 96.2561 76.4808 96.2561 76.4808 96.3094C76.7474 96.4694 76.9608 96.6294 77.2274 96.7361C77.3341 96.7894 77.4408 96.8428 77.4941 96.8428C77.8141 96.9494 78.1341 97.0561 78.5074 97.0561C78.8808 97.0561 79.2541 96.9494 79.6274 96.7894C79.6808 96.7894 79.7874 96.7361 79.8408 96.7361C79.9474 96.6828 80.0008 96.6828 80.1074 96.6294L87.7874 92.2028C90.4008 92.8428 93.2808 93.2161 96.3208 93.2161C96.9608 93.2161 97.6541 93.1628 98.2941 93.1094L113.121 101.696C112.054 104.256 111.414 106.869 111.414 109.323C111.414 112.949 112.694 115.456 114.721 116.576L120.214 119.776C119.361 119.296 118.721 118.549 118.187 117.696C118.721 118.549 119.361 119.296 120.214 119.776C122.241 120.896 125.014 120.736 128.107 118.976C134.294 115.403 139.307 106.709 139.307 99.5628C139.307 95.9361 138.081 93.4827 136.054 92.3094Z" fill="#2B303E"/>
<path d="M32.1603 111.609C30.4003 111.609 29.0137 110.223 29.0137 108.409V86.6494C29.0137 84.0894 30.027 82.0627 31.8937 81.0494C33.707 79.9294 36.0537 80.036 38.187 81.3694L41.547 83.2894C43.0937 84.1427 43.5737 86.0627 42.7203 87.6094C41.867 89.1027 39.947 89.5827 38.4003 88.7294L35.307 86.916V108.409C35.307 110.223 33.9203 111.609 32.1603 111.609Z" fill="#2B303E"/>
<path d="M34.6182 80.9672C33.7648 80.9672 32.9648 81.1806 32.2182 81.6073C30.6182 82.5139 29.6582 84.3272 29.6582 86.6206V108.434C29.6582 109.767 30.7782 110.941 32.1648 110.941C33.4982 110.941 34.6182 109.767 34.6182 108.434V86.8873C34.6182 86.6739 34.7248 86.4606 34.9382 86.3539C35.1515 86.2472 35.4181 86.2472 35.6315 86.3539L38.7248 88.1139C39.8982 88.7539 41.4448 88.3806 42.1381 87.2072C42.4048 86.6206 42.5115 85.9806 42.3515 85.3406C42.1915 84.7006 41.7648 84.1672 41.2315 83.8472L37.8715 81.9272C36.8048 81.2872 35.6848 80.9672 34.6182 80.9672ZM32.1648 112.274C30.0315 112.274 28.2715 110.567 28.2715 108.434V86.6206C28.2715 83.9006 29.4982 81.6073 31.5248 80.3806C33.5515 79.2606 36.1648 79.3672 38.5648 80.7006L41.8715 82.6206C43.7381 83.7406 44.3781 86.0872 43.3115 87.9006C42.2982 89.6606 39.8448 90.3539 38.0315 89.2873L35.9515 88.1139V108.434C35.9515 110.567 34.2448 112.274 32.1648 112.274Z" fill="#1FE422"/>
<path d="M51.1474 89.6583C47.8408 87.7916 43.3074 88.0583 38.2941 90.9383C28.2141 96.7516 20.1074 110.832 20.1074 122.405C20.1074 128.272 22.1341 132.325 25.4408 134.245L30.8808 137.392C27.5741 135.472 25.5474 131.418 25.5474 125.605C25.5474 113.978 33.7074 99.8983 43.7341 94.0849C48.8008 91.1516 53.3341 90.8849 56.6408 92.8583L51.1474 89.6583Z" fill="#2B303E"/>
<path d="M46.43 89.1485C44.03 89.1485 41.4167 89.9485 38.6434 91.5485C28.7767 97.2018 20.83 111.069 20.83 122.429C20.83 127.815 22.59 131.815 25.79 133.629L26.91 134.322C25.5767 132.029 24.8834 129.095 24.8834 125.629C24.8834 113.842 33.2034 99.3885 43.4434 93.5218C46.3767 91.8152 49.2567 90.9085 51.9234 90.9085H51.9767L50.8567 90.2685C49.5767 89.5218 48.0834 89.1485 46.43 89.1485ZM30.91 138.055C30.8034 138.055 30.6967 138.055 30.59 138.002L25.0967 134.802C21.4167 132.722 19.4434 128.295 19.4434 122.429C19.4434 110.642 27.71 96.2952 37.95 90.3218C43.0167 87.4418 47.9234 87.0152 51.55 89.0952L56.99 92.2418C57.31 92.4552 57.4167 92.8285 57.2567 93.1485C57.0434 93.5218 56.6167 93.6285 56.2967 93.4152C53.0967 91.6018 48.7234 92.0285 44.1367 94.6952C34.27 100.402 26.27 114.269 26.27 125.629C26.27 130.909 27.9767 134.855 31.1234 136.775C31.39 136.829 31.6034 137.042 31.6034 137.362C31.6034 137.789 31.3367 138.055 30.91 138.055Z" fill="#1FE422"/>
<path d="M25.5762 125.589C25.5762 131.403 27.6028 135.509 30.9095 137.376C34.2162 139.296 38.7495 139.029 43.7628 136.096C53.8428 130.283 61.9495 116.203 61.9495 104.576C61.9495 98.7628 59.9228 94.7094 56.6695 92.8428C53.3628 90.9228 48.8295 91.1361 43.7628 94.0694C33.7362 99.9361 25.5762 113.963 25.5762 125.589Z" fill="#2B303E"/>
<path d="M51.8988 92.319C49.4988 92.319 46.8854 93.119 44.1121 94.719C34.2454 100.372 26.2988 114.239 26.2988 125.599C26.2988 130.986 28.0054 134.932 31.2588 136.799C34.4054 138.612 38.7788 138.186 43.4188 135.519C53.2854 129.812 61.2854 115.946 61.2854 104.586C61.2854 99.2523 59.5254 95.3057 56.3254 93.439C55.0454 92.6923 53.5521 92.319 51.8988 92.319ZM35.6321 139.306C33.7654 139.306 32.0588 138.826 30.5654 137.972C26.8854 135.839 24.9121 131.466 24.9121 125.599C24.9121 113.812 33.1788 99.4123 43.4188 93.4923C48.4854 90.6123 53.3388 90.1323 56.9654 92.2123C60.6454 94.3457 62.6721 98.719 62.6721 104.586C62.6721 116.372 54.3521 130.826 44.1121 136.692C41.1254 138.399 38.2988 139.306 35.6321 139.306Z" fill="#1FE422"/>
<path d="M32.2559 121.75C32.2559 129.11 37.4292 132.044 43.7759 128.417C50.1225 124.737 55.2959 115.83 55.2959 108.47C55.2959 101.11 50.1225 98.1771 43.7759 101.857C37.4292 105.484 32.2559 114.39 32.2559 121.75Z" fill="#2B303E"/>
<path d="M48.8861 100.912C47.4461 100.912 45.7394 101.446 44.0861 102.406C37.9527 105.979 32.9394 114.619 32.9394 121.766C32.9394 126.406 35.1261 129.232 38.6461 129.232C40.0861 129.232 41.6861 128.752 43.3927 127.792C49.5794 124.219 54.5394 115.526 54.5394 108.486C54.5394 103.846 52.4061 100.912 48.8861 100.912ZM38.6461 130.672C34.3261 130.672 31.5527 127.152 31.5527 121.766C31.5527 114.192 36.8861 104.966 43.3927 101.232C45.3127 100.112 47.1794 99.579 48.8861 99.579C53.2061 99.579 55.9261 103.046 55.9261 108.486C55.9261 116.006 50.6461 125.232 44.0861 128.966C42.2194 130.086 40.3527 130.672 38.6461 130.672Z" fill="#1FE422"/>
<path d="M75.9338 57.5976C73.9071 56.4243 71.0804 56.5309 67.9871 58.3976C61.8004 61.9176 56.7871 70.6109 56.7871 77.8109C56.7871 81.3309 58.0671 83.8909 60.0938 85.0643L65.5338 88.2109C63.5071 87.0376 62.2271 84.5309 62.2271 80.9043C62.2271 73.8109 67.2404 65.1176 73.4804 61.4909C76.5738 59.7309 79.3471 59.5709 81.3738 60.7443L75.9338 57.5976Z" fill="#2B303E"/>
<path d="M72.9907 57.516C71.604 57.516 69.9507 57.996 68.3507 58.9027C62.324 62.4227 57.4707 70.8493 57.4707 77.7826C57.4707 80.9293 58.5373 83.3293 60.404 84.4493L62.4307 85.5693C61.844 84.2893 61.5773 82.7426 61.5773 80.876C61.5773 73.5693 66.7507 64.6093 73.0973 60.876C74.644 60.0227 76.1907 59.4893 77.5773 59.3293L75.5507 58.156C74.804 57.7293 73.9507 57.516 72.9907 57.516ZM65.524 88.876C65.4173 88.876 65.2573 88.8226 65.204 88.7693L59.7107 85.6226C57.364 84.2893 56.084 81.4626 56.084 77.7826C56.084 70.3693 61.2573 61.4093 67.6573 57.7293C70.8573 55.916 73.9507 55.6493 76.2973 56.9293L81.7373 60.1293C82.0573 60.3427 82.164 60.7693 81.9507 61.036C81.7907 61.356 81.364 61.4627 81.044 61.3027C79.1773 60.236 76.5107 60.556 73.7907 62.1027C67.8173 65.516 62.9107 73.996 62.9107 80.876C62.9107 84.076 63.924 86.4226 65.7907 87.4893C66.0573 87.596 66.2707 87.8626 66.2707 88.1826C66.2707 88.556 65.9507 88.876 65.524 88.876Z" fill="#1FE422"/>
<path d="M62.2168 80.9363C62.2168 84.5096 63.4435 87.0163 65.5235 88.2429C67.5501 89.3629 70.3235 89.2029 73.4168 87.4429C79.6035 83.8696 84.6168 75.1763 84.6168 68.0296C84.6168 64.4029 83.3901 61.9496 81.3635 60.7229C79.3368 59.6029 76.5635 59.7629 73.4168 61.5229C67.2301 65.0963 62.2168 73.7896 62.2168 80.9363Z" fill="#2B303E"/>
<path d="M78.4594 60.6577C77.0194 60.6577 75.4194 61.191 73.8194 62.0977C67.7927 65.5643 62.8861 73.991 62.8861 80.9243C62.8861 84.1243 64.0061 86.471 65.8727 87.591C66.6194 88.071 67.4727 88.2843 68.4327 88.2843C69.8727 88.2843 71.4727 87.751 73.1261 86.791C79.0994 83.3777 84.0061 74.951 84.0061 68.0177C84.0061 64.7643 82.9394 62.4177 81.0194 61.351C80.2727 60.871 79.4194 60.6577 78.4594 60.6577ZM68.4327 89.6177C67.2594 89.6177 66.1394 89.351 65.1794 88.7643C62.8327 87.431 61.5527 84.6577 61.5527 80.9243C61.5527 73.5643 66.7261 64.6043 73.1261 60.9243C76.2727 59.0577 79.4194 58.791 81.7127 60.1243C84.0594 61.511 85.3394 64.231 85.3394 68.0177C85.3394 75.3243 80.1661 84.2843 73.8194 88.0177C71.8994 89.0843 70.1394 89.6177 68.4327 89.6177Z" fill="#1FE422"/>
<path d="M68.3496 77.3645C68.3496 80.6179 70.5896 81.8979 73.4163 80.2979C76.1896 78.6445 78.4829 74.7512 78.4829 71.5512C78.4829 68.2979 76.1896 67.0179 73.4163 68.6179C70.5896 70.2179 68.3496 74.1112 68.3496 77.3645Z" fill="#2B303E"/>
<path d="M75.7246 68.6213C75.1379 68.6213 74.4979 68.8346 73.8046 69.208C71.1913 70.7013 69.0579 74.328 69.0579 77.368C69.0579 79.1813 69.8579 80.3547 71.1913 80.3547C71.7779 80.3547 72.4179 80.1413 73.1113 79.7147C75.7246 78.2213 77.8579 74.5413 77.8579 71.5546C77.8579 69.7413 77.0579 68.6213 75.7246 68.6213ZM71.1913 81.688C69.0579 81.688 67.7246 79.9813 67.7246 77.368C67.7246 73.9013 70.0713 69.7413 73.1113 67.9813C74.0179 67.5013 74.8713 67.2346 75.7246 67.2346C77.8579 67.2346 79.1913 68.9413 79.1913 71.5546C79.1913 75.0213 76.8446 79.128 73.8046 80.888C72.8979 81.4213 72.0446 81.688 71.1913 81.688Z" fill="#1FE422"/>
<path d="M125.949 104.843C126.962 103.083 128.615 102.123 129.629 102.763L128.669 102.176L127.709 101.589L75.6021 71.5627C74.5888 70.9227 72.9354 71.936 71.9221 73.6427C70.9088 75.4027 70.9088 77.3227 71.9221 77.9094L124.029 108.043L124.989 108.523L125.949 109.109C124.935 108.523 124.935 106.603 125.949 104.843Z" fill="#2B303E"/>
<path d="M74.9285 72.0139C74.2885 72.0139 73.2751 72.7073 72.5285 73.9873C71.6218 75.4806 71.6751 76.9739 72.2618 77.3473L124.475 107.481C124.475 106.521 124.795 105.507 125.328 104.494C125.915 103.534 126.715 102.734 127.462 102.254L127.355 102.201L75.2485 72.1206C75.1418 72.0672 75.0351 72.0139 74.9285 72.0139ZM125.968 109.774C125.862 109.774 125.702 109.774 125.595 109.667L123.728 108.601L71.5685 78.4673C70.2351 77.6673 70.1285 75.4272 71.3551 73.2939C72.5285 71.2139 74.6085 70.2006 75.9418 70.8939L129.862 102.041C130.128 102.147 130.342 102.414 130.342 102.734C130.342 103.107 129.968 103.374 129.648 103.427C129.542 103.427 129.382 103.374 129.275 103.321C128.742 103.001 127.408 103.641 126.555 105.187C125.968 106.201 125.755 107.214 125.968 107.961C126.022 108.227 126.128 108.441 126.288 108.494V108.547C126.608 108.654 126.715 109.081 126.555 109.454C126.395 109.667 126.182 109.774 125.968 109.774Z" fill="#1FE422"/>
<path d="M130.582 89.1601C128.556 87.9868 125.782 88.1468 122.689 89.9601C116.449 93.5334 111.436 102.227 111.436 109.373C111.436 112.947 112.716 115.453 114.742 116.627L120.182 119.773C118.156 118.6 116.929 116.093 116.929 112.467C116.929 105.373 121.942 96.6801 128.129 93.1068C131.222 91.2934 133.996 91.1334 136.076 92.3601L130.582 89.1601Z" fill="#2B303E"/>
<path d="M127.678 89.0785C126.238 89.0785 124.638 89.5585 123.038 90.4652C117.011 93.9852 112.158 102.412 112.158 109.345C112.158 112.492 113.225 114.892 115.091 116.012L117.118 117.132C116.531 115.852 116.265 114.305 116.265 112.492C116.265 105.132 121.438 96.1718 127.785 92.4385C129.331 91.5852 130.878 91.0518 132.265 90.8918L130.238 89.7185C129.491 89.2918 128.638 89.0785 127.678 89.0785ZM120.211 120.438C120.051 120.438 119.945 120.385 119.891 120.332H119.838L114.398 117.185C112.051 115.852 110.771 113.025 110.771 109.345C110.771 101.985 115.945 92.9718 122.345 89.3451C125.491 87.4785 128.638 87.2118 130.931 88.4918L136.425 91.6918C136.745 91.9052 136.851 92.3318 136.638 92.5985C136.478 92.9185 136.051 93.0251 135.731 92.8651C133.865 91.7985 131.198 92.1185 128.478 93.6652C122.451 97.0785 117.598 105.558 117.598 112.492C117.598 115.638 118.611 117.985 120.425 119.052C120.745 119.158 120.905 119.425 120.905 119.745C120.905 120.118 120.585 120.385 120.211 120.438Z" fill="#1FE422"/>
<path d="M116.904 112.499C116.904 116.072 118.131 118.579 120.211 119.805C122.238 120.925 125.011 120.765 128.104 119.005C134.291 115.432 139.304 106.739 139.304 99.5921C139.304 95.9654 138.078 93.5121 136.051 92.3388C134.024 91.1654 131.198 91.3254 128.104 93.1388C121.918 96.6588 116.904 105.352 116.904 112.499Z" fill="#2B303E"/>
<path d="M133.147 92.2202C131.707 92.2202 130.107 92.7535 128.507 93.6602C122.48 97.1268 117.574 105.554 117.574 112.54C117.574 115.687 118.64 118.034 120.56 119.154C121.307 119.634 122.16 119.847 123.12 119.847C124.56 119.847 126.16 119.367 127.76 118.354C133.787 114.94 138.694 106.514 138.694 99.5802C138.694 96.3268 137.627 93.9802 135.707 92.9135C134.96 92.4868 134.107 92.2202 133.147 92.2202ZM123.12 121.18C121.947 121.18 120.827 120.914 119.867 120.327C117.52 118.994 116.24 116.22 116.24 112.54C116.24 105.127 121.414 96.1668 127.76 92.4868C130.96 90.6735 134.107 90.4068 136.4 91.6868C138.747 93.0735 140.027 95.8468 140.027 99.5802C140.027 106.887 134.854 115.9 128.507 119.58C126.587 120.647 124.827 121.18 123.12 121.18Z" fill="#1FE422"/>
<path d="M123.076 108.924C123.076 112.177 125.316 113.51 128.143 111.91C130.916 110.257 133.21 106.31 133.21 103.11C133.21 99.8569 130.916 98.5769 128.143 100.177C125.316 101.777 123.076 105.67 123.076 108.924Z" fill="#2B303E"/>
<path d="M130.373 100.184C129.786 100.184 129.146 100.397 128.453 100.77C125.893 102.264 123.706 105.944 123.706 108.93C123.706 110.797 124.56 111.917 125.84 111.917C126.426 111.917 127.066 111.704 127.76 111.277C130.373 109.784 132.506 106.104 132.506 103.117C132.506 101.304 131.706 100.184 130.373 100.184ZM125.84 113.25C123.706 113.25 122.373 111.544 122.373 108.93C122.373 105.464 124.773 101.304 127.76 99.5972C128.666 99.0638 129.573 98.7972 130.373 98.7972C132.506 98.7972 133.84 100.504 133.84 103.117C133.84 106.584 131.493 110.69 128.453 112.45C127.546 112.984 126.693 113.25 125.84 113.25Z" fill="#1FE422"/>
<path d="M44.4456 118.68C42.6856 118.68 41.2989 117.294 41.2989 115.534V93.7202C41.2989 92.0135 39.9123 89.5602 38.4189 88.7068L35.0589 86.7868C33.5123 85.9335 33.0322 84.0135 33.8856 82.4668C34.7389 80.9735 36.6589 80.4402 38.2056 81.3468L41.5656 83.2668C45.0323 85.2402 47.6456 89.7735 47.6456 93.7202V115.534C47.6456 117.294 46.2056 118.68 44.4456 118.68Z" fill="#2B303E"/>
<path d="M36.6234 81.5552C35.7168 81.5552 34.9168 82.0886 34.4368 82.7819C33.7968 84.0086 34.2234 85.5019 35.3968 86.1952L38.7568 88.1152C40.4101 89.1286 42.0101 91.7952 42.0101 93.7686V115.582C42.0101 116.915 43.0768 118.035 44.4101 118.035C45.7968 118.035 46.9168 116.915 46.9168 115.582V93.7686C46.9168 89.9819 44.4634 85.7152 41.2101 83.8486L37.8501 81.9286C37.4768 81.7152 37.0501 81.5552 36.6234 81.5552ZM44.4101 119.422C42.3301 119.422 40.6234 117.662 40.6234 115.582V93.7686C40.6234 92.2752 39.2901 90.0352 38.0634 89.3419L34.7034 87.3686C32.8368 86.3552 32.1968 83.9552 33.3168 82.1419C34.3301 80.3819 36.7834 79.6886 38.5434 80.7019L41.9034 82.6752C45.5301 84.8086 48.3034 89.5019 48.3034 93.7686V115.582C48.3034 117.662 46.5968 119.422 44.4101 119.422Z" fill="#1FE422"/>
<path d="M38.715 81.6094C37.595 81.6094 36.5816 81.0227 35.995 80.0627C35.1416 78.516 35.6216 76.596 37.1683 75.7427L50.9283 67.7427C52.475 66.8894 54.395 67.3694 55.3016 68.916C56.155 70.4094 55.6216 72.3294 54.1283 73.236L40.315 81.1827C39.835 81.5027 39.2483 81.6094 38.715 81.6094Z" fill="#2B303E"/>
<path d="M52.5245 68.0192C52.0978 68.0192 51.6712 68.1258 51.2978 68.3392L37.4845 76.3392C36.8978 76.6592 36.4712 77.1925 36.3112 77.8325C36.1512 78.4725 36.2045 79.1125 36.5778 79.6992C37.2178 80.8192 38.8178 81.2458 39.9378 80.6058L53.7512 72.6592C54.3378 72.2858 54.7645 71.7525 54.9245 71.1658C55.0845 70.5258 54.9778 69.8325 54.6578 69.2458C54.2312 68.4992 53.4312 68.0192 52.5245 68.0192ZM38.7111 82.3125C37.3245 82.3125 36.0445 81.5658 35.3511 80.3925C34.8711 79.4858 34.7645 78.4192 34.9778 77.5125C35.2445 76.4458 35.8845 75.6992 36.7912 75.1658L50.6045 67.1658C52.3645 66.1525 54.8178 66.8458 55.8312 68.6058C56.3645 69.4592 56.5245 70.5258 56.2045 71.4858C55.9378 72.4992 55.3512 73.3525 54.4445 73.7792L40.6312 81.7792C40.0445 82.1525 39.3512 82.3125 38.7111 82.3125Z" fill="#1FE422"/>
<path d="M78.4971 97.0781C77.7505 97.0781 77.0038 96.8115 76.3638 96.2248L50.4438 72.8115C49.1104 71.6381 49.0038 69.6648 50.1771 68.3848C51.3504 67.1048 53.3238 66.9981 54.6571 68.1181L80.6305 91.5315C81.9104 92.7581 82.0171 94.7315 80.8438 96.0115C80.2038 96.7048 79.3505 97.0781 78.4971 97.0781Z" fill="#2B303E"/>
<path d="M52.5462 68.0212C51.8529 68.0212 51.1595 68.3412 50.6795 68.8746C50.2529 69.3012 50.0395 69.9412 50.0929 70.6346C50.0929 71.3279 50.4129 71.8612 50.8929 72.3412L76.8662 95.7546C77.8262 96.6079 79.4795 96.5546 80.3329 95.5946C80.8129 95.1146 81.0262 94.4212 80.9729 93.7812C80.9729 93.1412 80.6529 92.5546 80.1729 92.0746L54.1995 68.6612C53.7195 68.2346 53.1329 68.0212 52.5462 68.0212ZM78.5195 97.7812C77.5595 97.7812 76.6529 97.4079 75.9062 96.7679L49.9862 73.3546C49.2395 72.6612 48.7595 71.7012 48.7062 70.6879C48.6529 69.6746 49.0262 68.7146 49.6662 67.9146C51.0529 66.4212 53.6129 66.3146 55.1062 67.6479L81.0795 91.1146C81.8262 91.7546 82.3062 92.7146 82.3595 93.6746C82.4129 94.7412 82.0395 95.7546 81.3995 96.5012C80.6529 97.3012 79.5862 97.7812 78.5195 97.7812Z" fill="#1FE422"/>
<path d="M78.5196 97.0781C77.453 97.0781 76.3863 96.4915 75.7996 95.5315C74.9463 93.9848 75.4263 92.0648 76.973 91.2115L101.986 76.7048C103.48 75.8515 105.453 76.3315 106.306 77.8781C107.213 79.3715 106.68 81.2915 105.186 82.1981L80.1196 96.6515C79.6396 96.9181 79.053 97.0781 78.5196 97.0781Z" fill="#2B303E"/>
<path d="M103.565 76.9813C103.138 76.9813 102.712 77.0879 102.338 77.3013L77.2716 91.7546C76.0982 92.4479 75.7249 93.9413 76.3649 95.1679C77.0049 96.2879 78.6049 96.7146 79.7782 96.0213L104.792 81.6213C105.965 80.9279 106.392 79.4346 105.698 78.2079C105.272 77.4613 104.472 76.9813 103.565 76.9813ZM78.4982 97.7812C77.1649 97.7812 75.8849 97.0346 75.1916 95.8613C74.6582 94.9546 74.5516 93.8879 74.8183 92.9279C75.0849 91.9146 75.7249 91.1146 76.6316 90.5813L101.645 76.1279C103.405 75.1146 105.858 75.8079 106.872 77.5679C107.405 78.4213 107.565 79.4879 107.298 80.4479C107.032 81.4613 106.392 82.3146 105.485 82.7946L80.4183 97.2479C79.8849 97.6213 79.1916 97.7812 78.4982 97.7812Z" fill="#1FE422"/>
<path d="M38.2825 86.6489C34.9759 86.6489 32.2559 85.1023 32.2559 83.1823C32.2559 81.2089 34.9759 79.6623 38.2825 79.6623C41.5892 79.6623 44.3092 81.2089 44.3092 83.1823C44.3092 85.1023 41.5892 86.6489 38.2825 86.6489Z" fill="#2B303E"/>
<path d="M38.3118 80.4044C35.3785 80.4044 32.9251 81.6311 32.9251 83.1778C32.9251 84.7244 35.3785 85.9511 38.3118 85.9511C41.2451 85.9511 43.6985 84.7244 43.6985 83.1778C43.6985 81.6311 41.2451 80.4044 38.3118 80.4044ZM38.3118 87.3911C34.5251 87.3911 31.5918 85.5244 31.5918 83.1778C31.5918 80.8311 34.5251 79.0178 38.3118 79.0178C42.0985 79.0178 45.0318 80.8311 45.0318 83.1778C45.0318 85.5244 42.0985 87.3911 38.3118 87.3911Z" fill="#1FE422"/>
<path d="M38.2825 69.3151C34.9759 69.3151 32.2559 67.7684 32.2559 65.8484V83.1818C32.2559 85.1018 34.9759 86.6484 38.2825 86.6484C41.5892 86.6484 44.3092 85.1018 44.3092 83.1818V65.8484C44.3092 67.7684 41.5892 69.3151 38.2825 69.3151Z" fill="#2B303E"/>
<path d="M32.9394 68.4187V83.1387C32.9394 84.7387 35.3927 85.9654 38.3261 85.9654C41.2061 85.9654 43.6594 84.7387 43.6594 83.1387V68.4187C42.4327 69.4321 40.5127 70.0187 38.3261 70.0187C36.0861 70.0187 34.1661 69.4321 32.9394 68.4187ZM38.3261 87.3521C34.5394 87.3521 31.5527 85.4854 31.5527 83.1387V65.8054C31.5527 65.4321 31.8727 65.1121 32.2461 65.1121C32.6194 65.1121 32.9394 65.4321 32.9394 65.8054C32.9394 67.3521 35.3927 68.6321 38.3261 68.6321C41.2061 68.6321 43.6594 67.3521 43.6594 65.8054C43.6594 65.4321 43.9794 65.1121 44.3527 65.1121C44.7261 65.1121 45.0461 65.4321 45.0461 65.8054V83.1387C45.0461 85.4854 42.0594 87.3521 38.3261 87.3521Z" fill="#1FE422"/>
<path d="M38.2825 69.3052C34.9759 69.3052 32.2559 67.7585 32.2559 65.8385C32.2559 63.8652 34.9759 62.3185 38.2825 62.3185C41.5892 62.3185 44.3092 63.8652 44.3092 65.8385C44.3092 67.7585 41.5892 69.3052 38.2825 69.3052Z" fill="#2B303E"/>
<path d="M38.3118 63.0607C35.3785 63.0607 32.9251 64.2874 32.9251 65.834C32.9251 67.3807 35.3785 68.6074 38.3118 68.6074C41.2451 68.6074 43.6985 67.3807 43.6985 65.834C43.6985 64.2874 41.2451 63.0607 38.3118 63.0607ZM38.3118 70.0474C34.5251 70.0474 31.5918 68.1807 31.5918 65.834C31.5918 63.4874 34.5251 61.674 38.3118 61.674C42.0985 61.674 45.0318 63.4874 45.0318 65.834C45.0318 68.1807 42.0985 70.0474 38.3118 70.0474Z" fill="#1FE422"/>
<path d="M96.3461 93.2114C84.0261 93.2114 74.0527 87.4514 74.0527 80.3581C74.0527 73.2114 84.0261 67.5048 96.3461 67.5048C108.613 67.5048 118.586 73.2114 118.586 80.3581C118.586 87.4514 108.613 93.2114 96.3461 93.2114Z" fill="#2B303E"/>
<path d="M96.3363 68.1683C84.3896 68.1683 74.7363 73.6617 74.7363 80.3817C74.7363 87.0483 84.3896 92.4883 96.3363 92.4883C108.23 92.4883 117.936 87.0483 117.936 80.3817C117.936 73.6617 108.23 68.1683 96.3363 68.1683ZM96.3363 93.875C83.6429 93.875 73.3496 87.795 73.3496 80.3817C73.3496 72.8617 83.6429 66.7817 96.3363 66.7817C108.976 66.7817 119.323 72.8617 119.323 80.3817C119.323 87.795 108.976 93.875 96.3363 93.875Z" fill="#1FE422"/>
<path d="M96.3461 85.0509C84.0261 85.0509 74.0527 79.3443 74.0527 72.1976V80.3576C74.0527 87.4509 84.0261 93.2109 96.3461 93.2109C108.613 93.2109 118.586 87.4509 118.586 80.3576V72.1976C118.586 79.3443 108.613 85.0509 96.3461 85.0509Z" fill="#2B303E"/>
<path d="M74.722 76.8088V80.3288C74.722 87.0488 84.4287 92.4888 96.322 92.4888C108.215 92.4888 117.922 87.0488 117.922 80.3288V76.8088C114.722 82.0355 106.242 85.7155 96.322 85.7155C86.402 85.7155 77.922 82.0355 74.722 76.8088ZM96.322 93.8755C83.6287 93.8755 73.3887 87.7955 73.3887 80.3288V72.1688C73.3887 71.7955 73.6553 71.4755 74.0287 71.4755C74.402 71.4755 74.722 71.7955 74.722 72.1688C74.722 78.8888 84.4287 84.3822 96.322 84.3822C108.215 84.3822 117.922 78.8888 117.922 72.1688C117.922 71.7955 118.242 71.4755 118.615 71.4755C118.989 71.4755 119.309 71.7955 119.309 72.1688V80.3288C119.309 87.7955 109.015 93.8755 96.322 93.8755Z" fill="#7370FF"/>
<path d="M96.3461 85.0469C84.0261 85.0469 74.0527 79.3402 74.0527 72.1935C74.0527 65.1002 84.0261 59.3402 96.3461 59.3402C108.613 59.3402 118.586 65.1002 118.586 72.1935C118.586 79.3402 108.613 85.0469 96.3461 85.0469Z" fill="#2B303E"/>
<path d="M96.3363 59.9662C84.3896 59.9662 74.7363 65.4595 74.7363 72.1795C74.7363 78.8462 84.3896 84.3395 96.3363 84.3395C108.23 84.3395 117.936 78.8462 117.936 72.1795C117.936 65.4595 108.23 59.9662 96.3363 59.9662ZM96.3363 85.6729C83.6429 85.6729 73.3496 79.6462 73.3496 72.1795C73.3496 64.7129 83.6429 58.6329 96.3363 58.6329C108.976 58.6329 119.323 64.7129 119.323 72.1795C119.323 79.6462 108.976 85.6729 96.3363 85.6729Z" fill="#7370FF"/>
<path d="M61.5904 58.6802C52.6838 58.6802 43.7238 56.7068 36.7904 52.6535C29.5371 48.4935 25.5371 42.7335 25.5371 36.4935C25.5371 30.2535 29.5371 24.4935 36.7904 20.3335C38.2838 19.4802 40.2038 19.9602 41.0571 21.5068C41.9638 23.0002 41.4304 24.9202 39.9371 25.8268C34.7104 28.8135 31.8304 32.6002 31.8304 36.4935C31.8304 40.3868 34.7104 44.2268 39.9371 47.2135C51.8838 54.0935 71.3504 54.0935 83.2971 47.2135C84.7904 46.3602 86.7104 46.8402 87.6171 48.3868C88.4704 49.8802 87.9371 51.8002 86.4438 52.6535C79.4571 56.7068 70.5504 58.6802 61.5904 58.6802Z" fill="#2B303E"/>
<path d="M38.313 20.5962C37.8864 20.5962 37.4597 20.7029 37.0864 20.9162C30.0997 24.9695 26.2064 30.5162 26.2064 36.4895C26.2064 42.4629 30.0997 48.0629 37.0864 52.0629C43.6997 55.9029 52.393 57.9829 61.5664 57.9829C70.7397 57.9829 79.433 55.9029 86.0997 52.0629C86.633 51.7429 87.0597 51.2095 87.2197 50.5695C87.3797 49.9295 87.3264 49.2362 87.0064 48.6495C86.313 47.5295 84.7664 47.1029 83.593 47.7962C77.7264 51.1562 69.8864 53.0229 61.5664 53.0229C53.2464 53.0229 45.4597 51.1562 39.5397 47.7962C34.153 44.6495 31.1664 40.6495 31.1664 36.4895C31.1664 32.3295 34.153 28.3295 39.5397 25.1829C40.713 24.4895 41.1397 22.9962 40.4464 21.8229C40.0197 21.0762 39.2197 20.5962 38.313 20.5962ZM61.5664 59.4229C52.1797 59.4229 43.2197 57.2362 36.393 53.2362C28.9264 48.9162 24.873 42.9962 24.873 36.4895C24.873 29.9829 28.9264 24.0095 36.393 19.7429C38.153 18.6762 40.6064 19.3695 41.6197 21.1295C42.7397 22.9429 42.0464 25.3429 40.233 26.3562C35.273 29.2895 32.553 32.8095 32.553 36.4895C32.553 40.1162 35.273 43.7429 40.233 46.5695C45.9397 49.8762 53.513 51.6895 61.5664 51.6895C69.673 51.6895 77.2464 49.8762 82.8997 46.5695C84.7131 45.5562 87.1664 46.1962 88.1797 48.0095C88.6597 48.8629 88.8197 49.9295 88.5531 50.8895C88.2864 51.9029 87.6464 52.7562 86.793 53.2362C79.9131 57.2362 71.0064 59.4229 61.5664 59.4229Z" fill="#1FE422"/>
<path d="M38.3322 67.626C36.5722 67.626 35.1855 66.2393 35.1855 64.4793V49.9193C35.1855 48.1593 36.5722 46.7193 38.3322 46.7193C40.0922 46.7193 41.4789 48.1593 41.4789 49.9193V64.4793C41.4789 66.2393 40.0922 67.626 38.3322 67.626Z" fill="#2B303E"/>
<path d="M38.3224 47.4996C36.9891 47.4996 35.8691 48.6196 35.8691 49.9529V64.5129C35.8691 65.8996 36.9891 66.9663 38.3224 66.9663C39.6558 66.9663 40.7758 65.8996 40.7758 64.5129V49.9529C40.7758 48.6196 39.6558 47.4996 38.3224 47.4996ZM38.3224 68.4062C36.1891 68.4062 34.4824 66.5929 34.4824 64.5129V49.9529C34.4824 47.8196 36.1891 46.1129 38.3224 46.1129C40.4558 46.1129 42.1624 47.8196 42.1624 49.9529V64.5129C42.1624 66.5929 40.4558 68.4062 38.3224 68.4062Z" fill="#1FE422"/>
</svg>
