<svg width="24" height="25" viewBox="0 0 24 25" fill="none" xmlns="http://www.w3.org/2000/svg">
<path d="M11.7445 20.4625H13.1714C13.293 20.4598 13.4127 20.4313 13.5226 20.379C13.6324 20.3267 13.73 20.2518 13.8089 20.1591C13.9316 19.9666 13.9966 19.743 13.9964 19.5147C13.9964 19.5147 13.9589 17.5815 14.8589 17.278C15.7214 17.0128 16.849 19.1734 18.088 20.0076C18.5649 20.3255 19.13 20.4848 19.7027 20.4625H22.8944C23.1194 20.4625 24.5091 20.2731 23.7944 18.9839C23.7194 18.8714 23.3444 17.9982 21.3914 16.1786C19.3637 14.2833 19.6641 14.5864 22.0664 11.3264C23.5307 9.35533 24.094 8.14229 23.944 7.61303C23.8315 7.19593 22.669 7.2717 22.669 7.2717H19.0667C18.9126 7.2514 18.7559 7.27752 18.6167 7.34672C18.4851 7.44455 18.3817 7.57535 18.3167 7.72593C17.9497 8.71091 17.498 9.6622 16.9667 10.5691C15.352 13.3366 14.7137 13.4881 14.4509 13.2987C13.8509 12.8816 14.0009 11.7064 14.0009 10.8347C14.0009 8.14304 14.4134 7.04364 13.2134 6.74057C12.662 6.59909 12.0913 6.54842 11.5236 6.59053C10.2486 6.59053 9.1581 6.59053 8.51948 6.89398C8.10698 7.0834 7.80698 7.53839 7.99448 7.57627C8.39805 7.61724 8.77213 7.80633 9.04448 8.10703C9.41948 8.5999 9.41948 9.77506 9.41948 9.77506C9.41948 9.77506 9.64448 12.9213 8.93198 13.3009C8.44448 13.5661 7.76948 13.0357 6.3411 10.5335C5.85044 9.66889 5.42428 8.76923 5.0661 7.84184C4.99637 7.68334 4.89417 7.54125 4.7661 7.42474C4.60582 7.29394 4.40974 7.2147 4.2036 7.19743H0.780229C0.780229 7.19743 0.255229 7.15992 0.0677293 7.46262C0.0262723 7.55835 0.00488281 7.66156 0.00488281 7.76588C0.00488281 7.8702 0.0262723 7.97342 0.0677293 8.06914C0.0677293 8.06914 2.77035 14.4348 5.81235 17.6197C8.5911 20.6902 11.7452 20.4629 11.7452 20.4629L11.7445 20.4625Z" fill="white"/>
</svg>
